/* XPM */
static char *SpinUp[] =
{
/* width height ncolors chars_per_pixel */
"20 10 2 1",
/* colors */
"A c #FFFFFFFFFFFF",
"B c #000000000000",
/* pixels */
"AAAAAAAAAAAAAAAAAAAA",
"AAAAAAAAAAAAAAAAAAAA",
"AAAAAAAAAAAAAAAAAAAA",
"AAAAAAAAABAAAAAAAAAA",
"AAAAAAABBBBBAAAAAAAA",
"AAAAABBBBBBBBBAAAAAA",
"AAABBBBBBBBBBBBBAAAA",
"AAAAAAAAAAAAAAAAAAAA",
"AAAAAAAAAAAAAAAAAAAA",
"AAAAAAAAAAAAAAAAAAAA",
};
