/* XPM */
static char *AccountRemote[] =
{
/* width height ncolors chars_per_pixel */
"16 16 10 1",
/* colors */
"A c #FFFFFFFFFFFF",
"B c None",
"C c #999966669999",
"D c #999900006666",
"E c #EEEEEEEEEEEE",
"F c #DDDDDDDDDDDD",
"G c #AAAAAAAAAAAA",
"H c #777777777777",
"I c #444444444444",
"J c #000000000000",
/* pixels */
"BBBJJJJJJJJJBBBB",
"BBBJEEJJEEEJJBBB",
"BBBJEJJJJEEJJJBB",
"BBBJEJJJJEJJEJBB",
"BBBJEEJJEEEEEJBB",
"BBBJEEEEEEEEEJBB",
"BBBJEEJJEEEEEJBB",
"BBBJEJAAJEEEEJBB",
"BBBJEJAJCCEEEJBB",
"BBBJEECDDDJEEJBB",
"BBBJEEJDDDCEEJBB",
"BBBJEEECJCEEEJBB",
"BBBJJJJJJJJJJJBB",
"BBBBBBFJJFBBBBBB",
"BHIJJJJJJJJJJIHB",
"BHIJJJIGGIJJJIHB",
};
