/* XPM */
static char *AccountSIEVE[] =
{
/* width height ncolors chars_per_pixel */
"16 16 7 1",
/* colors */
"A c #FFFFFFFFFFFF",
"B c None",
"C c #CCCCCCCCFFFF",
"D c #DDDDDDDDDDDD",
"E c #AAAAAAAAAAAA",
"F c #888888888888",
"G c #000000000000",
/* pixels */
"BBBBBBBBBBBBBBBB",
"BBBBBBDGGGDBBBBB",
"BBBBBDGAACGBBBBB",
"BBBBDGAACFGBBBBB",
"BBBDGAACFGDBBBBB",
"BBBGGGCFGFGDBBBB",
"BBBGFFGGFGCGDBBB",
"BBBGFCGCGCDCGBBB",
"BBBBGACGCDCGGBBB",
"BBBBBGACDCGEGBBB",
"BBBBBBGACGEGBBBB",
"BBBBBGGGCEGBBBBB",
"BBBBGFEGEGBBBBBB",
"BBBBGECGGBBBBBBB",
"BBBBBGGGBBBBBBBB",
"BBBBBBBBBBBBBBBB",
};
