/* XPM */
static char *AccountAddrSearch[] =
{
/* width height ncolors chars_per_pixel */
"16 16 14 1",
/* colors */
"A c #FFFFFFFFFFFF",
"B c #FFFFFFFFCCCC",
"C c None",
"D c #FFFF66663333",
"E c #CCCC99996666",
"F c #333366666666",
"G c #DDDDDDDDDDDD",
"H c #BBBBBBBBBBBB",
"I c #AAAAAAAAAAAA",
"J c #888888888888",
"K c #777777777777",
"L c #555555555555",
"M c #444444444444",
"N c #000000000000",
/* pixels */
"CCEEEEEEEEEEEEEC",
"CCNNBKNNKBBBBBEC",
"CNEBNGAGHNFFBBEC",
"CCNKGAAGHLKBBBEC",
"CNENAAGHIJNFBBEC",
"CCNNGGHIIJNBBBEC",
"CNEKKHIIJMKBBBEC",
"CCNNNLJJMNFFBBEC",
"CNEBBKNNKBNNBBEC",
"CCNNBDDBBFNNNBEC",
"CNEBBBBBBBBNNNEC",
"CCNNBBBBBBEENNNC",
"CNEBBDDBFFEEENEC",
"CCNNBBBBBBEEBBEC",
"CNEBBBBBBBEBBBEC",
"CCEEEEEEEEEEEEEC",
};
