/* XPM */
static char *ACLCreate[] =
{
/* width height ncolors chars_per_pixel */
"16 16 4 1",
/* colors */
"A c None",
"B c #FFFFCCCC9999",
"C c #CCCC99996666",
"D c #000000000000",
/* pixels */
"AAAAAADDDDDDDDDA",
"AAAAADCCCCCCCDDA",
"AAAADCCCCCCCDCDA",
"AAADDDDDDDDDCCDA",
"AAADBBBBBBBDCCDA",
"AAADBBDDDBBDCCDA",
"AAADBBBBBBBDCCDA",
"AAADDDDDDDDDCCDA",
"AADDCDCCCCDDCCDA",
"ADDDDDDDDDCDCCDA",
"ADBBBBBBBDCDCCDA",
"ADBBDDDBBDCDCCDA",
"ADBBBBBBBDDDCCDA",
"ADDDDDDDDDBDCDAA",
"AAADBBBBBBBDDAAA",
"AAADDDDDDDDDAAAA",
};
