/* XPM */
static char *ACLInsert[] =
{
/* width height ncolors chars_per_pixel */
"16 16 8 1",
/* colors */
"A c None",
"B c #FFFFCCCC9999",
"C c #FFFF66663333",
"D c #CCCC99996666",
"E c #66666666CCCC",
"F c #DDDD00000000",
"G c #EEEEEEEEEEEE",
"H c #000000000000",
/* pixels */
"HHHHHHHHHHHHAAAA",
"HGGGGGGGGFFHAAAA",
"HGGHGHGHGFFHAAAA",
"HGGGHGHHGGGHAAAA",
"HGGGGGGGGGGHHHHA",
"HHHHHHHHHHHHEEHA",
"AAAHGGGGGGGGEEHA",
"AHHHHHHHHHHHHGHH",
"AHGGGGGGGGCCHHDH",
"AHGGHGHHGGCCHDDH",
"HHHHHHHHHHHHDDDH",
"HBBBBBBBBBBHDDDH",
"HBBBHBBHBBBHDDHA",
"HBBBHHHHBBBHDHAA",
"HBBBBBBBBBBHHAAA",
"HHHHHHHHHHHHAAAA",
};
