/* XPM */
static char *ACLRead[] =
{
/* width height ncolors chars_per_pixel */
"16 16 7 1",
/* colors */
"A c None",
"B c #FFFFCCCC9999",
"C c #CCCC99996666",
"D c #EEEEEEEEEEEE",
"E c #AAAAAAAAAAAA",
"F c #777777777777",
"G c #000000000000",
/* pixels */
"AAAGCCCCCCCCCCCG",
"AAFFFFFFFFFCCCGC",
"AAFDDDDDDDFGGGGC",
"AAFDDDDGGDFBBBGC",
"AAFDGDDDDDFBBBGC",
"AAFDDDDDDDFBBBGC",
"AAFDGGGDGDFBBBGC",
"AAFDDDDDDDFGGGGC",
"AAFDGDGDGDFEEGGC",
"AGFDDDDDDDFEGCGC",
"GGGGGGGGGGGGCCGC",
"GBBBBBBBBBBGCCGC",
"GBBBGBBGBBBGCCGC",
"GBBBGGGGBBBGCGGC",
"GBBBBBBBBBBGGBGC",
"GGGGGGGGGGGGBBGC",
};
