/* XPM */
static char *ACLUnset[] =
{
/* width height ncolors chars_per_pixel */
"16 16 4 1",
/* colors */
"A c None",
"B c #DDDD00000000",
"C c #BBBBBBBBBBBB",
"D c #888888888888",
/* pixels */
"AAAAAAAAAAAAAAAA",
"AAAAAAAAAAAAAAAA",
"AAAAAAAAAAAAAAAA",
"AAAAAAAAAAAAAAAA",
"AAAAAAAAAAAAAAAA",
"AAAABBAAAABBAAAA",
"AAAAABBAABBDCAAA",
"AAAAAABBBBDCAAAA",
"AAAAAAABBDCAAAAA",
"AAAAAABBBBAAAAAA",
"AAAAABBDCBBAAAAA",
"AAAABBDCAABBAAAA",
"AAAAADCAAAADCAAA",
"AAAAAAAAAAAAAAAA",
"AAAAAAAAAAAAAAAA",
"AAAAAAAAAAAAAAAA",
};
