/* XPM */
static char *AdbkNewSmall[] =
{
/* width height ncolors chars_per_pixel */
"16 16 5 1",
/* colors */
"A c None",
"B c #FFFFFFFFCCCC",
"C c #FFFFCCCC9999",
"D c #CCCC99996666",
"E c #000000000000",
/* pixels */
"ADDDDDDDDDDAAAAA",
"AEBBBBBBBBDAAAAA",
"EDBBBBBBBBDAAAAA",
"EDBBBBBBBBDAAAAA",
"AEBBCCCCCCDAAAAA",
"EDBBBBBBBBDAAAAA",
"EDBBBBBBBBDAAAAA",
"AEBBBBBBBBDAAAAA",
"EDBBCCCCCCDAAAAA",
"EDBBBBBBBBDAAAAA",
"AEBBBBBBBBDAEEAA",
"ADBBBBBBBBDAEEAA",
"ADDDDDDDDDEEEEEE",
"AAAAAAAAAAEEEEEE",
"AAAAAAAAAAAAEEAA",
"AAAAAAAAAAAAEEAA",
};
