/* XPM */
static char *AdbkTitleSearch[] =
{
/* width height ncolors chars_per_pixel */
"16 16 10 1",
/* colors */
"A c #FFFFFFFFFFFF",
"B c #FFFFFFFFCCCC",
"C c None",
"D c #CCCCCCCCCCCC",
"E c #CCCC99996666",
"F c #EEEEEEEEEEEE",
"G c #DDDDDDDDDDDD",
"H c #BBBBBBBBBBBB",
"I c #888888888888",
"J c #000000000000",
/* pixels */
"CCCCCCCCCCCCCCCC",
"CCCCCCCCCCCCCCCC",
"CCEEEEEEEEEEECCC",
"CCJJBBBBBBBBECCC",
"CJEBBIJIBBBBECCC",
"CCJJIAFGIBBBECCC",
"CJEBJFGDJBBBECCC",
"CCJJIGDHIBBBECCC",
"CJEBBIJIBJBBECCC",
"CCJJBBBBJJJBECCC",
"CJEBBBBBBJJJECCC",
"CCJJBBBBBEJBECCC",
"CJEBBBBBBEBBECCC",
"CCEEEEEEEEEEECCC",
"CCCCCCCCCCCCCCCC",
"CCCCCCCCCCCCCCCC",
};
