/* XPM */
static char *AdbkNew[] =
{
/* width height ncolors chars_per_pixel */
"32 32 5 1",
/* colors */
"A c None",
"B c #FFFFFFFFCCCC",
"C c #FFFFCCCC9999",
"D c #CCCC99996666",
"E c #000000000000",
/* pixels */
"AAAAAAAAAAAAAAAAAAAAAAAAAAAAAAAA",
"AAAAAAAAAAAAAAAAAAAAAAAAAAAAAAAA",
"AAAAAAAAAAAAAAAAAAAAAAAAAAAAAAAA",
"AAAAAAAAAAAAAAAAAAAAAAAAAAAAAAAA",
"AAAAAAAAAAAAAAAAAAAAAAAAAAAAAAAA",
"AAAAAAAADDDDDDDDDDDDDAAAAAAAAAAA",
"AAAAAAAADBBBBBBBBBBBDDAAAAAAAAAA",
"AAAAAAAEEBBBBBBBBBBBDDAAAAAAAAAA",
"AAAAAAEADBBBBBBBBBBBDDAAAAAAAAAA",
"AAAAAAEADBBBBBBBBBBBDDAAAAAAAAAA",
"AAAAAAAEDBCCCCCCCCCCDDAAAAAAAAAA",
"AAAAAAEAEBBBBBBBBBBBDDAAAAAAAAAA",
"AAAAAAEADBBBBBBBBBBBDDAAAAAAAAAA",
"AAAAAAAEDBBBBBBBBBBBDDAAAAAAAAAA",
"AAAAAAEAEBBBBBBBBBBBDDAAAAAAAAAA",
"AAAAAAEADBCCCCCCCCCCDDAAAAAAAAAA",
"AAAAAAAEDBBBBBBBBBBBDDAAAAAAAAAA",
"AAAAAAEAEBBBBBBBBBBBDDAAAAAAAAAA",
"AAAAAAEADBBBBBBBBBBBDDAAAAAAAAAA",
"AAAAAAAEDBBBBBBBBBBBEEEAAAAAAAAA",
"AAAAAAAADBBBBBBBBBBBEEEAAAAAAAAA",
"AAAAAAAADDDDDDDDDDDDEEEAAAAAAAAA",
"AAAAAAAAADDDDDDDDEEEEEEEEEAAAAAA",
"AAAAAAAAAAAAAAAAAEEEEEEEEEAAAAAA",
"AAAAAAAAAAAAAAAAAEEEEEEEEEAAAAAA",
"AAAAAAAAAAAAAAAAAAAAEEEAAAAAAAAA",
"AAAAAAAAAAAAAAAAAAAAEEEAAAAAAAAA",
"AAAAAAAAAAAAAAAAAAAAEEEAAAAAAAAA",
"AAAAAAAAAAAAAAAAAAAAAAAAAAAAAAAA",
"AAAAAAAAAAAAAAAAAAAAAAAAAAAAAAAA",
"AAAAAAAAAAAAAAAAAAAAAAAAAAAAAAAA",
"AAAAAAAAAAAAAAAAAAAAAAAAAAAAAAAA",
};
