/* XPM */
static char *AdbkTitleOpen[] =
{
/* width height ncolors chars_per_pixel */
"16 16 6 1",
/* colors */
"A c #FFFFFFFFCCCC",
"B c None",
"C c #FFFF66663333",
"D c #CCCC99996666",
"E c #333366666666",
"F c #000000000000",
/* pixels */
"BBBBBBBBBBBBBBBB",
"BBBBBBBBBBBBBBBB",
"BDDDDDBDDDDDDBBB",
"BDAAAADFFAAADBBB",
"BDCAEAFDACAEDBBB",
"BDAAAADFFAAADBBB",
"BDAAEEFDAAEEDBBB",
"BDAAAADFFAAADBBB",
"BDCAEAFDACAEDBBB",
"BDAAAADFFAAADBBB",
"BDAAEEFDAAEEDBBB",
"BDAAAADFFAAADBBB",
"BDAAAAFDAAAADBBB",
"BDDDDDBDDDDDDBBB",
"BBBBBBBBBBBBBBBB",
"BBBBBBBBBBBBBBBB",
};
