/* XPM */
static char *AdbkTitleResolve[] =
{
/* width height ncolors chars_per_pixel */
"16 16 5 1",
/* colors */
"A c #FFFFFFFFCCCC",
"B c None",
"C c #FFFFCCCC9999",
"D c #CCCC99996666",
"E c #000000000000",
/* pixels */
"BBBBBBBBBBBBBBBB",
"BBBBBBBBBBBBBBBB",
"BBDDDDDDDDDDDBBB",
"BBEEAAAAAAAADBBB",
"BEDAAAEEEEAADBBB",
"BBEEAECCCCEADBBB",
"BEDAAECCECEADBBB",
"BBEEAECCCCEADBBB",
"BEDAAECCEEAADBBB",
"BBEEAECCCEAADBBB",
"BEDAAAEEEDDDDBBB",
"BBEEAAAAADDADBBB",
"BEDAAAAAADAADBBB",
"BBDDDDDDDDDDDBBB",
"BBBBBBBBBBBBBBBB",
"BBBBBBBBBBBBBBBB",
};
