/* XPM */
static char *AdbkDeleteSmall[] =
{
/* width height ncolors chars_per_pixel */
"16 16 14 1",
/* colors */
"A c #FFFFFFFFCCCC",
"B c None",
"C c #FFFF66663333",
"D c #CCCCCCCCCCCC",
"E c #CCCC99996666",
"F c #333366666666",
"G c #DDDDDDDDDDDD",
"H c #BBBBBBBBBBBB",
"I c #AAAAAAAAAAAA",
"J c #888888888888",
"K c #777777777777",
"L c #555555555555",
"M c #444444444444",
"N c #000000000000",
/* pixels */
"BBEEEEEEEEEEEEBB",
"BBNNAAAAAAAAAEBB",
"BNEAACCAFFFFAEBB",
"BBNNAAAAAAAAAEBB",
"BNEAACCAAFFFAEBB",
"BNNNNNNNNNNNNNNB",
"BNGGHHIIJJKKLLNB",
"BNGDLHIDLJKDMLNB",
"BNGDLHIDLJKDMLNB",
"BNGDLHIDLJKDMLNB",
"BNGDLHIDLJKDMLNB",
"BNGDLHIDLJKDMLNB",
"BNGDLHIDLJKDMLNB",
"BNGGHHIIJJKKLLNB",
"BNNNNNNNNNNNNNNB",
"BBNNNNNNNNNNNNBB",
};
