/* XPM */
static char *AdbkDelete[] =
{
/* width height ncolors chars_per_pixel */
"32 32 15 1",
/* colors */
"A c #FFFFFFFFFFFF",
"B c #FFFFFFFFCCCC",
"C c None",
"D c #FFFFCCCC9999",
"E c #CCCCCCCCCCCC",
"F c #CCCC99996666",
"G c #333366666666",
"H c #DDDDDDDDDDDD",
"I c #BBBBBBBBBBBB",
"J c #AAAAAAAAAAAA",
"K c #888888888888",
"L c #777777777777",
"M c #555555555555",
"N c #444444444444",
"O c #000000000000",
/* pixels */
"CCCCCCCCCCCCCCCCCCCCCCCCCCCCCCCC",
"CCCCCCCCCCCCCCCCCCCCCCCCCCCCCCCC",
"CCCCCCCCCCCCCCCCCCCCCCCCCCCCCCCC",
"CCCCCCCCCCCCCCCCCCCCCCCCCCCCCCCC",
"CCCCCCCCCCCCCCCCCCCCCCCCCCCCCCCC",
"CCCCCCCCFFFFFFFFFFFFFFFCCCCCCCCC",
"CCCCCCCOFBBBBBBBBBBBBBFFCCCCCCCC",
"CCCCCCOCOBGGBGGBGBGGGBFFCCCCCCCC",
"CCCCCCOCFBBBBBBBBBBBBBFFCCCCCCCC",
"CCCCCCCOFBBGGGBBGBGBGBFFCCCCCCCC",
"CCCCCCOCOBBBBBBBBBBBBBFFCCCCCCCC",
"CCCCCCOCFBDDDDDDDDDDDDFFCCCCCCCC",
"CCCCCCCOFBBBBBBBBBBBBBFFCCCCCCCC",
"CCCCCCOOOOOOOOOOOOOOOOOOOCCCCCCC",
"CCCCCCOEEEEHIIJJKKLLMMMMOCCCCCCC",
"CCCCCCOAKEEEMIJEMKLENMMKOCCCCCCC",
"CCCCCCOAKEEEMIJEMKLENMMKOCCCCCCC",
"CCCCCCOAKEEEMIJEMKLENMMKOCCCCCCC",
"CCCCCCOAKEEEMIJEMKLENMMKOCCCCCCC",
"CCCCCCOAKEEEMIJEMKLENMMKOCCCCCCC",
"CCCCCCOAKEEEMIJEMKLENMMKOCCCCCCC",
"CCCCCCOAKEEEMIJEMKLENMMKOCCCCCCC",
"CCCCCCOAKEEEMIJEMKLENMMKOCCCCCCC",
"CCCCCCOAKEEEMIJEMKLENMMKOCCCCCCC",
"CCCCCCOAKEEEMIJEMKLENMMKOCCCCCCC",
"CCCCCCOEEEEHIIJJKKLLMMMMOCCCCCCC",
"CCCCCCOOOOOOOOOOOOOOOOOOOCCCCCCC",
"CCCCCCCOOOOOOOOOOOOOOOOOCCCCCCCC",
"CCCCCCCCCCCCCCCCCCCCCCCCCCCCCCCC",
"CCCCCCCCCCCCCCCCCCCCCCCCCCCCCCCC",
"CCCCCCCCCCCCCCCCCCCCCCCCCCCCCCCC",
"CCCCCCCCCCCCCCCCCCCCCCCCCCCCCCCC",
};
