/* XPM */
static char *AdbkOpen[] =
{
/* width height ncolors chars_per_pixel */
"32 32 7 1",
/* colors */
"A c #FFFFFFFFFFFF",
"B c #FFFFFFFFCCCC",
"C c None",
"D c #FFFFCCCC9999",
"E c #CCCC99996666",
"F c #333366666666",
"G c #000000000000",
/* pixels */
"CCCCCCCCCCCCCCCCCCCCCCCCCCCCCCCC",
"CCCCCCCCCCCCCCCCCCCCCCCCCCCCCCCC",
"CCCCCCCCCCCCCCCCCCCCCCCCCCCCCCCC",
"CCCCCCCCCCCCCCCCCCCCCCCCCCCCCCCC",
"CCCCCCCCCCCCCCCCCCCCCCCCCCCCCCCC",
"CCCCCCCCEEEEEEEEEEEEEEEECCCCCCCC",
"CCCCCCCGEBBBBBBBBBBBBBBEECCCCCCC",
"CCCCCCGCGBFFBFFBFBFFFBBEECCCCCCC",
"CCCCCCGCEBBBBBBBBBBBBBBEECCCCCCC",
"CCCCCCCGEBBFFFBBFBFBFFBEECCCCCCC",
"CCCCCCGCGBBBBBBBBBBBBBBEECCCCCCC",
"CCCCCCGCEBDDDDDDDDDDDDDEECCCCCCC",
"CCCCCCCGEBEEEEEEEEEEEEEEECCCCCCC",
"CCCCCCGCGBEEEEEEEEEEEEBEECCCCCCC",
"CCCCCCGCEBEEEEEEEEEEEBBEECCCCCCC",
"CCCCCCCGEBEEEEEEEEEEBBBEECCCCCCC",
"CCCCCCGCGBEEEEEEEEEBFFBEECCCCCCC",
"CCCCCCGCEBEEEEEEEEBBBBBEECCCCCCC",
"CCCCCCCGEBEEEEEEEDDDDDDEECCCCCCC",
"CCCCCCGCGBEEEEEEBBBBBBBEECCCCCCC",
"CCCCCCGCEBEEEEEBBBBBBBBEECCCCCCC",
"CCCCCCCGEBEEEEFBFBFFFBBEECCCCCCC",
"CCCCCCGCGBEEEBBBBBBABBBEECCCCCCC",
"CCCCCCGCEBEEFFBBFBFBFFBEECCCCCCC",
"CCCCCCCGEBEBBBBBBBBBBBBEECCCCCCC",
"CCCCCCCCEEEEEEEEEEEEEEEEECCCCCCC",
"CCCCCCCCCEEEEEEEEEEEEEEEECCCCCCC",
"CCCCCCCCCCCCCCCCCCCCCCCCCCCCCCCC",
"CCCCCCCCCCCCCCCCCCCCCCCCCCCCCCCC",
"CCCCCCCCCCCCCCCCCCCCCCCCCCCCCCCC",
"CCCCCCCCCCCCCCCCCCCCCCCCCCCCCCCC",
"CCCCCCCCCCCCCCCCCCCCCCCCCCCCCCCC",
};
