/* XPM */
static char *AddressSearchDoc[] =
{
/* width height ncolors chars_per_pixel */
"32 32 13 1",
/* colors */
"A c #FFFFFFFFFFFF",
"B c #FFFFFFFFCCCC",
"C c None",
"D c #FFFF66663333",
"E c #CCCCCCCCCCCC",
"F c #CCCC99996666",
"G c #333366666666",
"H c #EEEEEEEEEEEE",
"I c #DDDDDDDDDDDD",
"J c #AAAAAAAAAAAA",
"K c #777777777777",
"L c #444444444444",
"M c #000000000000",
/* pixels */
"CCCCFFFFFFFFFFFFFFFFFFFFFFFFCCCC",
"CCCMMBBBBBBBBBBBBBBBBBBBBBBFFCCC",
"CCMCFMBDDDDBBGGGGGBGGGGGGBBFFCCC",
"CCMCFMBBBBBBBBBBBBBBBBBBBBBFFCCC",
"CCMCFBBDDDDBBGGGGGBGGGGGGBBFFCCC",
"CCCMMBBBBBBBBBBBBBBBBBBBBBBFFCCC",
"CCMCFMBDDDMMMMMGGGBGGGGGGBBFFCCC",
"CCMCFMBBBMIIHHIMBBBBBBBBBBBFFCCC",
"CCMCFBBDMIHAAHIEMGBGGGGGGBBFFCCC",
"CCCMMBBBMIAAHIEJMBBBBBBBBBBFFCCC",
"CCMCFMBDMHAHIEEKMGBGGGGGGBBFFCCC",
"CCMCFMBBMHHIEEJLMBBBBBBBBBBFFCCC",
"CCMCFBBDMIIEEJKLMGBGGGGGGBBFFCCC",
"CCCMMBBBBMEJKLLMBBBBBBBBBBBFFCCC",
"CCMCFMBDDDMMMMMGMMBGGGGGGBBFFCCC",
"CCMCFMBBBBBBBBBBMMMBBBBBBBBFFCCC",
"CCMCFBBDDDDBBGGGGMMMGGGGGBBFFCCC",
"CCCMMBBBBBBBBBBBBBMMMBBBBBBFFCCC",
"CCMCFMBDDDDBBGGGGGBMMMGGGBBFFCCC",
"CCMCFMBBBBBBBBBBBBBBMMMBBBBFFCCC",
"CCMCFBBDDDDBBGGGGGBGGMGGGBBFFCCC",
"CCCMMBBBBBBBBBBBBBBBBBBBBBBFFCCC",
"CCMCFMBDDDDBBGGGGGBFFFFFFFFFFCCC",
"CCMCFMBBBBBBBBBBBBBFFFFFFFFBFCCC",
"CCMCFBBDDDDBBGGGGGBFFFFFFFBBFCCC",
"CCCMMBBBBBBBBBBBBBBFFFFFFBBBFCCC",
"CCMCFMBDDDDBBGGGGGBFFFFFGBBBFCCC",
"CCMCFMBBBBBBBBBBBBBFFFFBBBBBFCCC",
"CCMCFBBDDDDBBGGGGGBFFFGGGBBBFCCC",
"CCCMFBBBBBBBBBBBBBBFFBBBBBBBFCCC",
"CCCCFFFFFFFFFFFFFFFFBBBBBBBBFCCC",
"CCCCCFFFFFFFFFFFFFFFFFFFFFFFFCCC",
};
