/* XPM */
static char *AddressFlag[] =
{
/* width height ncolors chars_per_pixel */
"16 16 4 1",
/* colors */
"A c None",
"B c #FFFFCCCC9999",
"C c #888888888888",
"D c #000000000000",
/* pixels */
"AAAAAAAAAAAAAAAA",
"AAADDDDDDDDDAAAA",
"AADBBBBBBBBBDAAA",
"AADBBBBBBDBBDCAA",
"AADBBBBBBDBBDCAA",
"AADBBBBBBBBBDCAA",
"AADBBBBBBBBBDCAA",
"AADBBBBBBBBBDCAA",
"AADBBBBBBBDDDCAA",
"AADBBBBBBBBDCAAA",
"AADBBBBBDBBDCAAA",
"AADBBBBBBDDDCAAA",
"AADBBBBBBBBDCAAA",
"AAADDDDDDDDCAAAA",
"AAAACCCCCCCAAAAA",
"AAAAAAAAAAAAAAAA",
};
