/* XPM */
static char *AddressFileCached[] =
{
/* width height ncolors chars_per_pixel */
"16 16 10 1",
/* colors */
"A c #FFFFFFFFCCCC",
"B c None",
"C c #FFFF66663333",
"D c #CCCC99996666",
"E c #99999999FFFF",
"F c #333366666666",
"G c #00000000DDDD",
"H c #BBBBBBBBBBBB",
"I c #AAAAAAAAAAAA",
"J c #000000000000",
/* pixels */
"BBDDDDDDDDDDDDDB",
"BBJJAGGGGGGGGGDB",
"BJDAAGJGGGGGAGDB",
"BBJJAGAGGGGGGGDB",
"BJDAAGGGEIEGGGDB",
"BBJJAGGGIIIGGGDB",
"BJDAAGGGEIEGGGDB",
"BBJJAGGGGGGGGGDB",
"BJDAAGGHHHHHGGDB",
"BBJJAGGHHHHHGADB",
"BJDAAAAAAAAAAADB",
"BBJJAAAAAADDDDDB",
"BJDAACCAFFDDDADB",
"BBJJAAAAAADDAADB",
"BJDAAAAAAADAAADB",
"BBDDDDDDDDDDDDDB",
};
