/* XPM */
static char *AddressFileUncached[] =
{
/* width height ncolors chars_per_pixel */
"16 16 14 1",
/* colors */
"A c #FFFFFFFFCCCC",
"B c None",
"C c #FFFF66663333",
"D c #CCCCCCCCFFFF",
"E c #CCCC99996666",
"F c #99999999FFFF",
"G c #66666666CCCC",
"H c #333399996666",
"I c #333366666666",
"J c #333333336666",
"K c #0000BBBB0000",
"L c #777777777777",
"M c #444444444444",
"N c #000000000000",
/* pixels */
"BBEEEEEEEEEEEEEB",
"BBNNAAALMNMLAAEB",
"BNEAACNDKDDFNAEB",
"BBNNALIKDHDIILEB",
"BNEAAMIKHHFIIMEB",
"BBNNANIKHHFKINEB",
"BNEAAMDDHFFIIMEB",
"BBNNALFDIIGGJLEB",
"BNEAAANFIIJJNAEB",
"BBNNACCLMNMLAAEB",
"BNEAAAAAAAAAAAEB",
"BBNNAAAAAAEEEEEB",
"BNEAACCAIIEEEAEB",
"BBNNAAAAAAEEAAEB",
"BNEAAAAAAAEAAAEB",
"BBEEEEEEEEEEEEEB",
};
