/* XPM */
static char *AddressBookDoc[] =
{
/* width height ncolors chars_per_pixel */
"32 32 7 1",
/* colors */
"A c #FFFFFFFFCCCC",
"B c None",
"C c #FFFFCCCC9999",
"D c #FFFF66663333",
"E c #CCCC99996666",
"F c #333366666666",
"G c #000000000000",
/* pixels */
"BBBBEEEEEEEEEEEEEEEEEEEEEEEEBBBB",
"BBBGGAAAAAAAAAAAAAAAAAAAAAAEEBBB",
"BBGBEGADDDDAAFFFFFAFFFFFFAAEEBBB",
"BBGBEGAAAAAAAAAAAAAAAAAAAAAEEBBB",
"BBGBEAADDDDDAFFFAFFFFFAFFAAEEBBB",
"BBBGGAAAAAAAAAAAAAAAAAAAAAAEEBBB",
"BBGBEGAAAAAAAFFFFFFAFFAFFAAEEBBB",
"BBGBEGAAAAAAAAAAAAAAAAAAAAAEEBBB",
"BBGBEAADDDAAAFFAFFFAFFFAAAAEEBBB",
"BBBGGAAAAAAAAAAAAAAAAAAAAAAEEBBB",
"BBGBEGCCCCCCCCCCCCCCCCCCCCAEEBBB",
"BBGBEGAAAAAAAAAAAAAAAAAAAAAEEBBB",
"BBGBEAADDDDAAFFFFFAFFFFFFAAEEBBB",
"BBBGGAAAAAAAAAAAAAAAAAAAAAAEEBBB",
"BBGBEGADDDDDAFFFAFFFFFAFFAAEEBBB",
"BBGBEGAAAAAAAAAAAAAAAAAAAAAEEBBB",
"BBGBEAAAAAAAAFFFFFFAFFAFFAAEEBBB",
"BBBGGAAAAAAAAAAAAAAAAAAAAAAEEBBB",
"BBGBEGADDDAAAFFAFFFAFFFAAAAEEBBB",
"BBGBEGAAAAAAAAAAAAAAAAAAAAAEEBBB",
"BBGBEACCCCCCCCCCCCCCCCCCCCAEEBBB",
"BBBGGAAAAAAAAAAAAAAAAAAAAAAEEBBB",
"BBGBEGADDDDAAFFFFFAEEEEEEEEEEBBB",
"BBGBEGAAAAAAAAAAAAAEEEEEEEEAEBBB",
"BBGBEAADDDDDAFFFAFFEEEEEEEAAEBBB",
"BBBGGAAAAAAAAAAAAAAEEEEEEAAAEBBB",
"BBGBEGAAAAAAAFFFFFFEEEEEFFAAEBBB",
"BBGBEGAAAAAAAAAAAAAEEEEAAAAAEBBB",
"BBGBEAADDDAAAFFAFFFEEEFFAAAAEBBB",
"BBBGEAAAAAAAAAAAAAAEEAAAAAAAEBBB",
"BBBBEEEEEEEEEEEEEEEEAAAAAAAAEBBB",
"BBBBBEEEEEEEEEEEEEEEEEEEEEEEEBBB",
};
