/* XPM */
static char *AppendNow[] =
{
/* width height ncolors chars_per_pixel */
"16 16 8 1",
/* colors */
"A c None",
"B c #FFFFCCCC9999",
"C c #FFFF66663333",
"D c #CCCC99996666",
"E c #DDDD00000000",
"F c #0000BBBB0000",
"G c #EEEEEEEEEEEE",
"H c #000000000000",
/* pixels */
"AAAHHHHHHHHAAAAA",
"AAAHFFFFFFHAAAAA",
"AAAGHFFFFHGHHHAA",
"AAAHGHFFHGGCCHAA",
"AAHHHGHHGHHHCHHA",
"AAHGGGGGGEEHHDHA",
"AAHGHGHHGEEHDDHA",
"AHHHHHHHHHHDDDHA",
"AHBBBBBBBBHDDHAA",
"AHBBHBBHBBHDHAAA",
"AHBBHHHHBBHHAAAA",
"AHHHHHHHHHHAAAAA",
"AAAAAAAAAAAAAAAA",
"AAAAAAAAAAAAAAAA",
"AAAAAAAAAAAAAAAA",
"AAAAAAAAAAAAAAAA",
};
