/* XPM */
static char *Applefile[] =
{
/* width height ncolors chars_per_pixel */
"16 16 5 1",
/* colors */
"A c None",
"B c #CCCCCCCC9999",
"C c #BBBBBBBBBBBB",
"D c #777777777777",
"E c #000000000000",
/* pixels */
"AAAAAAAAAAAAAAAA",
"AAAAAAAAAAAAAAAA",
"AAAAEEEEEEEEAAAA",
"AAAEBBBBBBBBEAAA",
"AAAEBDDDDDDBEAAA",
"AAAEBDCCCCDBEAAA",
"AAAEBDCCCCDBEAAA",
"AAAEBDCCCCDBEAAA",
"AAAEBDDDDDDBEAAA",
"AAAEBBBBBBBBEAAA",
"AAAEBBBBBEEBEAAA",
"AAAEBEBBBBBBEAAA",
"AAAEBBBBBBBBEAAA",
"AAAAEEEEEEEEAAAA",
"AAAAAAAAAAAAAAAA",
"AAAAAAAAAAAAAAAA",
};
