/* XPM */
static char *AttachSmall[] =
{
/* width height ncolors chars_per_pixel */
"16 16 15 1",
/* colors */
"A c None",
"B c #FFFFFFFF9999",
"C c #CCCCCCCC9999",
"D c #CCCCCCCC6666",
"E c #CCCCCCCC0000",
"F c #999999996666",
"G c #999999993333",
"H c #BBBBBBBBBBBB",
"I c #888888888888",
"J c #777777777777",
"K c #555555555555",
"L c #444444444444",
"M c #222222222222",
"N c #111111111111",
"O c #000000000000",
/* pixels */
"AAAAAHOOHAAAAAAA",
"AAAHONLLNOHAAAAA",
"CCONLKKKKLNOHAAA",
"CBOLJJKKKKKLNOAA",
"CBMNKKJJKKKKIKAA",
"CBDOLKKKJJIIIKAA",
"CBBMNKKKKKIIKAAA",
"CBBDOKKKKKGGKAAA",
"CBBBIJKKKKJEFFCA",
"CBBBOIIJKKJBECFF",
"CBBBOBBIIJBBECCF",
"CBBBOBBBOBBBECCF",
"CBBBBOBBOBBBECCF",
"CBBBOBBOBBBBECCF",
"CCBBBOBBOBBBECCF",
"CCCBBBOOBBBBECCF",
};
