/* XPM */
static char *Attach[] =
{
/* width height ncolors chars_per_pixel */
"32 32 15 1",
/* colors */
"A c #FFFFFFFF9999",
"B c None",
"C c #CCCCCCCC9999",
"D c #CCCCCCCC6666",
"E c #CCCCCCCC0000",
"F c #999999996666",
"G c #999999993333",
"H c #BBBBBBBBBBBB",
"I c #888888888888",
"J c #777777777777",
"K c #555555555555",
"L c #444444444444",
"M c #222222222222",
"N c #111111111111",
"O c #000000000000",
/* pixels */
"BBBBBBBBBBBBBBBBBBBBBBBBBBBBBBBB",
"BBBBBBBBBBBBBBBBBBBBBBBBBBBBBBBB",
"BBBBBBBBBBBBBBBBBBBBBBBBBBBBBBBB",
"BBBBBBBBBBBBBBBBBBBBBBBBBBBBBBBB",
"BBBBBBBBBBBHOOHBBBBBBBBBBBBBBBBB",
"BBBBBBBBBHONLLNOHBBBBBBBBBBBBBBB",
"BBBBBBCCONLKKKKLNOHBBBBBBBBBBBBB",
"BBBBBBCAOLJJKKKKKLNOHBBBBBBBBBBB",
"BBBBBBCAMNKKJJKKKKKLNOBBBBBBBBBB",
"BBBBBBCADOLKKKJJKKKKIKBBBBBBBBBB",
"BBBBBBCAAMNKKKKKJJIIIKBBBBBBBBBB",
"BBBBBBCAADOKKKKKKKIIKBBBBBBBBBBB",
"BBBBBBCAAAIJKKKKKKGGKBBBBBBBBBBB",
"BBBBBBCAAAOIIJKKKKJEFFCBBBBBBBBB",
"BBBBBBCAAAOAAIIJKKJAEEFFCBBBBBBB",
"BBBBBBCAAAOAAAAIIJIAAAECFFCBBBBB",
"BBBBBBCAAAOAAAAAOIAAAAECCCFFBBBB",
"BBBBBBCAAAAOAAAAOAAAAAECCCCFBBBB",
"BBBBBBCAAAAOAAAAOAAAAAECCCCFBBBB",
"BBBBBBCAAAOAAAAOAAAAAAECCCCFBBBB",
"BBBBBBCAAAOAAAAOAAAAAAECCCCFBBBB",
"BBBBBBCAAAAOAAAAOAAAAAECCCCFBBBB",
"BBBBBBCCAAAAOOOOAAAAAAECCCCFBBBB",
"BBBBBBCCCAAAAAAAAAAAAAECCCCFBBBB",
"BBBBBBCCCCCAAAAAAAAAAAECCCCFBBBB",
"BBBBBBCCCCCCCAAAAAAAAAECCCCFBBBB",
"BBBBBBCCCCCCCCCAAAAAAAECCCCFBBBB",
"BBBBBBCCCCCCCCCCCAAAAAECCCCFBBBB",
"BBBBBBBBBBBBBBBBBBBBBBBBBBBBBBBB",
"BBBBBBBBBBBBBBBBBBBBBBBBBBBBBBBB",
"BBBBBBBBBBBBBBBBBBBBBBBBBBBBBBBB",
"BBBBBBBBBBBBBBBBBBBBBBBBBBBBBBBB",
};
