/* XPM */
static char *BoldBtn[] = {
/* columns rows colors chars-per-pixel */
"16 16 2 1",
"  c Gray0",
". c None",
/* pixels */
"................",
"................",
"...        .....",
"....   ..   ....",
"....   ...   ...",
"....   ...   ...",
"....   ..   ....",
"....        ....",
"....   ...   ...",
"....   ....   ..",
"....   ....   ..",
"....   ...   ...",
"...         ....",
"................",
"................",
"................"
};
