/* XPM */
static char *CopyNextMsg[] =
{
/* width height ncolors chars_per_pixel */
"32 32 9 1",
/* colors */
"A c #FFFFFFFFFFFF",
"B c None",
"C c #FFFFCCCC9999",
"D c #FFFF66663333",
"E c #CCCC99996666",
"F c #DDDD00000000",
"G c #0000BBBB0000",
"H c #EEEEEEEEEEEE",
"I c #000000000000",
/* pixels */
"BBBBBBBBBBBBBBBBBBBBBBBBBBBBBBBB",
"BBBBBBBBBBBBBBBBBBBBBBBBBBBBBBBB",
"BBBBBBBBBBBBBBBBBBBBBBBBBBBBBBBB",
"BBBBBBBBBBBBBBBBBBBBBBBBBBBBBBBB",
"BBBBBBBBBBIIIIIIIIIIIIBBBBBBBBBB",
"BBBBBBBBBBIGGGGGGGGGGIBBBBBBBBBB",
"BBBBBBBBBBBIGGGGGGGGIBBBBBBBBBBB",
"BBBBBBBBBBBBIGGGGGGIBBBBBBBBBBBB",
"BBBBBBBBBBBBBIGGGGIBBBBBBBBBBBBB",
"BBBBBBBBBBBBBBIGGIBBBBBBBBBBBBBB",
"BBBBBBBBBBBBBBBIIBBBBBBBBBBBBBBB",
"BBBBBBBBBIIIIIIIIIIIIIIIIBBBBBBB",
"BBBBBBBBBIHHHHHHHHHHHHDDIBBBBBBB",
"BBBBBBBBBIHIIHIIHIHHHHDDIBBBBBBB",
"BBBBBBBBBIHHHHHHHHHHHHHHIBBBBBBB",
"BBBBBBBIIIIIIIIIIIIIIIIHIBBBBBBB",
"BBBBBBBIHHHHHHHHHHHHFFIAIBBBBBBB",
"BBBBBBBIHIHIIIHIIHHHFFIHIIBBBBBB",
"BBBBBBBIHHHHHHHHHHHHHHIIEIBBBBBB",
"BBBBBBBIHIHHIIHIIHIHHHIEEIBBBBBB",
"BBBBBBIIIIIIIIIIIIIIIIEEEIBBBBBB",
"BBBBBBICCCCCCCCCCCCCCIEEEIBBBBBB",
"BBBBBBICCCCCCCCCCCCCCIEEEIBBBBBB",
"BBBBBBICCCCCICCICCCCCIEEIBBBBBBB",
"BBBBBBICCCCCIIIICCCCCIEIBBBBBBBB",
"BBBBBBICCCCCCCCCCCCCCIIBBBBBBBBB",
"BBBBBBIIIIIIIIIIIIIIIIBBBBBBBBBB",
"BBBBBBBBBBBBBBBBBBBBBBBBBBBBBBBB",
"BBBBBBBBBBBBBBBBBBBBBBBBBBBBBBBB",
"BBBBBBBBBBBBBBBBBBBBBBBBBBBBBBBB",
"BBBBBBBBBBBBBBBBBBBBBBBBBBBBBBBB",
"BBBBBBBBBBBBBBBBBBBBBBBBBBBBBBBB",
};
