/* XPM */
static char *DeleteAddress[] =
{
/* width height ncolors chars_per_pixel */
"32 32 11 1",
/* colors */
"A c #FFFFFFFFFFFF",
"B c None",
"C c #FFFFCECE9C9C",
"D c #CECECECECECE",
"E c #BDBDBDBDBDBD",
"F c #ADADADADADAD",
"G c #8C8C8C8C8C8C",
"H c #737373737373",
"I c #525252525252",
"J c #424242424242",
"K c #000000000000",
/* pixels */
"BBBBBBBBBBBBBBBBBBBBBBBBBBBBBBBB",
"BBBBBBBBBBBBBBBBBBBBBBBBBBBBBBBB",
"BBBBBBBBBBBBBBBBBBBBBBBBBBBBBBBB",
"BBBBBBBBBBBBBBBBBBBBBBBBBBBBBBBB",
"BBBBBBBBBBBKKKKKKKKKBBBBBBBBBBBB",
"BBBBBBBBBBKCCCCCCCCCKBBBBBBBBBBB",
"BBBBBBBBBBKCCCCCCKCCKGBBBBBBBBBB",
"BBBBBBBBBBKCCCCCCKCCKGBBBBBBBBBB",
"BBBBBBBBBBKCCCCCCCCCKGBBBBBBBBBB",
"BBBBBBBBBBKCCCCCCCCCKGBBBBBBBBBB",
"BBBBBBBBBBKCCCCCCCCCKGBBBBBBBBBB",
"BBBBBBBBBBKCCCCCCCKKKGBBBBBBBBBB",
"BBBBBBBBBBKCCCCCCCCKGBBBBBBBBBBB",
"BBBBBBKKKKKKKKKKKKKKKKKKKBBBBBBB",
"BBBBBBKDDDDDEEFFGGHHIIIIKBBBBBBB",
"BBBBBBKAGDDDIEFDIGHDJIIGKBBBBBBB",
"BBBBBBKAGDDDIEFDIGHDJIIGKBBBBBBB",
"BBBBBBKAGDDDIEFDIGHDJIIGKBBBBBBB",
"BBBBBBKAGDDDIEFDIGHDJIIGKBBBBBBB",
"BBBBBBKAGDDDIEFDIGHDJIIGKBBBBBBB",
"BBBBBBKAGDDDIEFDIGHDJIIGKBBBBBBB",
"BBBBBBKAGDDDIEFDIGHDJIIGKBBBBBBB",
"BBBBBBKAGDDDIEFDIGHDJIIGKBBBBBBB",
"BBBBBBKAGDDDIEFDIGHDJIIGKBBBBBBB",
"BBBBBBKAGDDDIEFDIGHDJIIGKBBBBBBB",
"BBBBBBKDDDDDEEFFGGHHIIIIKBBBBBBB",
"BBBBBBKKKKKKKKKKKKKKKKKKKBBBBBBB",
"BBBBBBBKKKKKKKKKKKKKKKKKBBBBBBBB",
"BBBBBBBBBBBBBBBBBBBBBBBBBBBBBBBB",
"BBBBBBBBBBBBBBBBBBBBBBBBBBBBBBBB",
"BBBBBBBBBBBBBBBBBBBBBBBBBBBBBBBB",
"BBBBBBBBBBBBBBBBBBBBBBBBBBBBBBBB",
};
