/* XPM */
static char *DeleteNext[] =
{
/* width height ncolors chars_per_pixel */
"32 32 14 1",
/* colors */
"A c #FFFFFFFFFFFF",
"B c None",
"C c #CCCCCCCCCCCC",
"D c #DDDD00000000",
"E c #EEEEEEEEEEEE",
"F c #DDDDDDDDDDDD",
"G c #BBBBBBBBBBBB",
"H c #AAAAAAAAAAAA",
"I c #888888888888",
"J c #777777777777",
"K c #555555555555",
"L c #444444444444",
"M c #222222222222",
"N c #000000000000",
/* pixels */
"BBBBBBBBBBBBBBBBBBBBBBBBBBBBBBBB",
"BBBBBBBBBBBBBBBBBBBBBBBBBBBBBBBB",
"BBBBBBBBBBBBBBBBBBBBBBBBBBBBBBBB",
"BBBBBBBBBBBBBBBBBBBBBBBBBBBBBBBB",
"BBBBBBBBBBBBBBBBBBBBBBBBBBBBBBBB",
"BBBBBBBBBBBBBBBBBBBBBBBBBBBBBBBB",
"BBBBBBBBBBBBBBBBBBBBBBBBBBBBBBBB",
"BBBBBBBBBBBBBBBBBBBBBBBBBBBBBBBB",
"BBBBBBBBBBBBBBBBBBBBBBBBBBBBBBBB",
"BBBBBBBBBBBBBBBBBBBBBBBBBBBBBBBB",
"BBBBBBBBBBBBBBBBBBBBBBBBBBBBBBBB",
"BBBBBBBBBBBBNNNNNNNNBBBBBBBBBBBB",
"BBBBBBBBBBBNCGNNHIIJNBBBBBBBBBBB",
"BBBBBBBBNNNNNNNDNNNNNNNNBBBBBBBB",
"BBBBBBBNFEECCGNDDNIJJKKKNBBBBBBB",
"BBBBBBBBNNNNNNNDDDNNNNNNBBBBBBBB",
"BBBBBBBBNEECCGNDDDDNJKKNBBBBBBBB",
"BBBBBBBBNEAIFCNDDDDDNJLNBBBBBBBB",
"BBBBBBBBNEAIFCNDDDDDNJLNBBBBBBBB",
"BBBBBBBBNEAIFCNDDDDNIJLNBBBBBBBB",
"BBBBBBBBNEAIFCNDDDNMIJLNBBBBBBBB",
"BBBBBBBBNEAIFCNDDNGMIJLNBBBBBBBB",
"BBBBBBBBNEAIFCNDNHGMIJLNBBBBBBBB",
"BBBBBBBBNEAIFCNNHHGMIJLNBBBBBBBB",
"BBBBBBBBNEECCGGHHIIJJKKNBBBBBBBB",
"BBBBBBBBNNNNNNNNNNNNNNNNBBBBBBBB",
"BBBBBBBBBNNNNNNNNNNNNNNBBBBBBBBB",
"BBBBBBBBBBBBBBBBBBBBBBBBBBBBBBBB",
"BBBBBBBBBBBBBBBBBBBBBBBBBBBBBBBB",
"BBBBBBBBBBBBBBBBBBBBBBBBBBBBBBBB",
"BBBBBBBBBBBBBBBBBBBBBBBBBBBBBBBB",
"BBBBBBBBBBBBBBBBBBBBBBBBBBBBBBBB",
};
