/* XPM */
static char *DeleteNextMsgPushed[] =
{
/* width height ncolors chars_per_pixel */
"32 32 12 1",
/* colors */
"A c None",
"B c #999999999999",
"C c #666666666666",
"D c #333333333333",
"E c #888800000000",
"F c #777700000000",
"G c #BBBBBBBBBBBB",
"H c #AAAAAAAAAAAA",
"I c #888888888888",
"J c #555555555555",
"K c #444444444444",
"L c #000000000000",
/* pixels */
"AAAAAAAAAAAAAAAAAAAAAAAAAAAAAAAA",
"AAAAAAAAAAAAAAAAAAAAAAAAAAAAAAAA",
"AAAAAAAAAAAAAAAAAAAAAAAAAAAAAAAA",
"AAAAAAAAAAAAAAAAAAAAAAAAAAAAAAAA",
"AAAAAAAAAALLLLLLLLLLLLAAAAAAAAAA",
"AAAAAAAAAALFEFEFEFEFELAAAAAAAAAA",
"AAAAAAAAAAALFEFEFEFELAAAAAAAAAAA",
"AAAAAAAAAAAALFEFEFELAAAAAAAAAAAA",
"AAAAAAAAAAAAALEFEELAAAAAAAAAAAAA",
"AAAAAAAAAAAAAALEFLAAAAAAAAAAAAAA",
"AAAAAAAAAAAAAAALLAAAAAAAAAAAAAAA",
"AAAAAAAAAAAALLLLLLLLAAAAAAAAAAAA",
"AAAAAAAAAAALJCJCJCJCLAAAAAAAAAAA",
"AAAAAAAALLLLLLLLLLLLLLLLAAAAAAAA",
"AAAAAAALJCJCCJCCJCCJCJCJLAAAAAAA",
"AAAAAAAALLLLLLLLLLLLLLLLAAAAAAAA",
"AAAAAAAALCJCJCJCCJCJCCJLAAAAAAAA",
"AAAAAAAALJGDCCBDJCIKJCDLAAAAAAAA",
"AAAAAAAALCHDCJBDCJIDCJKLAAAAAAAA",
"AAAAAAAALJGKJCBKJCIDJCDLAAAAAAAA",
"AAAAAAAALCHDCJBDCJIKCJDLAAAAAAAA",
"AAAAAAAALJGDCJBKJCIDJCKLAAAAAAAA",
"AAAAAAAALCHDCCBDCJIDCJDLAAAAAAAA",
"AAAAAAAALJGDCJBDJCIDCCDLAAAAAAAA",
"AAAAAAAALCJCJCJCCJCCJCCLAAAAAAAA",
"AAAAAAAALLLLLLLLLLLLLLLLAAAAAAAA",
"AAAAAAAAALLLLLLLLLLLLLLAAAAAAAAA",
"AAAAAAAAAAAAAAAAAAAAAAAAAAAAAAAA",
"AAAAAAAAAAAAAAAAAAAAAAAAAAAAAAAA",
"AAAAAAAAAAAAAAAAAAAAAAAAAAAAAAAA",
"AAAAAAAAAAAAAAAAAAAAAAAAAAAAAAAA",
"AAAAAAAAAAAAAAAAAAAAAAAAAAAAAAAA",
};
