/* XPM */
static char *DeleteNextSmall[] =
{
/* width height ncolors chars_per_pixel */
"16 16 7 1",
/* colors */
"A c None",
"B c #CCCCCCCCCCCC",
"C c #DDDD00000000",
"D c #DDDDDDDDDDDD",
"E c #BBBBBBBBBBBB",
"F c #555555555555",
"G c #000000000000",
/* pixels */
"AAAAAAAAAAAAAAAA",
"AAAAAAGGGGAAAAAA",
"AAAAAGEGCGGAAAAA",
"AAGGGGGGCCGGGGAA",
"AGDDDEEGCCCGFFGA",
"AAGGGGGGCCCCGGAA",
"AAGDDEEGCCCCCGAA",
"AAGDBFEGCCCCCCGA",
"AAGDBFEGCCCCCCGA",
"AAGDBFEGCCCCCGAA",
"AAGDBFEGCCCCGGAA",
"AAGDBFEGCCCGFGAA",
"AAGDDEEGCCGFFGAA",
"AAGGGGGGCGGGGGAA",
"AAAGGGGGGGGGGAAA",
"AAAAAAAAAAAAAAAA",
};
