/* XPM */
static char *DiamondDisabled[] =
{
/* width height ncolors chars_per_pixel */
"16 16 2 1",
/* colors */
"A c None",
"B c #AAAAAAAAAAAA",
/* pixels */
"AAAAAAAAAAAAAAAA",
"AAAAAAAAAAAAAAAA",
"AAAAAAAAAAAAAAAA",
"AAAAAAAAAAAAAAAA",
"AAAAAAABAAAAAAAA",
"AAAAAABBBAAAAAAA",
"AAAAABBBBBAAAAAA",
"AAAABBBBBBBAAAAA",
"AAABBBBBBBBBAAAA",
"AAAABBBBBBBAAAAA",
"AAAAABBBBBAAAAAA",
"AAAAAABBBAAAAAAA",
"AAAAAAABAAAAAAAA",
"AAAAAAAAAAAAAAAA",
"AAAAAAAAAAAAAAAA",
"AAAAAAAAAAAAAAAA",
};
