/* XPM */
static char *DiamondTicked[] =
{
/* width height ncolors chars_per_pixel */
"16 16 9 1",
/* colors */
"A c #FFFFFFFFFFFF",
"B c None",
"C c #CCCCCCCCFFFF",
"D c #99999999FFFF",
"E c #66666666CCCC",
"F c #DDDD00000000",
"G c #BBBBBBBBBBBB",
"H c #888888888888",
"I c #000000000000",
/* pixels */
"BBBBBBBBBBBBBBBB",
"BBBBBBBBBBBBBBBB",
"BBBBBBBBBBBBBBBB",
"BBBBBBBBBBBBBFBB",
"BBBBBBBIBBBBFFBB",
"BBBBBBIAIBBFFHBB",
"BBBBFIACCIFFHGBB",
"BBBBFFCCCFFHGBBB",
"BBBIAFFCFFEIBBBB",
"BBBBICFFFEIHGBBB",
"BBBBBIDFEIHGBBBB",
"BBBBBBIEIHGBBBBB",
"BBBBBBBIHGBBBBBB",
"BBBBBBBBGBBBBBBB",
"BBBBBBBBBBBBBBBB",
"BBBBBBBBBBBBBBBB",
};
