/* XPM */
static char *ExplicitMapping[] =
{
/* width height ncolors chars_per_pixel */
"32 32 7 1",
/* colors */
"A c None",
"B c #FFFF00000000",
"C c #CCCCCCCCCCCC",
"D c #00000000FFFF",
"E c #BBBBBBBBBBBB",
"F c #777777777777",
"G c #000000000000",
/* pixels */
"AAAAAAAAAAAAAAAAAAAAAAAAAAAAAAAA",
"AAAAAAAAAAAAAAAAAAAAAAAAAAAAAAAA",
"AAAAAAAAAAAAAAAAAAAAAAAAAAAAAAAA",
"AAAAAAAAAAAAAAAAAAAAAAAAAAAAAAAA",
"AAAAAAAAAAAAAAAAAAAAAAAAAAAAAAAA",
"AAAAAFFFFFFFAAAAAAAAAAAAAAAAAAAA",
"AAAAAFCCCCCFAAAAAAAAAAAAAAAAAAAA",
"AAAAAFCGGCCFAAAAAAAAAAAAAAAAAAAA",
"AAAAAFCCCCCFAAAAAAAAAAAAAAAAAAAA",
"AAAAAFCGEGCFAAAAAAAAAAAAAAAAAAAA",
"AAAAAFCCCCCFAAAAAAAAAAAAAAAAAAAA",
"AAAAAFCGGCCFAAAAAAAAAAAAAAAAAAAA",
"AAAAAFCCCCCFAAAAAAAAAAAAAAAAAAAA",
"AAAAAFFFFFFFAAAAAAAAAAAAAAAAAAAA",
"AAAAAAAAAAAAAAAAAAAAAAAAAAAAAAAA",
"AAAAAAAABAAAAAAAAAAAAAAAAAAAAAAA",
"AAAAAAABBAAAAAAADDDDDDDDDDDDAAAA",
"AAAAAAABBAAAAAAADAADDDDDDDDDAAAA",
"AAAAAAABBAAAAAAADGGDDDDDDAGDAAAA",
"AAAAAAABBAAAAAAADDDDCCCCDDDDAAAA",
"AAAAAAABBAABAAAADDDCCCCCCDDDAAAA",
"AAAAAAABBBBBBAAADDDCCDDCCDDDAAAA",
"AAAAAAAABBBBBAAADDDCCDDCCDDDAAAA",
"AAAAAAAAAAABAAAADDDCCCCCCDDDAAAA",
"AAAAAAAAAAAAAAAADDDDCCCCDDDDAAAA",
"AAAAAAAAAAAAAAAADDDDDDDDDDDDAAAA",
"AAAAAAAAAAAAAAAADDCCCCCCCCDDAAAA",
"AAAAAAAAAAAAAAAADDCCCCCCCCDAAAAA",
"AAAAAAAAAAAAAAAAAAAAAAAAAAAAAAAA",
"AAAAAAAAAAAAAAAAAAAAAAAAAAAAAAAA",
"AAAAAAAAAAAAAAAAAAAAAAAAAAAAAAAA",
"AAAAAAAAAAAAAAAAAAAAAAAAAAAAAAAA",
};
