/* XPM */
static char *ExternalEditSmall[] =
{
/* width height ncolors chars_per_pixel */
"16 16 11 1",
/* colors */
"A c #FFFFFFFFFFFF",
"B c None",
"C c #FFFF66663333",
"D c #CCCCCCCCFFFF",
"E c #CCCC99996666",
"F c #666699999999",
"G c #333366666666",
"H c #DDDDDDDDDDDD",
"I c #AAAAAAAAAAAA",
"J c #888888888888",
"K c #000000000000",
/* pixels */
"BBBBBBBBBBBBBBBB",
"BBBHKKKHBBBBBBBB",
"BBHKAADKBBBBBBBB",
"BHKAADJKBBBBBCCB",
"HKAADJKHBBBBFCCC",
"KKKDJKJKHBBBGGCC",
"KJJKKJKDKHBFGGGB",
"KJDKDKDHDKBGGGFB",
"BKADKDHDKKFGGGBB",
"BBKADHDKIKGGGFBB",
"BBBKADKIKEGGGBBB",
"BBKKKDIKBEEGFBBB",
"BKJIKIKBBKEEBBBB",
"BKIDKKBBBKKBBBBB",
"BBKKKBBBBKBBBBBB",
"BBBBBBBBBBBBBBBB",
};
