/* XPM */
static char *FlagPartial[] =
{
/* width height ncolors chars_per_pixel */
"16 16 8 1",
/* colors */
"A c None",
"B c #CCCCCCCCCCCC",
"C c #00000000DDDD",
"D c #EEEEEEEEEEEE",
"E c #BBBBBBBBBBBB",
"F c #AAAAAAAAAAAA",
"G c #888888888888",
"H c #000000000000",
/* pixels */
"AAAAAAAAAAAAAAAA",
"AAAAAAAAAAAAAAAA",
"AAAAAAAAAAAAAAAA",
"AAACCCAACCCCAAAA",
"AAACHCAACCACGAAA",
"AAACACDACCCCGEAA",
"AAACCCBAFCCCGEAA",
"AAACCCFABCCCGEAA",
"AAACCCFADCCCGEAA",
"AAACCCCDACCCGEAA",
"AAACCFFBAFCCGEAA",
"AAACCFFFABCGEAAA",
"AAAAGGGGADGEAAAA",
"AAAAAEEEAAEAAAAA",
"AAAAAAAAAAAAAAAA",
"AAAAAAAAAAAAAAAA",
};
