/* XPM */
static char *FlagAltAttachment[] =
{
/* width height ncolors chars_per_pixel */
"16 16 6 1",
/* colors */
"A c None",
"B c #222222222222",
"C c #444444444444",
"D c #555555555555",
"E c #777777777777",
"F c #000000000000",
/* pixels */
"AAAAAAAAAAAAAAAA",
"AAFFFFFAAAAAAAAA",
"AFAAFAAAAAAAAAAA",
"AAAAFAEEEEEAAAAA",
"AAAFAEAAEAAAAAAA",
"AAFFFAAAEAAAAAAA",
"AAAAAAAEADDDDDDA",
"AAAAAAEEECCCCCCA",
"AAAAAAAAABBBBBBA",
"AAAAAAAAAFFFFFFA",
"AAAAAAAAAADAADAA",
"AAAAAAAAAAADDAAA",
"AAAAAAAAAAADDAAA",
"AAAAAAAAAADAADAA",
"AAAAAAAAAAADDAAA",
"AAAAAAAAAAAAAAAA",
};
