/* XPM */
static char *FlagSignedAlternative[] =
{
/* width height ncolors chars_per_pixel */
"16 16 7 1",
/* colors */
"A c None",
"B c #333366666666",
"C c #666699999999",
"D c #777777777777",
"E c #CCCC99996666",
"F c #FFFF66663333",
"G c #000000000000",
/* pixels */
"AAAAAAAAAAAAAAAA",
"AAAAAFFAAAAAAAAA",
"AAAACFFFAAAAAAAA",
"AAAABBFFAAAAAAAA",
"AAACBBBAAAAAAAAA",
"AAABBBCAAAAAAAAA",
"AACBBBAAAAAAAAAA",
"AABBBCGGGGGAAAAA",
"AEBBBGAAGAAAAAAA",
"AEEBCAAAGADDDDDA",
"AGEEAAAGADAADAAA",
"AGGAAAGGGAAADAAA",
"AGAAAAAAAAADAAAA",
"AAAAAAAAAADDDAAA",
"AAAAAAAAAAAAAAAA",
"AAAAAAAAAAAAAAAA",
};
