/* XPM */
static char *FlagDraft[] =
{
/* width height ncolors chars_per_pixel */
"16 16 3 1",
/* colors */
"A c None",
"B c #EEEEEEEEEEEE",
"C c #000000000000",
/* pixels */
"AAAAAAAAAAAAAAAA",
"AAAAAAAAAAAAAAAA",
"AAACCCCCCCCCCAAA",
"AAACBBBBBBBBCAAA",
"AAACBCBBBCCBCAAA",
"AAACBBBBBBBBCAAA",
"AAACBCCBCBBBCAAA",
"AAACBBBBBBBBCAAA",
"AAACBCBCCBCBCAAA",
"AAACBBBBBBBBCAAA",
"AAACBCCCBCCBCAAA",
"AAACBBBBBBBBCAAA",
"AAACBBBBBBBBCAAA",
"AAACCCCCCCCCCAAA",
"AAAAAAAAAAAAAAAA",
"AAAAAAAAAAAAAAAA",
};
