/* XPM */
static char *FlagSmartTo[] =
{
/* width height ncolors chars_per_pixel */
"16 16 2 1",
/* colors */
"A c None",
"B c #66666666CCCC",
/* pixels */
"AAAAAAAAAAAAAAAA",
"AAAAAAAAAAAAAAAA",
"AAAAAAAAAAAAAAAA",
"AAAAAAAAAAAAAAAA",
"AABBBBAAAAAAAAAA",
"AABBBBBAAAAAAAAA",
"AABBBBBBAAAAAAAA",
"AABBBBBBBAAAAAAA",
"AABBBBBBBBAAAAAA",
"AABBBBBBBAAAAAAA",
"AABBBBBBAAAAAAAA",
"AABBBBBAAAAAAAAA",
"AABBBBAAAAAAAAAA",
"AAAAAAAAAAAAAAAA",
"AAAAAAAAAAAAAAAA",
"AAAAAAAAAAAAAAAA",
};
