/* XPM */
static char *FlagAttachment[] =
{
/* width height ncolors chars_per_pixel */
"16 16 6 1",
/* colors */
"A c None",
"B c #777777777777",
"C c #555555555555",
"D c #444444444444",
"E c #222222222222",
"F c #000000000000",
/* pixels */
"AAAAAAAAAAAAAAAA",
"AAAAAAAAAAAAAAAA",
"AAACCCCCCCCCCAAA",
"AAADDDDDDDDDDAAA",
"AAAEEEEEEEEEEAAA",
"AAAFFFFFFFFFFAAA",
"AAAFFFFFFFFFFAAA",
"AAABBFFBBFFBBAAA",
"AAAFACAFFACAFAAA",
"AAAAACAAAACAAAAA",
"AAAAACAAAACAAAAA",
"AAAAAACAACAAAAAA",
"AAAAAACAACAAAAAA",
"AAAAACAAAACAAAAA",
"AAAAACAAAACAAAAA",
"AAAAAACCCCAAAAAA",
};
