/* XPM */
static char *FlagMatch[] =
{
/* width height ncolors chars_per_pixel */
"16 16 10 1",
/* colors */
"A c #FFFFFFFFFFFF",
"B c None",
"C c #DDDDDDDDDDDD",
"D c #BBBBBBBBBBBB",
"E c #AAAAAAAAAAAA",
"F c #888888888888",
"G c #777777777777",
"H c #555555555555",
"I c #444444444444",
"J c #000000000000",
/* pixels */
"BBBBBBBBBBBBBBBB",
"BBBBBBBBBBBBBBBB",
"BBBBGJJGBBBBBBBB",
"BBBJCACDJBBBBBBB",
"BBGCAACDHGBBBBBB",
"BBJAACDEFJBBBBBB",
"BBJCCDEEFJBBBBBB",
"BBGGDEEFIGBBBBBB",
"BBBJHFFIJBBBBBBB",
"BBBBGJJGBJJBBBBB",
"BBBBBBBBBJJJBBBB",
"BBBBBBBBBBJJJBBB",
"BBBBBBBBBBBJJJBB",
"BBBBBBBBBBBBJBBB",
"BBBBBBBBBBBBBBBB",
"BBBBBBBBBBBBBBBB",
};
