/* XPM */
static char *FlagAlternative[] =
{
/* width height ncolors chars_per_pixel */
"16 16 3 1",
/* colors */
"A c None",
"B c #777777777777",
"C c #000000000000",
/* pixels */
"AAAAAAAAAAAAAAAA",
"AAAAAAAAAAAAAAAA",
"AAAAAAAAAAAAAAAA",
"AAACCCCCCCAAAAAA",
"AACAAACAAAAAAAAA",
"AACAAACAAAAAAAAA",
"AAAAACABBBBBBBAA",
"AAAAACBAAABAAAAA",
"AAAACABAAABAAAAA",
"AAACCCAAABAAAAAA",
"AAAAAAAAABAAAAAA",
"AAAAAAAABAAAAAAA",
"AAAAAAABBBAAAAAA",
"AAAAAAAAAAAAAAAA",
"AAAAAAAAAAAAAAAA",
"AAAAAAAAAAAAAAAA",
};
