/* XPM */
static char *FlagSendError[] =
{
/* width height ncolors chars_per_pixel */
"16 16 2 1",
/* colors */
"A c None",
"B c #DDDD00000000",
/* pixels */
"AAAAAAAAAAAAAAAA",
"AAAAAAAAAAAAAAAA",
"AAAAAAAAAAAAAAAA",
"AAAAAAAAAAAAAAAA",
"AAABBAAAAAABBAAA",
"AAABBBAAAABBBAAA",
"AAAABBBAABBBAAAA",
"AAAAABBBBBBAAAAA",
"AAAAAABBBBAAAAAA",
"AAAAAABBBBAAAAAA",
"AAAAABBBBBBAAAAA",
"AAAABBBAABBBAAAA",
"AAABBBAAAABBBAAA",
"AAABBAAAAAABBAAA",
"AAAAAAAAAAAAAAAA",
"AAAAAAAAAAAAAAAA",
};
