/* XPM */
static char *FlagSignedAttachment[] =
{
/* width height ncolors chars_per_pixel */
"16 16 10 1",
/* colors */
"A c None",
"B c #111111111111",
"C c #222222222222",
"D c #333366666666",
"E c #444444444444",
"F c #555555555555",
"G c #666699999999",
"H c #CCCC99996666",
"I c #FFFF66663333",
"J c #000000000000",
/* pixels */
"AAAAAAAAAAAAAAAA",
"AAAAAIIAAAAAAAAA",
"AAAAGIIIAAAAAAAA",
"AAAADDIIAAAAAAAA",
"AAAGDDDAFFFFFFFA",
"AAADDDGAEEEEEEEA",
"AAGDDDAACCCCCCCA",
"AADDDGAABBBBBBBA",
"AHDDDAAAJJJJJJJA",
"AHHDGAAAAFAAAFAA",
"AJHHAAAAAFAAAFAA",
"AJJAAAAAAAFAFAAA",
"AJAAAAAAAAFAFAAA",
"AAAAAAAAAFAAAFAA",
"AAAAAAAAAAFFFAAA",
"AAAAAAAAAAAAAAAA",
};
