/* XPM */
static char *FlagSmartFrom[] =
{
/* width height ncolors chars_per_pixel */
"16 16 2 1",
/* colors */
"A c None",
"B c #66666666CCCC",
/* pixels */
"AAAAAAAAAAAAAAAA",
"AAAAAAAAAAAAAAAA",
"AAAAAAAAAAAAAAAA",
"AAAAAAAAAAAAAAAA",
"AAAAABBBBAAAAAAA",
"AAAABBBBBAAAAAAA",
"AAABBBBBBAAAAAAA",
"AABBBBBBBAAAAAAA",
"ABBBBBBBBAAAAAAA",
"AABBBBBBBAAAAAAA",
"AAABBBBBBAAAAAAA",
"AAAABBBBBAAAAAAA",
"AAAAABBBBAAAAAAA",
"AAAAAAAAAAAAAAAA",
"AAAAAAAAAAAAAAAA",
"AAAAAAAAAAAAAAAA",
};
