/* XPM */
static char *FlagSmartFromList[] =
{
/* width height ncolors chars_per_pixel */
"16 16 2 1",
/* colors */
"A c None",
"B c #66666666CCCC",
/* pixels */
"AAAAAAAAAAAAAAAA",
"AAAAAAAAAAAAAAAA",
"AAAAAAAAAAAAAAAA",
"AAAAAAAAAAAAAAAA",
"AAAAAAAAAAAAAAAA",
"AAAABAAAAAAAAAAA",
"AAABBAAAAAAAAAAA",
"AABBBBBBBAAAAAAA",
"ABBBBBBBBAAAAAAA",
"AABBBBBBBAAAAAAA",
"AAABBAAAAAAAAAAA",
"AAAABAAAAAAAAAAA",
"AAAAAAAAAAAAAAAA",
"AAAAAAAAAAAAAAAA",
"AAAAAAAAAAAAAAAA",
"AAAAAAAAAAAAAAAA",
};
