/* XPM */
static char *FontDecrease[] =
{
/* width height ncolors chars_per_pixel */
"16 16 14 1",
/* colors */
"A c None",
"B c #CCCCCCCCCCCC",
"C c #999999999999",
"D c #333333333333",
"E c #EEEEEEEEEEEE",
"F c #DDDDDDDDDDDD",
"G c #BBBBBBBBBBBB",
"H c #888888888888",
"I c #777777777777",
"J c #555555555555",
"K c #444444444444",
"L c #222222222222",
"M c #111111111111",
"N c #000000000000",
/* pixels */
"AAAAAAAAAAAAAAAA",
"AAAAAAAAAAAAAAAA",
"AAAAAAAAAAAAAAAA",
"AAABNAAAAAAAAAAA",
"AAAHNCAAAAAAAAAA",
"AAAKCMAAAAAAAAAA",
"AAANAJGAAAAAAAAA",
"AABDAGKAAAAAAAAA",
"AAHNNNNFAAAAAAAA",
"AAKGAACJAAANNNNN",
"ABMAAAELBAAANNNA",
"GNNDAAINNGAAANAA",
"AAAAAAAAAAAAAAAA",
"AAAAAAAAAAAAAAAA",
"AAAAAAAAAAAAAAAA",
"AAAAAAAAAAAAAAAA",
};
