/* XPM */
static char *HierDown[] =
{
/* width height ncolors chars_per_pixel */
"16 16 3 1",
/* colors */
"A c #FFFFFFFFFFFF",
"B c None",
"C c #000000000000",
/* pixels */
"BBBBBBBBBBBBBBBB",
"BBBBBBBBBBBBBBBB",
"BBBBBBBBBBBBBBBB",
"BBBCCCCCCCCCBBBB",
"BBBCAAAAAAACBBBB",
"BBBCAAAAAAACBBBB",
"BBBCAAAAAAACBBBB",
"BBBCACCCCCACBBBB",
"BBBCAAAAAAACBBBB",
"BBBCAAAAAAACBBBB",
"BBBCAAAAAAACBBBB",
"BBBCCCCCCCCCBBBB",
"BBBBBBBBBBBBBBBB",
"BBBBBBBBBBBBBBBB",
"BBBBBBBBBBBBBBBB",
"BBBBBBBBBBBBBBBB",
};
