/* XPM */
static char *Include[] =
{
/* width height ncolors chars_per_pixel */
"32 32 7 1",
/* colors */
"A c #FFFFFFFFFFFF",
"B c None",
"C c #DDDD00000000",
"D c #AAAAAAAAAAAA",
"E c #777777777777",
"F c #444444444444",
"G c #000000000000",
/* pixels */
"BBBBBBBBBBBBBBBBBBBBBBBBBBBBBBBB",
"BBBBBBBBBBBBBBBBBBBBBBBBBBBBBBBB",
"BBBBBBBBBBBBBBBBBBBBBBBBBBBBBBBB",
"BBBBBBBBBBBBBBBBBBBBBBBBBBBBBBBB",
"BBBBBBBBBBBBBBBBBBBBBBBBBBBBBBBB",
"BBBBBBBBBBBBBBBBBBBBBBBBBBBBBBBB",
"BBBBBBBCBBBBBBBBBBBBBBBBBBBBBBBB",
"BBBBBBBBCBBDBDBBDDDDDBBDDBBBBBBB",
"BBBBBBBBBCBEFEBBEFAEFBBFBBBBBBBB",
"BBBBBBBBCBBFFFBBFFFFFBBFFBBBBBBB",
"BBBBBBBCBBBGGGBBGGGGGBBGGBBBBBBB",
"BBBBBBBBBBBBBBBBBBBBBBBBBBBBBBBB",
"BBBBBBBBBBBBBBBBBBBBBBBBBBBBBBBB",
"BBBBBBBCBBBBBBBBBBBBBBBBBBBBBBBB",
"BBBBBBBBCBBDDDDDBBDDDBBDDBBBBBBB",
"BBBBBBBBBCBFAFAFBBFFFBBFFBBBBBBB",
"BBBBBBBBCBBFFFFFBBFAFBBFFBBBBBBB",
"BBBBBBBCBBBGGGGGBBGGGBBGGBBBBBBB",
"BBBBBBBBBBBBBBBBBBBBBBBBBBBBBBBB",
"BBBBBBBBBBBBBBBBBBBBBBBBBBBBBBBB",
"BBBBBBBCBBBBBBBBBBBBBBBBBBBBBBBB",
"BBBBBBBBCBBDDDBBDDDDDBBDDBBBBBBB",
"BBBBBBBBBCBFAFBBFAFFBBBFFBBBBBBB",
"BBBBBBBBCBBFFFBBFFFFFBBFFBBBBBBB",
"BBBBBBBCBBBGGGBBGGGGGBBGGBBBBBBB",
"BBBBBBBBBBBBBBBBBBBBBBBBBBBBBBBB",
"BBBBBBBBBBBBBBBBBBBBBBBBBBBBBBBB",
"BBBBBBBBBBBBBBBBBBBBBBBBBBBBBBBB",
"BBBBBBBBBBBBBBBBBBBBBBBBBBBBBBBB",
"BBBBBBBBBBBBBBBBBBBBBBBBBBBBBBBB",
"BBBBBBBBBBBBBBBBBBBBBBBBBBBBBBBB",
"BBBBBBBBBBBBBBBBBBBBBBBBBBBBBBBB",
};
