/* XPM */
static char *InsertSignature[] =
{
/* width height ncolors chars_per_pixel */
"16 16 7 1",
/* colors */
"A c None",
"B c #FFFFCCCC9999",
"C c #FFFF66663333",
"D c #CCCC99996666",
"E c #666699999999",
"F c #333366666666",
"G c #000000000000",
/* pixels */
"AAAAAAAAAAAAAAAA",
"AAAAAAAAAAAAABAA",
"AAAAAAAAAAAACCBA",
"AAAAGGGGAAAEFCAA",
"AAAGAAGGAAAFFEAA",
"AAAGAGAGAAEFFAAA",
"AAAGGAAGAAFFEAAA",
"AAAAGGGGADDFAAAA",
"AAAGAAGAAGDAAAAA",
"AGGAAAGGGGAAAAAA",
"AAAAAAAAAAAAAAAA",
"AAAAAAAAAAAAAAAA",
"AAAAAAAAAAAAAAAA",
"AAAAAAAAAAAAAAAA",
"AAAAAAAAAAAAAAAA",
"AAAAAAAAAAAAAAAA",
};
