/* XPM */
static char *LastNextMsg[] =
{
/* width height ncolors chars_per_pixel */
"32 32 8 1",
/* colors */
"A c None",
"B c #CCCCCCCCFFFF",
"C c #99999999FFFF",
"D c #66666666CCCC",
"E c #DDDD00000000",
"F c #BBBBBBBBBBBB",
"G c #888888888888",
"H c #000000000000",
/* pixels */
"AAAAAAAAAAAAAAAAAAAAAAAAAAAAAAAA",
"AAAAAAAAAAAAAAAAAAAAAAAAAAAAAAAA",
"AAAAAAAAAAAAAAAAAAAAAAAAAAAAAAAA",
"AAAAAAAAAAAAAAAAAAAAAAAAAAAAAAAA",
"AAAAAAAAAAAAAAAAAAAAAAAAAAAAAAAA",
"AAAAAAAAAAAAAAAAAAAAAAAAAAAAAAAA",
"AAAAAAAAAAAAAHHAAAAAAAAAAAAAAAAA",
"AAAAAAAAAAAAAHBHAAAAAAAAAAAAAAAA",
"AAAAAAAAAAAAAHBBHAAAAAAAAAAAAAAA",
"AAAAAAAAAAAAAHBCBHAAAAAAAAAAAAAA",
"AAAAAAAAAAAAAHBCCBHAAAAAAAAAAAAA",
"AAAAAAAAAAAAAHBCCCBHAAAAAAAAAAAA",
"AAAAAAAAAAAAAHBCCCCBHAAAAAAAAAAA",
"AAAAAAAAAAAAAHEECCBEEHAAAAAAAAAA",
"AAAAAAAAAAAAAHBEEBEEDBHAAAAAAAAA",
"AAAAAAAAAAAAAHBCEEEDCCBHAAAAAAAA",
"AAAAAAAAAAAAAHBBEEECCCDHAAAAAAAA",
"AAAAAAAAAAAAAHBEEDEECDHGAAAAAAAA",
"AAAAAAAAAAAAAHEEDCCEEHGFAAAAAAAA",
"AAAAAAAAAAAAAHBCCCCDHGFAAAAAAAAA",
"AAAAAAAAAAAAAHBCCCDHGFAAAAAAAAAA",
"AAAAAAAAAAAAAHBCCDHGFAAAAAAAAAAA",
"AAAAAAAAAAAAAHBCDHGFAAAAAAAAAAAA",
"AAAAAAAAAAAAAHBDHGFAAAAAAAAAAAAA",
"AAAAAAAAAAAAAHBHGFAAAAAAAAAAAAAA",
"AAAAAAAAAAAAAHHGFAAAAAAAAAAAAAAA",
"AAAAAAAAAAAAAAAAAAAAAAAAAAAAAAAA",
"AAAAAAAAAAAAAAAAAAAAAAAAAAAAAAAA",
"AAAAAAAAAAAAAAAAAAAAAAAAAAAAAAAA",
"AAAAAAAAAAAAAAAAAAAAAAAAAAAAAAAA",
"AAAAAAAAAAAAAAAAAAAAAAAAAAAAAAAA",
"AAAAAAAAAAAAAAAAAAAAAAAAAAAAAAAA",
};
