/* XPM */
static char *LastNextMsgPushed[] =
{
/* width height ncolors chars_per_pixel */
"32 16 4 1",
/* colors */
"A c None",
"B c #DDDD00000000",
"C c #000000008888",
"D c #000000000000",
/* pixels */
"AAAAAADDDDDDDDDDDDDDDDDDDDAAAAAA",
"AAAAAADCCCCCCCCCCCCCCCCCCDAAAAAA",
"AAAAAAADCCCCCBBCCBBCCCCCDAAAAAAA",
"AAAAAAAADCCCCCBBBBCCCCCDAAAAAAAA",
"AAAAAAAAADCCCCCBBCCCCCDAAAAAAAAA",
"AAAAAAAAAADCCCBBBBCCCDAAAAAAAAAA",
"AAAAAAAAAAADCBBCCBBCDAAAAAAAAAAA",
"AAAAAAAAAAAADCCCCCCDAAAAAAAAAAAA",
"AAAAAAAAAAAAADCCCCDAAAAAAAAAAAAA",
"AAAAAAAAAAAAAADCCDAAAAAAAAAAAAAA",
"AAAAAAAAAAAAAAADDAAAAAAAAAAAAAAA",
"AAAAAAAAAAAAAAAAAAAAAAAAAAAAAAAA",
"AAAAAAAAAAAAAAAAAAAAAAAAAAAAAAAA",
"AAAAAAAAAAAAAAAAAAAAAAAAAAAAAAAA",
"AAAAAAAAAAAAAAAAAAAAAAAAAAAAAAAA",
"AAAAAAAAAAAAAAAAAAAAAAAAAAAAAAAA",
};
