/* XPM */
static char *LastNextMsgSmall[] =
{
/* width height ncolors chars_per_pixel */
"16 16 8 1",
/* colors */
"A c None",
"B c #CCCCCCCCFFFF",
"C c #99999999FFFF",
"D c #66666666CCCC",
"E c #DDDD00000000",
"F c #BBBBBBBBBBBB",
"G c #888888888888",
"H c #000000000000",
/* pixels */
"AAAAAAHHAAAAAAAA",
"AAAAAAHBHAAAAAAA",
"AAAAAAHBBHAAAAAA",
"AAAAAAHBCBHAAAAA",
"AAAAAAHBCCBHAAAA",
"AAAAAAHEEBEEHAAA",
"AAAAAAHBEEEDBHAA",
"AAAAAAHBCEDCCBHA",
"AAAAAAHBEEECCDHA",
"AAAAAAHEEDEEDHGA",
"AAAAAAHBCCCDHGFA",
"AAAAAAHBCCDHGFAA",
"AAAAAAHBCDHGFAAA",
"AAAAAAHBDHGFAAAA",
"AAAAAAHBHGFAAAAA",
"AAAAAAHHGFAAAAAA",
};
