/* XPM */
static char *LayoutItemsVert[] =
{
/* width height ncolors chars_per_pixel */
"32 32 5 1",
/* colors */
"A c None",
"B c #333300009999",
"C c #DDDD00000000",
"D c #0000BBBB0000",
"E c #000000000000",
/* pixels */
"AAAAAAAAAAAAAAAAAAAAAAAAAAAAAAAA",
"AAAAAAAAAAAAAAAAAAAAAAAAAAAAAAAA",
"AAAAAAAAAAAAAAAAAAAAAAAAAAAAAAAA",
"AAAAAAAAAAAAAAAAAAAAAAAAAAAAAAAA",
"AAAAAAAAAAAAAAAAAAAAAAAAAAAAAAAA",
"AAAAAAAAAAAAAAAAAAAAAAAAAAAAAAAA",
"AAAAAAAAAAAAAAAAAAAAAAAAAAAAAAAA",
"AAAAAAEEEEEEEEEEEEEEEEEEEAAAAAAA",
"AAAAAAECCCCCCCCEDDDDDDDDEAAAAAAA",
"AAAAAAECCCCCCCCEDDDDDDDDEAAAAAAA",
"AAAAAAECCCCCCCCEDDDDDDDDEAAAAAAA",
"AAAAAAECCCCCCCCEDDDDDDDDEAAAAAAA",
"AAAAAAECCCCCCCCEDDDDDDDDEAAAAAAA",
"AAAAAAECCCCCCCCEDDDDDDDDEAAAAAAA",
"AAAAAAECCCCCCCCEDDDDDDDDEAAAAAAA",
"AAAAAAECCCCCCCCEDDDDDDDDEAAAAAAA",
"AAAAAAEEEEEEEEEEDDDDDDDDEAAAAAAA",
"AAAAAAEBBBBBBBBEDDDDDDDDEAAAAAAA",
"AAAAAAEBBBBBBBBEDDDDDDDDEAAAAAAA",
"AAAAAAEBBBBBBBBEDDDDDDDDEAAAAAAA",
"AAAAAAEBBBBBBBBEDDDDDDDDEAAAAAAA",
"AAAAAAEBBBBBBBBEDDDDDDDDEAAAAAAA",
"AAAAAAEBBBBBBBBEDDDDDDDDEAAAAAAA",
"AAAAAAEBBBBBBBBEDDDDDDDDEAAAAAAA",
"AAAAAAEBBBBBBBBEDDDDDDDDEAAAAAAA",
"AAAAAAEEEEEEEEEEEEEEEEEEEAAAAAAA",
"AAAAAAAAAAAAAAAAAAAAAAAAAAAAAAAA",
"AAAAAAAAAAAAAAAAAAAAAAAAAAAAAAAA",
"AAAAAAAAAAAAAAAAAAAAAAAAAAAAAAAA",
"AAAAAAAAAAAAAAAAAAAAAAAAAAAAAAAA",
"AAAAAAAAAAAAAAAAAAAAAAAAAAAAAAAA",
"AAAAAAAAAAAAAAAAAAAAAAAAAAAAAAAA",
};
