/* XPM */
static char *LetterDoc[] =
{
/* width height ncolors chars_per_pixel */
"32 32 8 1",
/* colors */
"A c None",
"B c #FFFF66663333",
"C c #CCCCCCCCCCCC",
"D c #CCCC99996666",
"E c #333399996666",
"F c #333366666666",
"G c #EEEEEEEEEEEE",
"H c #000000000000",
/* pixels */
"AAAAHHHHHHHHHHHHHHHHHHHAAAAAAAAA",
"AAAAHGGGGGGGGGGGGGGGGGHHAAAAAAAA",
"AAAAHGGGGGGGGGGGGGGGGGHCHAAAAAAA",
"AAAAHGHHGHHGGGGGGHHGHHHCCHAAAAAA",
"AAAAHGGGGGGGGGGGGGGGGGHCCCHAAAAA",
"AAAAHGGGGGGGGGGGGGGGGGHCCCCHAAAA",
"AAAAHGGGGGGGGGGGGHHHGHHHHHHHHAAA",
"AAAAHGGGGGGGGGGGGGGGGGGGGGGGHAAA",
"AAAAHGGGGGGGGGGGGGGGGGGGGGGGHAAA",
"AAAAHGHHGHHHHGGGGGGGGGGGGGGGHAAA",
"AAAAHGGGGGGGGGGGGGGGGGGGGGGGHAAA",
"AAAAHGGGGGGGGGGGGGGGGGGGGGGGHAAA",
"AAAAHGGHHHGHHHGHHGHHHHGHHGGGHAAA",
"AAAAHGGGGGGGGGGGGGGGGGGGGGGGHAAA",
"AAAAHGGGGGGGGGGGGGGGGGGGGGGGHAAA",
"AAAAHGHHHGHHHHGHHHGHHHHGHGGGHAAA",
"AAAAHGGGGGGGGGGGGGGGGGGGGBBGHAAA",
"AAAAHGGGGGGGGGGGGGGGGGGGEBBBHAAA",
"AAAAHGHHGHHHHGHHGHHGHHHHFFBBHAAA",
"AAAAHGGGGGGGGGGGGGGGGGGEFFFGHAAA",
"AAAAHGGGGGGGGGGGGGGGGGGFFFEGHAAA",
"AAAAHGHHHGHHHHGHHGGGGGEFFFGGHAAA",
"AAAAHGGGGGGGGGGGGGGGGGFFFEGGHAAA",
"AAAAHGGGGGGGGGGGGGGGGDFFFGGGHAAA",
"AAAAHGGGGGGGHHHGHHHHGDDFEGGGHAAA",
"AAAAHGGGGGGGGGGGGGGGGHDDGGGGHAAA",
"AAAAHGGGGGGGGGGGGGGGGHHGGGGGHAAA",
"AAAAHGGGGGGGGGGHHGHHHHGGGGGGHAAA",
"AAAAHGGGGGGGGGGGGGGGGGGGGGGGHAAA",
"AAAAHGGGGGGGGGGGGGGGGGGGGGGGHAAA",
"AAAAHGGGGGGGGGGGGGGGGGGGGGGGHAAA",
"AAAAHHHHHHHHHHHHHHHHHHHHHHHHHAAA",
};
