/* XPM */
static char *Login[] =
{
/* width height ncolors chars_per_pixel */
"32 32 12 1",
/* colors */
"A c None",
"B c #000088880000",
"C c #000077770000",
"D c #000055550000",
"E c #000044440000",
"F c #000022220000",
"G c #AAAAAAAAAAAA",
"H c #777777777777",
"I c #555555555555",
"J c #222222222222",
"K c #111111111111",
"L c #000000000000",
/* pixels */
"AAAAAAAAAAAAAAAAAAAAAAAAAAAAAAAA",
"AAAAAAAAAAAAAAAAAAAAAAAAAAAAAAAA",
"AAAAAAAAAAAAAAAAAAAAAAAAAAAAAAAA",
"AAAAAAAAAAAAAAAAAAAAAAAAAAAAAAAA",
"AAAAAAAAALLLLLLLLLLAAAAAAAAAAAAA",
"AAAAAAALLBBBBBBLLGGLLLAAAAAAAAAA",
"AAAAALLBBCCCCCCCCLLHHHLAAAAAAAAA",
"AAAALBBCCDDDDDDDDCLLLHHLAAAAAAAA",
"AAAALBCDDDDDDDDDDDELLLLILAAAAAAA",
"AAALBCDDDDDDDDDDDDDELLLLILAAAAAA",
"AAALBCDDDDDDDDDDDDDELLLLIILAAAAA",
"AALBCDDDDDDDDDDDDDDEFLLLLILAAAAA",
"AALBCDDDDDDDDDDDDDDEFLJJLILAAAAA",
"AALBCDDDDDDDDDDDDDDEFLJJJLILAAAA",
"AALBCDDDDDDDDDDDDDDEFLKKKLILAAAA",
"AALBBDDDDDDDDDDDDDDEFLKLLLILAAAA",
"AALBCDDDDDDDDDDDDDDEFLLLLLILAAAA",
"AAALCDDDDDDDDDDDDDEFLLLLLLILAAAA",
"AAALCDDDDDDDDDDDDDEFLLLLLLILAAAA",
"AAAALCDDDDDDDDDDDEFLLLLLLILAAAAA",
"AAAALLEDDDDDDDDEEFFLLLLLLILAAAAA",
"AAAAALLEEEEEEEEFFLLLLLLLIILAAAAA",
"AAAAAAALLFFFFFFLLLLLLLLLILAAAAAA",
"AAAAAAALGLLLLLLLLLLLLLLILAAAAAAA",
"AAAAAAAALHHLLLLLLLLLLIILAAAAAAAA",
"AAAAAAAAALHHHLLLLLLIIILAAAAAAAAA",
"AAAAAAAAAALLLIIIIIILLLAAAAAAAAAA",
"AAAAAAAAAAAAALLLLLLAAAAAAAAAAAAA",
"AAAAAAAAAAAAAAAAAAAAAAAAAAAAAAAA",
"AAAAAAAAAAAAAAAAAAAAAAAAAAAAAAAA",
"AAAAAAAAAAAAAAAAAAAAAAAAAAAAAAAA",
"AAAAAAAAAAAAAAAAAAAAAAAAAAAAAAAA",
};
