/* XPM */
static char *LoginSmall[] =
{
/* width height ncolors chars_per_pixel */
"16 16 6 1",
/* colors */
"A c None",
"B c #000055550000",
"C c #000044440000",
"D c #000022220000",
"E c #222222222222",
"F c #000000000000",
/* pixels */
"AAAAAAAAAAAAAAAA",
"AAAAAAAAAAAAAAAA",
"AAAAFFFFFFAAAAAA",
"AAFFBBBBFFFFAAAA",
"AAFBBBBBBFFFFAAA",
"AFBBBBBBBCFFFAAA",
"AFBBBBBBBCFEFFAA",
"AFBBBBBBBCFFFFAA",
"AFBBBBBBBDFFFFAA",
"AAFBBBBBCFFFFFAA",
"AAFFCCCDFFFFFAAA",
"AAAFFFFFFFFFFAAA",
"AAAAFFFFFFFFAAAA",
"AAAAAAFFFFAAAAAA",
"AAAAAAAAAAAAAAAA",
"AAAAAAAAAAAAAAAA",
};
