/* XPM */
static char *LogoutSmall[] =
{
/* width height ncolors chars_per_pixel */
"16 16 6 1",
/* colors */
"A c None",
"B c #0000DDDD0000",
"C c #0000BBBB0000",
"D c #000088880000",
"E c #000055550000",
"F c #000000000000",
/* pixels */
"AAAAAAAAAAAAAAAA",
"AAAAAAAAAAAAAAAA",
"AAAAAAFFFFAAAAAA",
"AAAAFFBBBFFFAAAA",
"AAAFBCCCCCDFFAAA",
"AAAFCCCCCCCFFAAA",
"AAFBCCCCCCCEFFAA",
"AAFBCCCCCCCEFFAA",
"AAFBCCCCCCCEFFAA",
"AAFFCCCCCCDFFFAA",
"AAAFDCCCCDEFFAAA",
"AAAFFFEEEFFFFAAA",
"AAAAFFFFFFFFAAAA",
"AAAAAAFFFFAAAAAA",
"AAAAAAAAAAAAAAAA",
"AAAAAAAAAAAAAAAA",
};
