/* XPM */
static char *92852[] =
{
/* width height ncolors chars_per_pixel */
"32 32 11 1",
/* colors */
"A c None",
"B c #CCCCCCCCCCCC",
"C c #0000EEEE0000",
"D c #0000DDDD0000",
"E c #0000BBBB0000",
"F c #000088880000",
"G c #000055550000",
"H c #AAAAAAAAAAAA",
"I c #777777777777",
"J c #555555555555",
"K c #000000000000",
/* pixels */
"AAAAAAAAAAAAAAAAAAAAAAAAAAAAAAAA",
"AAAAAAAAAAAAAAAAAAAAAAAAAAAAAAAA",
"AAAAAAAAAAAAAAAAAAAAAAAAAAAAAAAA",
"AAAAAAAAAAAAAAAAAAAAAAAAAAAAAAAA",
"AAAAAAAAAAAAAKKKKKKAAAAAAAAAAAAA",
"AAAAAAAAAAKKKKKKKKIKKKAAAAAAAAAA",
"AAAAAAAAAKKKCCCCCCKKIIKAAAAAAAAA",
"AAAAAAAAKKCCDDDDDDDDKKIKAAAAAAAA",
"AAAAAAAKCCDDEEEEEEEEDEKJKAAAAAAA",
"AAAAAAKKCDEEEEEEEEEEEFKKJKAAAAAA",
"AAAAAKKCDEEEEEEEEEEEEEFKJJKAAAAA",
"AAAAAKKCDEEEEEEEEEEEEEFKKJKAAAAA",
"AAAAAKCDEEEEEEEEEEEEEEFGKJKAAAAA",
"AAAAKKCDEEEEEEEEEEEEEEFGKKJKAAAA",
"AAAAKKCDEEEEEEEEEEEEEEFGKKJKAAAA",
"AAAAKKCDEEEEEEEEEEEEEEFGKKJKAAAA",
"AAAAKKCDEEEEEEEEEEEEEEFGKKJKAAAA",
"AAAAKKCDEEEEEEEEEEEEEEFGKKJKAAAA",
"AAAAKBKDEEEEEEEEEEEEEFGKKKJKAAAA",
"AAAAAKKDEEEEEEEEEEEEEFGKKJKAAAAA",
"AAAAAKHKDEEEEEEEEEEEFGKKKJKAAAAA",
"AAAAAKHKEFEEEEEEEEFFGGKKJJKAAAAA",
"AAAAAAKHKKFFFFFFFFGGKKKKJKAAAAAA",
"AAAAAAAKHHKKGGGGGGKKKKKJKAAAAAAA",
"AAAAAAAAKIIIKKKKKKKKKJJKAAAAAAAA",
"AAAAAAAAAKIIIKKKKKKJJJKAAAAAAAAA",
"AAAAAAAAAAKKKJJJJJJKKKAAAAAAAAAA",
"AAAAAAAAAAAAAKKKKKKAAAAAAAAAAAAA",
"AAAAAAAAAAAAAAAAAAAAAAAAAAAAAAAA",
"AAAAAAAAAAAAAAAAAAAAAAAAAAAAAAAA",
"AAAAAAAAAAAAAAAAAAAAAAAAAAAAAAAA",
"AAAAAAAAAAAAAAAAAAAAAAAAAAAAAAAA",
};
