/* XPM */
static char *MailboxTotalNum[] =
{
/* width height ncolors chars_per_pixel */
"16 16 8 1",
/* colors */
"A c #FFFFFFFFCCCC",
"B c None",
"C c #FFFFCCCC9999",
"D c #CCCCCCCCFFFF",
"E c #99999999FFFF",
"F c #66666666CCCC",
"G c #333333336666",
"H c #000000000000",
/* pixels */
"BBBBBBBBBBBBBBBB",
"BBBBBBBBBBBBBBBB",
"BBBBBBGGBBBBBBBB",
"BBBCCCCCCCCBBBBB",
"BBBCHHCHHHCAABBB",
"BBGFCCCCCCFGABBB",
"BBGEFFHHFFEGFFBB",
"BBGEEEFFEEEGEFBB",
"BBGEFFEEFFEGDFBB",
"BBGFEEEEEEFGDFBB",
"BBGGGGGGGGGGDFBB",
"BBBBFEDDDDDDEFBB",
"BBBBFFFFFFFFFFBB",
"BBBBBBBBBBBBBBBB",
"BBBBBBBBBBBBBBBB",
"BBBBBBBBBBBBBBBB",
};
