/* XPM */
static char *MailboxSearchSmall[] =
{
/* width height ncolors chars_per_pixel */
"16 16 12 1",
/* colors */
"A c #FFFFFFFFFFFF",
"B c None",
"C c #FFFFCCCC9999",
"D c #CCCC99996666",
"E c #DDDD00000000",
"F c #EEEEEEEEEEEE",
"G c #DDDDDDDDDDDD",
"H c #BBBBBBBBBBBB",
"I c #AAAAAAAAAAAA",
"J c #888888888888",
"K c #555555555555",
"L c #000000000000",
/* pixels */
"BBBBBBBBBBBBBBBB",
"BBKLKLLLLLLLLLLB",
"BLGGHLFFFFFFFFLB",
"KGAAGIKLLLLLLLLB",
"LGAAGILFFFFFFFLB",
"KHGGIJKLLLLLLFLB",
"BLIIJLLFFFFFLFLB",
"BLKLKFLLFEEFLFLL",
"BLFLFLLLLEEFLLDL",
"BLFFFFFFLLFFLDDL",
"LLLLLLLLLLLLDDDL",
"LCCCCCCCCCLLDDDL",
"LCCCLCCLCCCLDDLB",
"LCCCLLLLCCCLDLBB",
"LCCCCCCCCCCLLBBB",
"LLLLLLLLLLLLBBBB",
};
