/* XPM */
static char *MailboxDeleteSmall[] =
{
/* width height ncolors chars_per_pixel */
"16 16 10 1",
/* colors */
"A c None",
"B c #CCCCCCCCCCCC",
"C c #DDDDDDDDDDDD",
"D c #BBBBBBBBBBBB",
"E c #AAAAAAAAAAAA",
"F c #888888888888",
"G c #777777777777",
"H c #555555555555",
"I c #444444444444",
"J c #000000000000",
/* pixels */
"AAAAAAAAAAAAAAAA",
"AAAAAAJJJJAAAAAA",
"AAAAAJDEFHJAAAAA",
"AAJJJJJJJJJJJJAA",
"AJCCCDDEFGGHHHJA",
"AAJJJJJJJJJJJJAA",
"AAJCCDDEFGGHHJAA",
"AAJCBHDBHGBIHJAA",
"AAJCBHDBHGBIHJAA",
"AAJCBHDBHGBIHJAA",
"AAJCBHDBHGBIHJAA",
"AAJCBHDBHGBIHJAA",
"AAJCCDDEFGGHHJAA",
"AAJJJJJJJJJJJJAA",
"AAAJJJJJJJJJJAAA",
"AAAAAAAAAAAAAAAA",
};
