/* XPM */
static char *MailboxLocal[] =
{
/* width height ncolors chars_per_pixel */
"32 32 6 1",
/* colors */
"A c None",
"B c #00000000DDDD",
"C c #BBBBBBBBBBBB",
"D c #AAAAAAAAAAAA",
"E c #888888888888",
"F c #000000000000",
/* pixels */
"AAAAAAAAAAAAAAAAAAAAAAAAAAAAAAAA",
"AAAAAAAAAAAAAAAAAAAAAAAAAAAAAAAA",
"AAAAAAAAAAAAAAAAAAAAAAAAAAAAAAAA",
"AAAAAAAAAAAAAAAAAAAAAAAAAAAAAAAA",
"AAAAAAAAAAAAAAAAAAAAAAAAAAAAAAAA",
"AAAAAAAAAAAAAAAAAAAAAAAAAAAAAAAA",
"AAAAAAABBBBBBBBBBBBBBBBBBAAAAAAA",
"AAAAAAABBBBBBBBBBBBBBBBBBEAAAAAA",
"AAAAAAABBFFBBBBBBBBBBAABBECAAAAA",
"AAAAAAABBFFBBBBBBBBBBAABBECAAAAA",
"AAAAAAABBAABBBBBBBBBBBBBBECAAAAA",
"AAAAAAABBAABBBBBBBBBBBBBBECAAAAA",
"AAAAAAABBBBBBBEDDEBBBBBBBECAAAAA",
"AAAAAAABBBBBBEDDDDEBBBBBBECAAAAA",
"AAAAAAABBBBBBDDBBDDBBBBBBECAAAAA",
"AAAAAAABBBBBBDDBBDDBBBBBBECAAAAA",
"AAAAAAABBBBBBEDDDDEBBBBBBECAAAAA",
"AAAAAAABBBBBBBEDDEBBBBBBBECAAAAA",
"AAAAAAABBBBBBBBBBBBBBBBBBECAAAAA",
"AAAAAAABBBBBBBBBBBBBBBBBBECAAAAA",
"AAAAAAABBBBBEDDDDDDDEBBBBECAAAAA",
"AAAAAAABBBBBDDDDDDBBDBBBBECAAAAA",
"AAAAAAABBBBBDDDDDDBBDBBBECAAAAAA",
"AAAAAAABBBBBDDDDDDBBDBBECAAAAAAA",
"AAAAAAAAEEEEEEEEEEEEEEECAAAAAAAA",
"AAAAAAAAACCCCCCCCCCCCCCAAAAAAAAA",
"AAAAAAAAAAAAAAAAAAAAAAAAAAAAAAAA",
"AAAAAAAAAAAAAAAAAAAAAAAAAAAAAAAA",
"AAAAAAAAAAAAAAAAAAAAAAAAAAAAAAAA",
"AAAAAAAAAAAAAAAAAAAAAAAAAAAAAAAA",
"AAAAAAAAAAAAAAAAAAAAAAAAAAAAAAAA",
"AAAAAAAAAAAAAAAAAAAAAAAAAAAAAAAA",
};
