/* XPM */
static char *mailbox_quota[] =
{
/* width height ncolors chars_per_pixel */
"16 16 8 1",
/* colors */
"A c #FFFFFFFFFFFF",
"B c None",
"C c #CCCC99996666",
"D c #666699999999",
"E c #333366666666",
"F c #00000000DDDD",
"G c #AAAAAAAAAAAA",
"H c #000000000000",
/* pixels */
"BBBBBBBBBBBBBBBB",
"BBBBBBBBBBBBBBBB",
"BBBBBBBBBEEEDBBB",
"BBBBBBBBCEEEBBBB",
"BBBBBBBBCCEDBBBB",
"BBFFFFFFHCCBBBBB",
"BBFAAAAAHHFBBBBB",
"BBFAAAAAHAFBBBBB",
"BBFAAGGGAAFBBBBB",
"BBFFFGFGFFFBBBBB",
"BBFFFGGGFFFBBBBB",
"BBFFFFFFFFFBBBBB",
"BBFFGGGGGFFBBBBB",
"BBFFGGGGGFBBBBBB",
"BBBBBBBBBBBBBBBB",
"BBBBBBBBBBBBBBBB",
};
