/* XPM */
static char *mailbox_acl[] =
{
/* width height ncolors chars_per_pixel */
"16 16 4 1",
/* colors */
"A c None",
"B c #FFFFCCCC9999",
"C c #CCCC99996666",
"D c #000000000000",
/* pixels */
"AAAAADDDDDDAAAAA",
"AAAADBBBBBBDAAAA",
"AAAADBBBDBBDAAAA",
"AAAADBBBDBBDAAAA",
"AAAADBBBBBBDAAAA",
"AAAADBBDBBDAAAAA",
"AAAADBBBDDDDDDDD",
"AAADDBBBBBDBBBDD",
"AADCCDDDDDCBCDCD",
"ADCCDCCCCCCCDCCD",
"DDDDDDDDDDDDCCCD",
"DBBBBBBBBBBDCCCD",
"DBBBDBBDBBBDCCDA",
"DBBBDDDDBBBDCDAA",
"DBBBBBBBBBBDDAAA",
"DDDDDDDDDDDDAAAA",
};
