/* XPM */
static char *MailboxDeletePushed[] =
{
/* width height ncolors chars_per_pixel */
"32 32 10 1",
/* colors */
"A c None",
"B c #CCCCCCCCCCCC",
"C c #DDDDDDDDDDDD",
"D c #BBBBBBBBBBBB",
"E c #AAAAAAAAAAAA",
"F c #888888888888",
"G c #777777777777",
"H c #555555555555",
"I c #444444444444",
"J c #000000000000",
/* pixels */
"AAAAAAAAAAAAAAAAAAAAAAAAAAAAAAAA",
"AAAAAAAAAAAAAAAAAAAAAAAAAAAAAAAA",
"AAAAAAAAAAAAAAAAAAAAAAAAAAAAAAAA",
"AAAAAAAAAAAAAAAAAAAAAAAAAAAAAAAA",
"AAAAAAAAAAAAAAJJAAAAAAAAAAAAAAAA",
"AAAAAAAAAAAAAJCCJJJAAAAAAAAAAAAA",
"AAAAAAAAAAAAAAJCDJDJAAAAAAAAAAAA",
"AAAAAAAAAAAAAAAJDDJEJAAAAAAAAAAA",
"AAAAAAAEEEEEEEAAJEEJFJAAAAAAAAAA",
"AAAAAAAAEJJJEJEAAJEFJGJAAAAAAAAA",
"AAAAAAAAEEEEEEEAAAJFFJJAAAAAAAAA",
"AAAAAAAAAEJJEJJEAAAJGGJAAAAAAAAA",
"AAAAAAAAAEEEEEEEAAAAJGHJAAAAAAAA",
"AAAAAAAAAAEJEJEJEAAAAJJJAAAAAAAA",
"AAAAAAAAAAEEEEEEEAAAAAJAAAAAAAAA",
"AAAAAAAAAJJJJJJJJJJJJJJAAAAAAAAA",
"AAAAAAAAAJCCDDEEFFGGHHJAAAAAAAAA",
"AAAAAAAAAJCBHDEBHFGBIHJAAAAAAAAA",
"AAAAAAAAAJCBHDEBHFGBIHJAAAAAAAAA",
"AAAAAAAAAJCBHDEBHFGBIHJAAAAAAAAA",
"AAAAAAAAAJCBHDEBHFGBIHJAAAAAAAAA",
"AAAAAAAAAJCBHDEBHFGBIHJAAAAAAAAA",
"AAAAAAAAAJCBHDEBHFGBIHJAAAAAAAAA",
"AAAAAAAAAJCBHDEBHFGBIHJAAAAAAAAA",
"AAAAAAAAAJCBHDEBHFGBIHJAAAAAAAAA",
"AAAAAAAAAJCCDDEEFFGGHHJAAAAAAAAA",
"AAAAAAAAAJJJJJJJJJJJJJJAAAAAAAAA",
"AAAAAAAAAAJJJJJJJJJJJJAAAAAAAAAA",
"AAAAAAAAAAAAAAAAAAAAAAAAAAAAAAAA",
"AAAAAAAAAAAAAAAAAAAAAAAAAAAAAAAA",
"AAAAAAAAAAAAAAAAAAAAAAAAAAAAAAAA",
"AAAAAAAAAAAAAAAAAAAAAAAAAAAAAAAA",
};
