/* XPM */
static char *MailboxPOP3[] =
{
/* width height ncolors chars_per_pixel */
"32 32 8 1",
/* colors */
"A c #FFFFFFFFFFFF",
"B c None",
"C c #DDDD00000000",
"D c #00000000DDDD",
"E c #BBBBBBBBBBBB",
"F c #AAAAAAAAAAAA",
"G c #888888888888",
"H c #000000000000",
/* pixels */
"BBBBBBBBBBBBBBBBBBBBBBBBBBBBBBBB",
"BBBBBBBBBBBBBBBBBBBBBBBBBBBBBBBB",
"BBBBBBBBBBBBBBBBBBBBBBBBBBBBBBBB",
"BBBBBBBBBBBBBCCCCCCBBBBBBBBBBBBB",
"BBBBBBBBBBBBBCCCCCCBBBBBBBBBBBBB",
"BBBBBBBBBBBBBCCCCCCBBBBBBBBBBBBB",
"BBBBBBBDDDDDDCCCCCCDDDDDDBBBBBBB",
"BBBBBBBDDDDDCCCCCCCCDDDDDGBBBBBB",
"BBBBBBBDDHHDCCCCCCCCDAADDGEBBBBB",
"BBBBBBBDDHHDDCCCCCCDDAADDGEBBBBB",
"BBBBBBBDDAADDDCCCCDDDDDDDGEBBBBB",
"BBBBBBBDDAADDDDCCDDDDDDDDGEBBBBB",
"BBBBBBBDDDDDDDGFFGDDDDDDDGEBBBBB",
"BBBBBBBDDDDDDGFFFFGDDDDDDGEBBBBB",
"BBBBBBBDDDDDDFFDDFFDDDDDDGEBBBBB",
"BBBBBBBDDDDDDFFDDFFDDDDDDGEBBBBB",
"BBBBBBBDDDDDDGFFFFGDDDDDDGEBBBBB",
"BBBBBBBDDDDDDDGFFGDDDDDDDGEBBBBB",
"BBBBBBBDDDDDDDDDDDDDDDDDDGEBBBBB",
"BBBBBBBDDDDDDDDDDDDDDDDDDGEBBBBB",
"BBBBBBBDDDDDGFFFFFFFGDDDDGEBBBBB",
"BBBBBBBDDDDDFFFFFFDDFDDDDGEBBBBB",
"BBBBBBBDDDDDFFFFFFDDFDDDGEBBBBBB",
"BBBBBBBDDDDDFFFFFFDDFDDGEBBBBBBB",
"BBBBBBBBGGGGGGGGGGGGGGGEBBBBBBBB",
"BBBBBBBBBEEEEEEEEEEEEEEBBBBBBBBB",
"BBBBBBBBBBBBBBBBBBBBBBBBBBBBBBBB",
"BBBBBBBBBBBBBBBBBBBBBBBBBBBBBBBB",
"BBBBBBBBBBBBBBBBBBBBBBBBBBBBBBBB",
"BBBBBBBBBBBBBBBBBBBBBBBBBBBBBBBB",
"BBBBBBBBBBBBBBBBBBBBBBBBBBBBBBBB",
"BBBBBBBBBBBBBBBBBBBBBBBBBBBBBBBB",
};
