/* XPM */
static char *MailboxDisconnected[] =
{
/* width height ncolors chars_per_pixel */
"32 32 15 1",
/* colors */
"A c None",
"B c #CCCCCCCCFFFF",
"C c #99999999FFFF",
"D c #66666666CCCC",
"E c #333399996666",
"F c #333366666666",
"G c #333333336666",
"H c #0000BBBB0000",
"I c #00000000DDDD",
"J c #BBBBBBBBBBBB",
"K c #AAAAAAAAAAAA",
"L c #888888888888",
"M c #777777777777",
"N c #444444444444",
"O c #000000000000",
/* pixels */
"AAAAAAAAAAAAAAAAAAAAAAAAAAAAAAAA",
"AAAAAAAAAAAAAAAAAAAAAAAAAAAAAAAA",
"AAAAAAAAAAAAAAAAAAAAAAAAAAAAAAAA",
"AAAAAAAAAAAAAAAAAAAAAAAAAAAAAAAA",
"AAAAAAAAAAAAAAAAAAAAAAAAAAAAAAAA",
"AAAAAAAAAAAAAAAAAAAAAAAAAAAAAAAA",
"AAAAAAIIIIIIIIIAAAAAAAAAAAAAAAAA",
"AAAAAAIOIIIIIAILAAAAAAAAAAAAAAAA",
"AAAAAAIAIIIIIIILJOOOAAAAAAAAAAAA",
"AAAAAAIIIKKKIIILJAAAOAAAAAAAAAAA",
"AAAAAAIIIKIKIIILJAAAOAAAAAAAAAAA",
"AAAAAAIIIKKKIIILJAAOOOAAAAAAAAAA",
"AAAAAAIIIIIIIIILJAAAOAAAAAAAAAAA",
"AAAAAAIIKKKKKIILJAAAAAAAAAAAAAAA",
"AAAAAAIIKKKKKILJAAMNONMAAAAAAAAA",
"AAAAAAALLLLLLLJAAOBHBBCOAAAAAAAA",
"AAAAAAAAJJJJJJAAMFHBEBFFMAAAAAAA",
"AAAAAAAAAAAAAAAANFHEECFFNAAAAAAA",
"AAAAAAAAAAOAAAAAOFHEECHFOAAAAAAA",
"AAAAAAAAAOOOAAAANBBECCFFNAAAAAAA",
"AAAAAAAAAAOAAAAAMCBFFDDGMAAAAAAA",
"AAAAAAAAAAOAAAAAAOCFFGGOAAAAAAAA",
"AAAAAAAAAAAOOOOAAAMNONMAAAAAAAAA",
"AAAAAAAAAAAAAAAAAAAAOAAAAAAAAAAA",
"AAAAAAAAAAAAAAAAAAAOAOAAAAAAAAAA",
"AAAAAAAAAAAAAAAALLNOANNLLAAAAAAA",
"AAAAAAAAAAAAAAAAAAAAAAAAAAAAAAAA",
"AAAAAAAAAAAAAAAAAAAAAAAAAAAAAAAA",
"AAAAAAAAAAAAAAAAAAAAAAAAAAAAAAAA",
"AAAAAAAAAAAAAAAAAAAAAAAAAAAAAAAA",
"AAAAAAAAAAAAAAAAAAAAAAAAAAAAAAAA",
"AAAAAAAAAAAAAAAAAAAAAAAAAAAAAAAA",
};
