/* XPM */
static char *MailboxExpunge[] =
{
/* width height ncolors chars_per_pixel */
"32 32 13 1",
/* colors */
"A c None",
"B c #CCCCCCCCCCCC",
"C c #99999999FFFF",
"D c #66666666CCCC",
"E c #333333336666",
"F c #DDDDDDDDDDDD",
"G c #BBBBBBBBBBBB",
"H c #AAAAAAAAAAAA",
"I c #888888888888",
"J c #777777777777",
"K c #555555555555",
"L c #444444444444",
"M c #000000000000",
/* pixels */
"AAAAAAAAAAAAAAAAAAAAAAAAAAAAAAAA",
"AAAAAAAAAAAAAAAAAAAAAAAAAAAAAAAA",
"AAAAAAAAAAAAAAAAAAAAAAAAAAAAAAAA",
"AAAAAAAAAAAAAAAAAAAAAAAAAAAAAAAA",
"AAAAAAAAAAAAAAAAAAAAAAAAAAAAAAAA",
"AAAAAAAAAAAAAMMAAAAAAAAAAAAAAAAA",
"AAAAAAAAAAMMMHMMMMMMMMMMMMMMAAAA",
"AAAAAAAAAMHMHHMAMFFFFFFFFFFMMAAA",
"AAAAAAAAMHMHHMAAMFKKKKKKKKGMMAAA",
"AAAAAAAMHMHHMAAAMFFFFFFFFFGMMAAA",
"AAAAAAMHMHHMAAAAMFGGGGGGGGHMMAAA",
"AAAAAAMMHHMAAAAEMGGHHHHHHHHMMAAA",
"AAAAAAMHHMAAAAEDMGKKKKKKKKIMMAAA",
"AAAAAMHHMAAAAECDMHBBBBBBBBIMMAAA",
"AAAAAMHMAAAAECCDMHIIIIIIIIJMMAAA",
"AAAAAAMAAAAEDDDCMIJJJJJJJJJMMAAA",
"AAAAAAAAEAAAECDCMILLLLLLLLKMMAAA",
"AAAAAAAEDEAAAEDEMJBBBBBBBBKMMAAA",
"AAAAAAECDCEAAAEAMJKKKKKKKKKMMAAA",
"AAAAAECCDDDEAAAAMMMMMMMMMMMMAAAA",
"AAAAEDDDCCEAAAAAAAAAAAAAAAAAAAAA",
"AAAAAECDCEAAAAAAAAAAAAAAAAAAAAAA",
"AAAAAAEDEAAEEEEEAAAAAAAAAAAAAAAA",
"AAAAAAAEAAAEDCDEAAAAAAAAAAAAAAAA",
"AAAAAAAAAAAEDCDEAAAAAAAAAAAAAAAA",
"AAAAAAAAAAAECDCEAAAAAAAAAAAAAAAA",
"AAAAAAAAAAAECDDEAAAAAAAAAAAAAAAA",
"AAAAAAAAAAAEDCDEAAAAAAAAAAAAAAAA",
"AAAAAAAAAAAEEEEEAAAAAAAAAAAAAAAA",
"AAAAAAAAAAAAAAAAAAAAAAAAAAAAAAAA",
"AAAAAAAAAAAAAAAAAAAAAAAAAAAAAAAA",
"AAAAAAAAAAAAAAAAAAAAAAAAAAAAAAAA",
};
