/* XPM */
static char*MailboxRemoteSSL[]={
"32 32 13 1",
"k c #888888",
"# c #bbbbbb",
"a c #444444",
"b c #000000",
"g c #339966",
"d c #336666",
"f c #00bb00",
"i c #333366",
"e c #6666cc",
". c None",
"j c #cccccc",
"h c #9999ff",
"c c #ccccff",
"................................",
"................................",
"................................",
"................................",
"............#abbbba#............",
"...........abccdddeba...........",
"..........bcdfcccdeedb..........",
".........bdcfgcccgceddb.........",
"........adfgcggccchgddda........",
".......#bdfgggcgghcgdddb#.......",
".......acdfggcgggchhgeeia.......",
".......bcdfgggghhhhhhdddb.......",
".......bcdfgggghhhhhfdddb.......",
".......bcdfgggghhhhhfdddb.......",
".......bcccggghgghhhddddb.......",
".......accccgghhhhhheddda.......",
".......#bccchgggggheeeib#.......",
"........ahcchdddddeeeiia........",
".........bhhhhdddeeeiii.........",
"..........bhhedddeiiib...bbbb...",
"...........abedddiiba...b....b..",
"............#abbbba#...b......b.",
"...............bb......b......b.",
"...............bb......b......b.",
".............aajjaa....b......b.",
".............aajjaa...bbbbbbbbbb",
".........kkaaaaaaaaaakbbbb..bbbb",
".......kkkkaaaa..aaaakbbbb..bbbb",
"......................bbbbkkbbbb",
"......................bbbbkkbbbb",
"......................bbbbbbbbbb",
"......................bbbbbbbbbb"};
