/* XPM */
static char *MailboxMatchBtnSmall[] =
{
/* width height ncolors chars_per_pixel */
"16 16 8 1",
/* colors */
"A c #FFFFFFFFFFFF",
"B c None",
"C c #CCCCCCCCCCCC",
"D c #CCCC66663333",
"E c #0000BBBB0000",
"F c #000077770000",
"G c #EEEEEEEEEEEE",
"H c #000000000000",
/* pixels */
"BBBBBBBBBBBBBBBB",
"BBBBBBBBHBBBBBBB",
"BBBBHBBHGHHBBBBB",
"BBBHGHHGGGGHHBBB",
"BBHGHGGHHGGGGHHB",
"BHGGGHHGGHHGGEEH",
"BBHHGGGGHEEHGEHD",
"BBHCHHGGGEHCCHDH",
"BHGGCCHHGHHCHCHB",
"HGGHHGCCHHCHCHBB",
"AHHGGHGGFFHBHBBB",
"HCCHHGGHEHBBBBBB",
"BHHCCHHGHFHBBBBB",
"BBBHHCCHFHBBBBBB",
"BBBBBHHCHBBBBBBB",
"BBBBBBBHBBBBBBBB",
};
