/* XPM */
static char *MailboxDoc[] =
{
/* width height ncolors chars_per_pixel */
"32 32 8 1",
/* colors */
"A c None",
"B c #FFFFCCCC9999",
"C c #FFFF66663333",
"D c #CCCC99996666",
"E c #DDDD00000000",
"F c #0000BBBB0000",
"G c #EEEEEEEEEEEE",
"H c #000000000000",
/* pixels */
"AAAAAAAAAAAAAAAAAAAAAAAAAAAAAAAA",
"AAAAAAAAAAAAAAAAAAAAAAAAAAAAAAAA",
"AAAAAAAAAAAAAAAAAAAAAAAAAAAAAAAA",
"AAAAAAAAAAAAAAAAAAAAAAAAAAAAAAAA",
"AAAAAAAAHHHHHHHHHHHHHHHHHHHHHHAA",
"AAAAAAAAHGGGGGGGGGGGGGGGGGGGGHAA",
"AAAAAAAAHGGGGGGGGGGGGGGGGFFFGHAA",
"AAAAAAHHHHHHHHHHHHHHHHHHHHHHGHAA",
"AAAAAAHGGGGGGGGGGGGGGGGGGGGHGHAA",
"AAAAAAHGGGGGGGGGGGGGGGGCCCGHGHAA",
"AAAAAAHGGGGGGGGGGGGGGGGCCCGHGHAA",
"AAHHHHHHHHHHHHHHHHHHHHHHHHGHGHAA",
"AAHGGGGGGGGGGGGGGGGGGGGGGHGHGHAA",
"AAHGGGGGGGGGGGGGGGGGGEEEGHGHGHHH",
"AAHGGGGGGGGGGGGGGGGGGEEEGHGHGHHH",
"AAHGGGGGGGGGGGGGGGGGGEEEGHGHGHDH",
"AAHGGGHHGHHHGHHHGGGGGGGGGHGHHDDH",
"AAHGGGGGGGGGGGGGGGGGGGGGGHGHDDDH",
"AAHGGGGHHHHHGHHGGGGGGGGGGHHDDDDH",
"AAHGGGGGGGGGGGGGGGGGGGGGGHDDDDDH",
"AAHGGGHGHHHGGHHHGGGGGGGGHDDDDDDH",
"HHHHHHHHHHHHHHHHHHHHHHHHDDDDDDDH",
"HBBBBBBBBBBBBBBBBBBBBBBHDDDDDDDH",
"HBBBBBBBBBBBBBBBBBBBBBBHDDDDDDDH",
"HBBBBBBBBBBBBBBBBBBBBBBHDDDDDDHA",
"HBBBBBBHBBBBBBBBHBBBBBBHDDDDDHAA",
"HBBBBBBHHBBBBBBHHBBBBBBHDDDDHAAA",
"HBBBBBBHHHHHHHHHHBBBBBBHDDDHAAAA",
"HBBBBBBBHHHHHHHHBBBBBBBHDDHAAAAA",
"HBBBBBBBBBBBBBBBBBBBBBBHDHAAAAAA",
"HBBBBBBBBBBBBBBBBBBBBBBHHAAAAAAA",
"HHHHHHHHHHHHHHHHHHHHHHHHAAAAAAAA",
};
