/* XPM */
static char *MailboxDeletedNum[] =
{
/* width height ncolors chars_per_pixel */
"16 16 7 1",
/* colors */
"A c None",
"B c #FFFFCCCC9999",
"C c #99999999FFFF",
"D c #66666666CCCC",
"E c #333333336666",
"F c #DDDD00000000",
"G c #000000000000",
/* pixels */
"AAAAAAAAAAAAAAAA",
"AFFAAAAAAAAAAFFA",
"AFFFAAAEEAAAFFFA",
"AAFFFAECCEAFFFAA",
"AAAFFFBBBBFFFAAA",
"AAABFFFBGFFFBAAA",
"AAEBBFFFFFFBBEAA",
"AAEDBGFFFFGBDEAA",
"AAECDDFFFFDDCEAA",
"AAECCFFFFFFCCEAA",
"AAECFFFDDFFFCEAA",
"AAEFFFCCCCFFFEAA",
"AAFFFCCCCCCFFFAA",
"AFFFEEEEEEEEFFFA",
"AFFAAAAAAAAAAFFA",
"AAAAAAAAAAAAAAAA",
};
