/* XPM */
static char *MenuTickMark[] =
{
/* width height ncolors chars_per_pixel */
"16 16 2 1",
/* colors */
"A c None",
"B c #000000000000",
/* pixels */
"AAAAAAAAAAAAAAAA",
"AAAAAAAAAAAAAAAA",
"AAAAAAAAAAAAAAAA",
"AAAAAAAAAAAAAAAA",
"AAAAAAAAAAAAAAAA",
"AAAAAAAAAAABAAAA",
"AAAAAAAAAABBAAAA",
"AAAAAAAAABBAAAAA",
"AAAAAAAABBAAAAAA",
"AAABBAABBAAAAAAA",
"AAABBBBBAAAAAAAA",
"AAAABBBAAAAAAAAA",
"AAAAABAAAAAAAAAA",
"AAAAAAAAAAAAAAAA",
"AAAAAAAAAAAAAAAA",
"AAAAAAAAAAAAAAAA",
};
