/* XPM */
static char *MessageBounce[] =
{
/* width height ncolors chars_per_pixel */
"32 32 6 1",
/* colors */
"A c None",
"B c #DDDD00000000",
"C c #0000BBBB0000",
"D c #00000000DDDD",
"E c #EEEEEEEEEEEE",
"F c #000000000000",
/* pixels */
"AAAAAAAAAAAAAAAAAAAAAAAAAAAAAAAA",
"AAAAAAAAAAAAAAAAAAAAAAAAAAAAAAAA",
"AAAAAAAAAAAAAAAAAAAAAAAAAAAAAAAA",
"AAAAAAAAAAAAAAAAAAAAAAAAAAAAAAAA",
"AAAAAAAAAAAAAAAAAAAAAAAAAAAAAAAA",
"AAAAAAAAAAAAAAAAAAAAAAAAAAAAAAAA",
"AAAAAAAAAAAAAAAAAAAAAAAAAAAAAAAA",
"AAAAAAAADAAAAAAAAAABBBBBAAAAAAAA",
"AAAAAAADDDAAAAAAAAAABBBBAAAAAAAA",
"AAAAAADDDDDAAAAAAAABBBBBAAAAAAAA",
"AAAAAAADDDDDADAAAABBBBBBAAAAAAAA",
"AAAAAAAADDDDDDAAABBBBBABAAAAAAAA",
"AAAAAAAAADDDDDAABBBBBAAAAAAAAAAA",
"AAAAAAAAAADDDDAAABBBAAAAAAAAAAAA",
"AAAAAAAAADDDDDAAAABAAAAAAAAAAAAA",
"AAAAAAAAAAAAAAAAAAAAAAAAAAAAAAAA",
"AAAAAAAFFFFFFFFFFFFFFFFAAAAAAAAA",
"AAAAAAAFEEEEEEEEEEECCCFAAAAAAAAA",
"AAAAAAAFEEEEEEEEEEECCCFAAAAAAAAA",
"AAAAAAAFEEFFFFEFEEECCCFAAAAAAAAA",
"AAAAAAAFEEEEEEEEEEEEEEFAAAAAAAAA",
"AAAAAAAFEFFFFEFFEFEEEEFAAAAAAAAA",
"AAAAAAAFEEEEEEEEEEEEEEFAAAAAAAAA",
"AAAAAAAFEEEEEEEEEEEEEEFAAAAAAAAA",
"AAAAAAAFFFFFFFFFFFFFFFFAAAAAAAAA",
"AAAAAAAAAAAAAAAAAAAAAAAAAAAAAAAA",
"AAAAAAAAAAAAAAAAAAAAAAAAAAAAAAAA",
"AAAAAAAAAAAAAAAAAAAAAAAAAAAAAAAA",
"AAAAAAAAAAAAAAAAAAAAAAAAAAAAAAAA",
"AAAAAAAAAAAAAAAAAAAAAAAAAAAAAAAA",
"AAAAAAAAAAAAAAAAAAAAAAAAAAAAAAAA",
"AAAAAAAAAAAAAAAAAAAAAAAAAAAAAAAA",
};
