/* XPM */
static char *MessageBounceSmall[] =
{
/* width height ncolors chars_per_pixel */
"16 16 6 1",
/* colors */
"A c None",
"B c #DDDD00000000",
"C c #0000BBBB0000",
"D c #00000000DDDD",
"E c #EEEEEEEEEEEE",
"F c #000000000000",
/* pixels */
"AAAAAAAAAAAAAAAA",
"AADAAAAAAAABBBBA",
"ADDDAAAAAAAABBBA",
"AADDDADAAAABBBBA",
"AAADDDDAAABBBABA",
"AAAADDDAABBBAAAA",
"AAADDDDAAABAAAAA",
"AAAAAAAAAAAAAAAA",
"AAFFFFFFFFFFFFAA",
"AAFEEEEEEEECCFAA",
"AAFEEFFEEEECCFAA",
"AAFEEEEEEEEEEFAA",
"AAFEEFFFEFFEEFAA",
"AAFEEEEEEEEEEFAA",
"AAFFFFFFFFFFFFAA",
"AAAAAAAAAAAAAAAA",
};
