/* XPM */
static char *MessageForward[] =
{
/* width height ncolors chars_per_pixel */
"32 32 7 1",
/* colors */
"A c None",
"B c #FFFF66663333",
"C c #DDDD00000000",
"D c #0000BBBB0000",
"E c #00000000DDDD",
"F c #EEEEEEEEEEEE",
"G c #000000000000",
/* pixels */
"AAAAAAAAAAAAAAAAAAAAAAAAAAAAAAAA",
"AAAAAAAAAAAAAAAAAAAAAAAAAAAAAAAA",
"AAAAAAAAAAAAAAAAAAAAAAAAAAAAAAAA",
"AAAAAAAAAAAAAAAAAAAAAAAAAAAAAAAA",
"AAAAGGGGGGGGGGGGGGGGAAAAAAAAAAAA",
"AAAAGFFFFFFFFFFFBBBGAAAAAAAAAAAA",
"AAAAGFFFFCFFFFFFBBBGAAAAAAAAAAAA",
"AAAAGFFGCFCFGFFFBBBGAAAAAAAAAAAA",
"AAAAGFFCCFCCFFFFFFFGAAAAAAAAAAAA",
"AAAAGFCGGGFCCFCCFFFGAAAAAAAAAAAA",
"AAAAGFFFFFFFFCCFFFFGAAAAAAAAAAAA",
"AAAAGFFFFFFFFFFFFFFGAAAAAAAAAAAA",
"AAAAGGGGGGGGGGGGGGGGAAAAAAAAAAAA",
"AAAAAAAAAAAAAEAAAAAAAAAAAAAAAAAA",
"AAAAAAAAAAAAEAEAAAAAAAAAAAAAAAAA",
"AAAAAAAAAAAAAEAEAEAAAAAAAAAAAAAA",
"AAAAAAAAAAAAAAEAEEAAAAAAAAAAAAAA",
"AAAAAAAAAAAAAAAEAEAAAAAAAAAAAAAA",
"AAAAAAAAAAAAAAEEEEAAAAAAAAAAAAAA",
"AAAAAAAAAAAAGGGGGGGGGGGGGGGGAAAA",
"AAAAAAAAAAAAGFFFFFFFFFFFDDDGAAAA",
"AAAAAAAAAAAAGFFFFFFFFFFFDDDGAAAA",
"AAAAAAAAAAAAGFFGGGGFGFFFDDDGAAAA",
"AAAAAAAAAAAAGFFFFFFFFFFFFFFGAAAA",
"AAAAAAAAAAAAGFGGGGFGGFGFFFFGAAAA",
"AAAAAAAAAAAAGFFFFFFFFFFFFFFGAAAA",
"AAAAAAAAAAAAGFFFFFFFFFFFFFFGAAAA",
"AAAAAAAAAAAAGGGGGGGGGGGGGGGGAAAA",
"AAAAAAAAAAAAAAAAAAAAAAAAAAAAAAAA",
"AAAAAAAAAAAAAAAAAAAAAAAAAAAAAAAA",
"AAAAAAAAAAAAAAAAAAAAAAAAAAAAAAAA",
"AAAAAAAAAAAAAAAAAAAAAAAAAAAAAAAA",
};
