/* XPM */
static char *MessageCopySmall[] =
{
/* width height ncolors chars_per_pixel */
"16 16 7 1",
/* colors */
"A c None",
"B c #FFFFCCCC9999",
"C c #CCCC99996666",
"D c #DDDD00000000",
"E c #0000BBBB0000",
"F c #EEEEEEEEEEEE",
"G c #000000000000",
/* pixels */
"AAGGGGGGGGGGGGAA",
"AAGEEEEEEEEEEGGA",
"AAAGEEEEEEEEGFGA",
"AAAGGEEEEEEGGGGA",
"AAAGFGEEEEGFFFGA",
"AGGGGGGEEGGGGFGA",
"AGFFFFFGGFFFGFGA",
"AGFFFFFFFDDFGFGG",
"AGFGFGGGFDDFGGCG",
"AGFFFFFFFFFFGCCG",
"GGGGGGGGGGGGCCCG",
"GBBBBBBBBBBGCCCG",
"GBBBGBBGBBBGCCGA",
"GBBBGGGGBBBGCGAA",
"GBBBBBBBBBBGGAAA",
"GGGGGGGGGGGGAAAA",
};
