/* XPM */
static char *MessageDoc[] =
{
/* width height ncolors chars_per_pixel */
"32 32 7 1",
/* colors */
"A c None",
"B c #FFFFCCCC9999",
"C c #CCCCCCCCCCCC",
"D c #99999999FFFF",
"E c #66666666CCCC",
"F c #333333336666",
"G c #000000000000",
/* pixels */
"AAAAAAAAAAAAAAAAAAAAAAAAAAAAAAAA",
"AAAAAAAAAAAAAAAAAAAAAAAAAAAAAAAA",
"AAAAAAAAAAAAAAAAAAAAAAAAAAAAAAAA",
"AAAAAAAAAAAAAAAAAAAAAAAAAAAAAAAA",
"AAAAAAAAAAAAAAFFFFAAAAAAAAAAAAAA",
"AAAAAAAAAAAAAFDDDDFAAAAAAAAAAAAA",
"AAAAAAAAAAAAFDDDDDDFAAAAAAAAAAAA",
"AAAAAAAAAAAFDDDDDDDDFAAAAAAAAAAA",
"AAAAAABBBBBBBBBBBBBBBBBBBBAAAAAA",
"AAAAAABBBBBBBBBBBBBBBBBBBBAAAAAA",
"AAAAAABBGGGCGGBBCGBBCGGGBBAAAAAA",
"AAAAAABBGCCGGBBBGGBBGGCGBBAAAAAA",
"AAAAFFBBBBBBBBBBBBBBBBBBBBFFAAAA",
"AAAAFEBBBBBBBBBBBBBBBBBBBBEFAAAA",
"AAAAFEEBBBCGGGBBGCGCGGBBBEEFAAAA",
"AAAAFDEEBBGGCGBBGGGGGCBBEEDFAAAA",
"AAAAFDDEEEBBBBBBBBBBBBEEEDDFAAAA",
"AAAAFDDDDEEEBBBBBBBBEEEDDDDFAAAA",
"AAAAFDDDDDDEEEGCGCEEEDDDDDDFAAAA",
"AAAAFDDDDDDDEEGGGGEEDDDDDDDFAAAA",
"AAAAFDDDDDDDDEEEEEEDDDDDDDDFAAAA",
"AAAAFDDDDDDEEEDDDDEEEDDDDDDFAAAA",
"AAAAFDDDDEEEDDDDDDDDEEEDDDDFAAAA",
"AAAAFDDEEEDDDDDDDDDDDDEEEDDFAAAA",
"AAAAFDEEDDDDDDDDDDDDDDDDEEDFAAAA",
"AAAAFEEDDDDDDDDDDDDDDDDDDEEFAAAA",
"AAAAFEDDDDDDDDDDDDDDDDDDDDEFAAAA",
"AAAAFFFFFFFFFFFFFFFFFFFFFFFFAAAA",
"AAAAAAAAAAAAAAAAAAAAAAAAAAAAAAAA",
"AAAAAAAAAAAAAAAAAAAAAAAAAAAAAAAA",
"AAAAAAAAAAAAAAAAAAAAAAAAAAAAAAAA",
"AAAAAAAAAAAAAAAAAAAAAAAAAAAAAAAA",
};
