/* XPM */
static char *MessageAlternative[] =
{
/* width height ncolors chars_per_pixel */
"16 16 3 1",
/* colors */
"A c #FFFFFFFFCCCC",
"B c #777777777777",
"C c #000000000000",
/* pixels */
"BBBBBBBBBBBBBBBB",
"BAAAAAAAAAAAAAAB",
"BAAAAAAAAAAAAAAB",
"BAACCCCCCCAAAAAB",
"BACAAACAAAAAAAAB",
"BACAAACAAAAAAAAB",
"BAAAACABBBBBBBAB",
"BAAAACBAAABAAAAB",
"BAAACABAAABAAAAB",
"BAACCCAAABAAAAAB",
"BAAAAAAAABAAAAAB",
"BAAAAAAABAAAAAAB",
"BAAAAAABBBAAAAAB",
"BAAAAAAAAAAAAAAB",
"BAAAAAAAAAAAAAAB",
"BBBBBBBBBBBBBBBB",
};
