/* XPM */
static char *MessageForwardSmall[] =
{
/* width height ncolors chars_per_pixel */
"16 16 6 1",
/* colors */
"A c None",
"B c #FFFF66663333",
"C c #0000BBBB0000",
"D c #00000000DDDD",
"E c #EEEEEEEEEEEE",
"F c #000000000000",
/* pixels */
"FFFFFFFFFFFAAAAA",
"FEEEEEEEBBFAAAAA",
"FEFFEEEEBBFAAAAA",
"FEEEEEEEEEFAAAAA",
"FEFFFEFFEEFAAAAA",
"FEEEEEEEEEFAAAAA",
"FFFFFFFFFFFAAAAA",
"AAAAAAAAAAAAAAAA",
"DDAAAAAAAAAAAAAA",
"DDAAAFFFFFFFFFFF",
"DDAAAFEEEEEEECCF",
"DDADAFEFFEEEECCF",
"DDDDAFEEEEEEEEEF",
"ADDDAFEFFFEFFEEF",
"DDDDAFEEEEEEEEEF",
"AAAAAFFFFFFFFFFF",
};
