/* XPM */
static char *MessageHeader[] =
{
/* width height ncolors chars_per_pixel */
"16 16 7 1",
/* colors */
"A c None",
"B c #00000000DDDD",
"C c #EEEEEEEEEEEE",
"D c #AAAAAAAAAAAA",
"E c #777777777777",
"F c #444444444444",
"G c #000000000000",
/* pixels */
"AAAAAAAAAAAAAAAA",
"AAAAAAAAAAAAAAAA",
"AAFFFFFFFFFFFFAA",
"AAFCCCCCCCCCCFAA",
"AAFCEECEEEECCFAA",
"AAFCCCCCCCCCCFAA",
"AAFBBBBBBBBBBFAA",
"AAFDDDDDDDDDDFAA",
"AAFDDGDDGGGDDFAA",
"AAFDDDDDDDDDDFAA",
"AAFDDGDGGGDDDFAA",
"AAFDDDDDDDDDDFAA",
"AAFDDDDDDDDDDFAA",
"AAFFFFFFFFFFFFAA",
"AAAAAAAAAAAAAAAA",
"AAAAAAAAAAAAAAAA",
};
