/* XPM */
static char *MessageReply[] =
{
/* width height ncolors chars_per_pixel */
"32 32 7 1",
/* colors */
"A c None",
"B c #FFFF66663333",
"C c #DDDD00000000",
"D c #0000BBBB0000",
"E c #00000000DDDD",
"F c #EEEEEEEEEEEE",
"G c #000000000000",
/* pixels */
"AAAAAAAAAAAAAAAAAAAAAAAAAAAAAAAA",
"AAAAAAAAAAAAAAAAAAAAAAAAAAAAAAAA",
"AAAAAAAAAAAAAAAAAAAAAAAAAAAAAAAA",
"AAAAAAAAAAAAAAAAAAAAAAAAAAAAAAAA",
"AAAAGGGGGGGGGGGGGGGGAAAAAAAAAAAA",
"AAAAGFFFFFFFFFFFBBBGAAAAEAAAAAAA",
"AAAAGFFFFFFFFFFFBBBGAAAAAEAAAAAA",
"AAAAGFFGGGGGFGFFBBBGAEEEEEEAAAAA",
"AAAAGFFFFFFFFFFFFFFGAAAAAAEEAAAA",
"AAAAGFFGGGGFGGFGFFFGAEEEEEEAAAAA",
"AAAAGFFFFFFFFFFFFFFGAAAAAEAAAAAA",
"AAAAGFFFFFFFFFFFFFFGAAAAEAAAAAAA",
"AAAAGGGGGGGGGGGGGGGGAAAAAAAAAAAA",
"AAAAAAAAAAAAAAAAAAAAAAAAAAAAAAAA",
"AAAAAAAAAAAAAAAAAAAAAAAAAAAAAAAA",
"AAAAAAAAAAAAAAAAAAAAAAAAAAAAAAAA",
"AAAAAAAAAAAAAAAAAAAAAAAAAAAAAAAA",
"AAAAAAAAAAAAAAAAAAAAAAAAAAAAAAAA",
"AAAAAAAAAAAAAAAAAAAAAAAAAAAAAAAA",
"AAAAAAAAAAAAGGGGGGGGGGGGGGGGAAAA",
"AAAAAAACAAAAGFFFFFFFFFFFDDDGAAAA",
"AAAAAACAAAAAGFFFFFFFFFFFDDDGAAAA",
"AAAAACCCCCCAGFGGGGGFGFFFDDDGAAAA",
"AAAACCAAAAAAGFFFFFFFFFFFFFFGAAAA",
"AAAAACCCCCCAGFGGGGFGGFGFFFFGAAAA",
"AAAAAACAAAAAGFFFFFFFFFFFFFFGAAAA",
"AAAAAAACAAAAGFFFFFFFFFFFFFFGAAAA",
"AAAAAAAAAAAAGGGGGGGGGGGGGGGGAAAA",
"AAAAAAAAAAAAAAAAAAAAAAAAAAAAAAAA",
"AAAAAAAAAAAAAAAAAAAAAAAAAAAAAAAA",
"AAAAAAAAAAAAAAAAAAAAAAAAAAAAAAAA",
"AAAAAAAAAAAAAAAAAAAAAAAAAAAAAAAA",
};
