/* XPM */
static char *MoveDown[] =
{
/* width height ncolors chars_per_pixel */
"16 12 2 1",
/* colors */
"A c None",
"B c #000000000000",
/* pixels */
"AAAAAAAAAAAAAAAA",
"AAAAAAAAAAAAAAAA",
"AAAAAAAAAAAAAAAA",
"AAAAAABBBAAAAAAA",
"AAAAAABBBAAAAAAA",
"AAAABBBBBBBAAAAA",
"AAAAABBBBBAAAAAA",
"AAAAAABBBAAAAAAA",
"AAAAAAABAAAAAAAA",
"AAAAAAAAAAAAAAAA",
"AAAAAAAAAAAAAAAA",
"AAAAAAAAAAAAAAAA",
};
