/* XPM */
static char *Mulberry[] =
{
/* width height ncolors chars_per_pixel */
"32 32 27 2",
/* colors */
"AA c None",
"BA c #FFFF9C9CCECE",
"CA c #FFFF9C9C9C9C",
"DA c #FFFF7B7B8484",
"EA c #FFFF63639C9C",
"FA c #CECE9C9C9C9C",
"GA c #CECE63639C9C",
"HA c #CECE63636363",
"IA c #CECE31316363",
"JA c #A5A5A5A5A5A5",
"KA c #9C9C9C9C9C9C",
"LA c #9C9C63636363",
"MA c #9C9C31316363",
"NA c #9C9C31313131",
"OA c #848484848484",
"PA c #7B7B7B7B7B7B",
"AB c #636363636363",
"BB c #636331313131",
"CB c #636300003131",
"DB c #5A5A5A5A5A5A",
"EB c #424242424242",
"FB c #393939393939",
"GB c #313100003131",
"HB c #313100000000",
"IB c #292929292929",
"JB c #181818181818",
"KB c #000000000000",
/* pixels */
"AAAAAAAAAAAAAAAAAAAAAAAAAAAAAAAAAAAAAAAAAAAAAAAAAAAAAAAAAAAAAAAA",
"AAAAAAAAAAAAAAAAAAAAAAAAAAKADBABDBFBFBAAAAAAAAAAAAAAAAAAAAAAAAAA",
"AAAAAAAAAAAAAAAAAAAAAAAADBLAFACACAFALAIBAAAAAAAAAAAAAAAAAAAAAAAA",
"AAAAAAAAAAAAAAKAABKAAAAADBFABABABACAEAMAKBAAPAOAPAAAAAAAAAAAAAAA",
"AAAAAAAAAAAAPADBGALAIBIBLADAGADADADAHAIABBKBIBBBMAGBAAAAAAAAAAAA",
"AAAAAAAAAAAAABLAEAGABBIBHAHAHAHAMAMANANANAKBBBHAGANAKBAAAAAAAAAA",
"AAAAAAAAAAAAPABBHAHABBIBMAMAMANANANACBNABBIBNAHAIACBEBAAAAAAAAAA",
"AAAAAAAAAAAAAAKBBBIANAFBMAMANANABBCBCBCBCBBBMAMABBKBAAAAAAAAAAAA",
"AAAAAAAAAAFBFBFBIBBBNAIBBBNANANACBCBCBCBIBCBNAFBIBIBJBAAAAAAAAAA",
"AAAAAAEBABGAGAHAMABBIBKBKBNANACBCBCBCBBBKBKBBBMALAHAHADBKBAAAAAA",
"AAAAFBABGAFAGAHAIAIABBKBKBKBBBBBCBCBGBKBKBIBLAHAHAHAGAGAMAKBAAAA",
"AAABIBHACACAGAHAMANAMAHBKBKBIBHBGBHBKBKBKBBBHAHAHAHAHAGAHAIBJBAA",
"AAIBFBGACAGAIAMANANANABBKBBBMAIAMAMANAIBKBLAIAHAMAMAIAHAHABBKBAA",
"AAJBBBGAEAHAMANANANANABBGBHAHAHAIAHAHANAFBMAIAMAMANANAMAHABBKBAA",
"AAFBJBGADAIANACBCBCBCBBBBBGAGAIAIAIAIAHABBNANAMABBCBCBMAMABBKBAA",
"AAOAKBMAGAIACBCBCBCBNAHBBBGAGAIANANAIAIABBEBMANACBCBEBNAMAHBFBAA",
"AAAAJBIBHAMANACBCBCBCBJBBBHAHAMANACBNAMAGBKBNANACBCBCBNABBKBAAAA",
"AAAAAAKBHBEBCBCBCBHBKBKBJBIAIAMACBCBNANAKBKBJBCBCBCBCBGBKBJAAAAA",
"AAAAOAKBKBHBGBKBKBIBFBGBIBJBMAMANANACBFBGBBBBBGBKBIBGBHBKBJAAAAA",
"AAAAIBMAMAMABBEBMAIAHAMAMAGBJBGBGBHBIBFBHAHAHAMAMAGBNAMANANAGBAA",
"AAIBHAHAHAMAFBLAHAHAHAIAMAMAJBKBKBKBBBHAHAHAHAMAMANAGBMAHAHABBOA",
"DBBBIAHAIAGBBBHAHAHAHAIAMAMABBKBKBKBMAHAHAHAGAMANAMAHBGBMAMACBFB",
"JAKBNANAHBKBNAHAHAIAMANANANANAKBKBGBMAMAMAMANANANANACBKBIBCBKBAA",
"AAABKBKBKBKBMAHAGAMANANAMANABBJBIBEBMAMAMANANACBNANACBIBJAKAAAAA",
"AAAAAAAAOAKBBBHAHAMABBCBCBCBCBFBNAIBNANANACBCBCBEBMAGBFBAAAAAAAA",
"AAAAAAAAAAKBGBIAHAMANACBCBCBGBBBMAGBEBNACBCBCBBBMABBKBAAAAAAAAAA",
"AAAAAAAAAAOAKBBBMAMANACBCBGBKBNANABBKBEBCBCBBBNABBKBKBAAAAAAAAAA",
"AAAAAAAAAAAAOAKBKBCBCBGBKBKBHBMAMANAKBKBKBHBGBKBKBIBAAAAAAAAAAAA",
"AAAAAAAAAAAAAAOAKBKBKBKBKBKBKBMAMABBKBAAFBKBKBIBOAAAAAAAAAAAAAAA",
"AAAAAAAAAAAAAAAAAAJAJAJAAAAAIBHBCBKBPAAAAAAAAAAAAAAAAAAAAAAAAAAA",
"AAAAAAAAAAAAAAAAAAAAAAAAAAAAAAABEBAAAAAAAAAAAAAAAAAAAAAAAAAAAAAA",
"AAAAAAAAAAAAAAAAAAAAAAAAAAAAAAAAAAAAAAAAAAAAAAAAAAAAAAAAAAAAAAAA",
};
