/* XPM */
static char *Multipart[] =
{
/* width height ncolors chars_per_pixel */
"16 16 9 1",
/* colors */
"A c #FFFFFFFFCCCC",
"B c None",
"C c #FFFFCCCC9999",
"D c #CCCCCCCCFFFF",
"E c #99999999FFFF",
"F c #66666666CCCC",
"G c #333333336666",
"H c #AAAAAAAAAAAA",
"I c #000000000000",
/* pixels */
"BBBBBGGBBBBBBBBB",
"BBBBGEEGBBBBBBBB",
"BCCCCCCCCCCBBBBB",
"BCIIICICIICBBBBB",
"GCCCCCCCCCCGBBBB",
"GFCIICIIICFGBBBB",
"GEFFCCCCFFEGAAAB",
"GEEEFIIFEEEGHHAB",
"GEEEFFFFEEEGAAAF",
"GEFFEEEEFFEGHAEF",
"GFEEEEEEEEFGEEDF",
"GGGGGGGGGGGGDDDF",
"BBBBFDDDEEEEDDDF",
"BBBBFDEEDDDDEEDF",
"BBBBFEDDDDDDDDEF",
"BBBBFFFFFFFFFFFF",
};
