/* XPM */
static char *NewAddress[] =
{
/* width height ncolors chars_per_pixel */
"32 32 8 1",
/* colors */
"A c #FFFFFFFFCCCC",
"B c None",
"C c #FFFFCCCC9999",
"D c #FFFF66663333",
"E c #CCCC99996666",
"F c #666699999999",
"G c #333366666666",
"H c #000000000000",
/* pixels */
"BBBBBBBBBBBBBBBBBBBBBBBBBBBBBBBB",
"BBBBBBBBBBBBBBBBBBBBBBBBBBBBBBBB",
"BBBBBBBBBBBBBBBBBBBBBBBBBBBBBBBB",
"BBBBBBBBBBBBBBBBBBBBBBBBBBBBBBBB",
"BBBBBBBBBBBBBBBBBBBBBBBBBBBBBBBB",
"BBBBBBBBEEEEEEEEEEEEEEEEBBBBBBBB",
"BBBBBBBHEAAAAAAAAAAAAAAEEBBBBBBB",
"BBBBBBHBHAGGAGGAGAGGGAAEEBBBBBBB",
"BBBBBBHBEAAAAAAAAAAAAAAEEBBBBBBB",
"BBBBBBBHEAAGGGAAGAGAGGAEEBBBBBBB",
"BBBBBBHBHAAAAAAAAAAAAAAEEBBBBBBB",
"BBBBBBHBEACCCCCCCCCCCCCEEBBBBBBB",
"BBBBBBBHEAAAAAAAAAAAAAAEEDDBBBBB",
"BBBBBBHBHAAAAAAAAAAAAAAEFDDDBBBB",
"BBBBBBHBEAGGAGGAGAGGGAAEGGDDBBBB",
"BBBBBBBHEAAAAAAAAAAAAAAFGGGBBBBB",
"BBBBBBHBHAAGGGAAGAGAGGAGGGFBBBBB",
"BBBBBBHBEAAAAAAAAAAAAAFGGGBBBBBB",
"BBBBBBBHEACCCCCCCCCCCCGGGFBBBBBB",
"BBBBBBHBHAAAAAAAAAAAAEGGGBBBBBBB",
"BBBBBBHBEAAAAAAAAAAAAEEGFBBBBBBB",
"BBBBBBBHEAGGAGGAGAGGAHEEEBBBBBBB",
"BBBBBBHBHAAAAAAAAAAAAHHEEBBBBBBB",
"BBBBBBHBEAAGGGAAGAGAGHAEEBBBBBBB",
"BBBBBBBHEAAAAAAAAAAAAAAEEBBBBBBB",
"BBBBBBBBEEEEEEEEEEEEEEEEEBBBBBBB",
"BBBBBBBBBEEEEEEEEEEEEEEEEBBBBBBB",
"BBBBBBBBBBBBBBBBBBBBBBBBBBBBBBBB",
"BBBBBBBBBBBBBBBBBBBBBBBBBBBBBBBB",
"BBBBBBBBBBBBBBBBBBBBBBBBBBBBBBBB",
"BBBBBBBBBBBBBBBBBBBBBBBBBBBBBBBB",
"BBBBBBBBBBBBBBBBBBBBBBBBBBBBBBBB",
};
