/* XPM */
static char *NewAddressSmall[] =
{
/* width height ncolors chars_per_pixel */
"16 16 7 1",
/* colors */
"A c #FFFFFFFFCCCC",
"B c None",
"C c #FFFF66663333",
"D c #CCCC99996666",
"E c #666699999999",
"F c #333366666666",
"G c #000000000000",
/* pixels */
"BBDDDDDDDDDDDDDB",
"BBGGAAAAAAAAAADB",
"BGDAACCAFFFFAADB",
"BBGGAAAAAAAAACCB",
"BGDAACCAAAAAECCC",
"BBGGAAAAAAAAFFCC",
"BGDAAAAAAAAEFFFB",
"BBGGACCAFFAFFFEB",
"BGDAAAAAAAEFFFDB",
"BBGGACCAAAFFFEDB",
"BGDAAAAAADFFFADB",
"BBGGAAAAADDFEADB",
"BGDAACCAFGDDAADB",
"BBGGAAAAAGGAAADB",
"BGDAAAAAAGAAAADB",
"BBDDDDDDDDDDDDDB",
};
