/* XPM */
static char *NewMessage[] =
{
/* width height ncolors chars_per_pixel */
"32 32 8 1",
/* colors */
"A c None",
"B c #FFFF66663333",
"C c #CCCC99996666",
"D c #666699999999",
"E c #333366666666",
"F c #EEEEEEEEEEEE",
"G c #555555555555",
"H c #000000000000",
/* pixels */
"AAAAAAAAAAAAAAAAAAAAAAAAAAAAAAAA",
"AAAAAAAAAAAAAAAAAAAAAAAAAAAAAAAA",
"AAAAAAAAAAAAAAAAAAAAAAAAAAAAAAAA",
"AAAAAAGGGGGGGGGGGGGGGGGGAAAAAAAA",
"AAAAAAGFFFFFFFFFFFFFFFFGAAAAAAAA",
"AAAAAAGFHFHFFFFFFHHFHHFGAAAAAAAA",
"AAAAAAGFFFFFFFFFFFFFFFFGAAAAAAAA",
"AAAAAAGFFFFFFFFFFHHHFHFGAAAAAAAA",
"AAAAAAGFFFFFFFFFFFFFFFFGAAAAAAAA",
"AAAAAAGFHFHHFFFFFFFFFFFGAAAAAAAA",
"AAAAAAGFFFFFFFFFFFFFFFFGAAAAAAAA",
"AAAAAAGFHHFHHHHFHHFHFHFGAAAAAAAA",
"AAAAAAGFFFFFFFFFFFFFFFFGAAAAAAAA",
"AAAAAAGFHFHHHHFHHFHHHHFGAAAAAAAA",
"AAAAAAGFFFFFFFFFFFFFFFFGABBAAAAA",
"AAAAAAGFHHHFHHFHHHHFHHFGDBBBAAAA",
"AAAAAAGFFFFFFFFFFFFFFFFGEEBBAAAA",
"AAAAAAGFHHFHHHHFHHFHHHFDEEEAAAAA",
"AAAAAAGFFFFFFFFFFFFFFFFEEEDAAAAA",
"AAAAAAGFHHHHFHHHFHHHHFDEEEAAAAAA",
"AAAAAAGFFFFFFFFFFFFFFFEEEDAAAAAA",
"AAAAAAGFHFHHHHFHHFHHFCEEEAAAAAAA",
"AAAAAAGFFFFFFFFFFFFFFCCEDAAAAAAA",
"AAAAAAGFFFFFFFFFHHHHFHCCAAAAAAAA",
"AAAAAAGFFFFFFFFFFFFFFHHGAAAAAAAA",
"AAAAAAGFFFFFFFFFFHHHFHFGAAAAAAAA",
"AAAAAAGFFFFFFFFFFFFFFFFGAAAAAAAA",
"AAAAAAGGGGGGGGGGGGGGGGGGAAAAAAAA",
"AAAAAAAAAAAAAAAAAAAAAAAAAAAAAAAA",
"AAAAAAAAAAAAAAAAAAAAAAAAAAAAAAAA",
"AAAAAAAAAAAAAAAAAAAAAAAAAAAAAAAA",
"AAAAAAAAAAAAAAAAAAAAAAAAAAAAAAAA",
};
