/* XPM */
static char *NextMsg[] =
{
/* width height ncolors chars_per_pixel */
"32 32 7 1",
/* colors */
"A c None",
"B c #CCCCCCCCFFFF",
"C c #99999999FFFF",
"D c #66666666CCCC",
"E c #BBBBBBBBBBBB",
"F c #888888888888",
"G c #000000000000",
/* pixels */
"AAAAAAAAAAAAAAAAAAAAAAAAAAAAAAAA",
"AAAAAAAAAAAAAAAAAAAAAAAAAAAAAAAA",
"AAAAAAAAAAAAAAAAAAAAAAAAAAAAAAAA",
"AAAAAAAAAAAAAAAAAAAAAAAAAAAAAAAA",
"AAAAAAAAAAAAAAAAAAAAAAAAAAAAAAAA",
"AAAAAAAAAAAAAAAAAAAAAAAAAAAAAAAA",
"AAAAAAAAAAAAAGGAAAAAAAAAAAAAAAAA",
"AAAAAAAAAAAAAGBGAAAAAAAAAAAAAAAA",
"AAAAAAAAAAAAAGBBGAAAAAAAAAAAAAAA",
"AAAAAAAAAAAAAGBCBGAAAAAAAAAAAAAA",
"AAAAAAAAAAAAAGBCCBGAAAAAAAAAAAAA",
"AAAAAAAAAAAAAGBCCCBGAAAAAAAAAAAA",
"AAAAAAAAAAAAAGBCCCCBGAAAAAAAAAAA",
"AAAAAAAAAAAAAGBCCCCCBGAAAAAAAAAA",
"AAAAAAAAAAAAAGBCCCCCCBGAAAAAAAAA",
"AAAAAAAAAAAAAGBCCCCCCCBGAAAAAAAA",
"AAAAAAAAAAAAAGBCCCCCCCDGAAAAAAAA",
"AAAAAAAAAAAAAGBCCCCCCDGFAAAAAAAA",
"AAAAAAAAAAAAAGBCCCCCDGFEAAAAAAAA",
"AAAAAAAAAAAAAGBCCCCDGFEAAAAAAAAA",
"AAAAAAAAAAAAAGBCCCDGFEAAAAAAAAAA",
"AAAAAAAAAAAAAGBCCDGFEAAAAAAAAAAA",
"AAAAAAAAAAAAAGBCDGFEAAAAAAAAAAAA",
"AAAAAAAAAAAAAGBDGFEAAAAAAAAAAAAA",
"AAAAAAAAAAAAAGBGFEAAAAAAAAAAAAAA",
"AAAAAAAAAAAAAGGFEAAAAAAAAAAAAAAA",
"AAAAAAAAAAAAAAFEAAAAAAAAAAAAAAAA",
"AAAAAAAAAAAAAAAAAAAAAAAAAAAAAAAA",
"AAAAAAAAAAAAAAAAAAAAAAAAAAAAAAAA",
"AAAAAAAAAAAAAAAAAAAAAAAAAAAAAAAA",
"AAAAAAAAAAAAAAAAAAAAAAAAAAAAAAAA",
"AAAAAAAAAAAAAAAAAAAAAAAAAAAAAAAA",
};
