/* XPM */
static char *prefs_identities[] =
{
/* width height ncolors chars_per_pixel */
"16 16 5 1",
/* colors */
"A c None",
"B c #FFFFCCCC9999",
"C c #CCCC99996666",
"D c #888888888888",
"E c #000000000000",
/* pixels */
"AAAAAAAAAAAAAAAA",
"AAEEEEEEEAAAAAAA",
"AECCCCCCCEEEEEAA",
"AECCCCECCECBBBEA",
"AECCCCECCECEBBED",
"AECCCCCCCECEBBED",
"AECCCCCCCECBBBED",
"AECCCCCEEECBBBED",
"AECCCCCCECBBEEED",
"AECCCECCECBBBEDA",
"AECCCCEEECEBBEDA",
"AECCCCCCECBEEEDA",
"AAEEEEEECBBBBEDA",
"AAADDDDDEEEEEDAA",
"AAAAAAAAADDDDAAA",
"AAAAAAAAAAAAAAAA",
};
