/* XPM */
static char *prefs_display[] =
{
/* width height ncolors chars_per_pixel */
"16 16 12 1",
/* colors */
"A c #FFFFFFFFFFFF",
"B c #FFFFFFFFCCCC",
"C c None",
"D c #FFFF66663333",
"E c #CCCC99996666",
"F c #99999999FFFF",
"G c #00000000DDDD",
"H c #888888888888",
"I c #777777777777",
"J c #555555555555",
"K c #444444444444",
"L c #222222222222",
/* pixels */
"CCCCCCCCCCCCCCCC",
"CCCCCCCCCCCCCCCC",
"CCCHHHHHHHHHHCCC",
"CCIJLLLLLLLLJICC",
"CCILBDBHHBGBLICC",
"CCILFFFFFFFFLICC",
"CCILFFFFFFAFLICC",
"CCILFFFFFFFFLICC",
"CCILFFFFFFLFLICC",
"CCILFFFFFFFFLICC",
"CCIJLLLLLLLLJICC",
"CCCIEEIEEIEIICCC",
"CCCCCCKKKKCCCCCC",
"CCCCCHHHHHHCCCCC",
"CCCCCCCCCCCCCCCC",
"CCCCCCCCCCCCCCCC",
};
