/* XPM */
static char *prefs_accounts[] =
{
/* width height ncolors chars_per_pixel */
"16 16 13 1",
/* colors */
"A c None",
"B c #CCCCCCCCFFFF",
"C c #CCCCCCCCCCCC",
"D c #99999999FFFF",
"E c #66666666CCCC",
"F c #333399996666",
"G c #333366666666",
"H c #333333336666",
"I c #0000BBBB0000",
"J c #888888888888",
"K c #777777777777",
"L c #444444444444",
"M c #000000000000",
/* pixels */
"AAAAAAAAAAAAAAAA",
"AAAAAAAAAAAAAAAA",
"AAAAAKLMLKAAAAAA",
"AAAAMBIBBDMAAAAA",
"AAAKGIBFBGGKAAAA",
"AAALGIFFDGGLAAAA",
"AAAMGIFFDIGMAAAA",
"AAALBBFDDGGLAAAA",
"AAAKDBGGEEHKAAAA",
"AAAAMDGGHHMAAAAA",
"AAAAAKLMLKAAAAAA",
"AAAAAAAMAAAAAAAA",
"AAAAAAMCMAAAAAAA",
"AAAJJLMMLLJJAAAA",
"AAAAAAAAAAAAAAAA",
"AAAAAAAAAAAAAAAA",
};
