/* XPM */
static char *prefs_fonts[] =
{
/* width height ncolors chars_per_pixel */
"16 16 6 1",
/* colors */
"A c None",
"B c #FFFF66663333",
"C c #99999999FFFF",
"D c #66666666CCCC",
"E c #333399996666",
"F c #333300009999",
/* pixels */
"AAAAAAAAAAAAAAAA",
"AAAAAAAAAAAAAAAA",
"AAAACFCABBBBBAAA",
"AAAADFDAABAAABAA",
"AAAAFFFCABAAABAA",
"AAACFAFDABBBBAAA",
"AAADFACFCBAAABAA",
"AAAFFAAFDBAAABAA",
"AACFFFFFFBAAABAA",
"AADFAAAAFFBBBAAA",
"AAFFAAEEEFAAAAAA",
"AFFFFEFFEFFAAAAA",
"AAAAAEAAAAAAAAAA",
"AAAAAEAAAAAAAAAA",
"AAAAAEAAEAAAAAAA",
"AAAAAAEEAAAAAAAA",
};
