/* XPM */
static char *prefs_mailbox[] =
{
/* width height ncolors chars_per_pixel */
"16 16 5 1",
/* colors */
"A c None",
"B c #FFFFCCCC9999",
"C c #CCCC99996666",
"D c #444444444444",
"E c #000000000000",
/* pixels */
"AAAAAAAAAAAAAAAA",
"AAAAAAAAAAAAAAAA",
"AAAAAAAAAAAAAAAA",
"AAAAEEEEEEEEEEEE",
"AAAEEBBBBBBBBBEE",
"AAECEBCBCBCBCECE",
"AECDECCCCCCCECCE",
"EEEEEEEEEEEECCCE",
"EBBBBBBBBBBECCCE",
"EBBBEBBEBBBECCEA",
"EBBBEEEEBBBECEAA",
"EBBBBBBBBBBEEAAA",
"EEEEEEEEEEEEAAAA",
"AAAAAAAAAAAAAAAA",
"AAAAAAAAAAAAAAAA",
"AAAAAAAAAAAAAAAA",
};
