/* XPM */
static char *prefs_alerts[] =
{
/* width height ncolors chars_per_pixel */
"16 16 6 1",
/* colors */
"A c None",
"B c #CCCCCCCCFFFF",
"C c #99999999FFFF",
"D c #66666666CCCC",
"E c #333333336666",
"F c #000000000000",
/* pixels */
"AAAAAAAAAAAAAAAA",
"AAAAAAAAAAAAAAAA",
"AAAAAAAAAAAAAAAA",
"AAAAAAAFAAAFAAAA",
"AAAAAAFFAAAAFAAA",
"AAAAAFCFAAFAAFAA",
"AAFFFCBFAAAFAFAA",
"AAFBBBCFAFAFAFAA",
"AAFDDCCFAFAFAFAA",
"AAFFFECFAAAFAFAA",
"AAAAAFEFAAFAAFAA",
"AAAAAAFFAAAAFAAA",
"AAAAAAAFAAAFAAAA",
"AAAAAAAAAAAAAAAA",
"AAAAAAAAAAAAAAAA",
"AAAAAAAAAAAAAAAA",
};
