/* XPM */
static char *prefs_addresses[] =
{
/* width height ncolors chars_per_pixel */
"16 16 5 1",
/* colors */
"A c #FFFFFFFFCCCC",
"B c None",
"C c #CCCC99996666",
"D c #333366666666",
"E c #000000000000",
/* pixels */
"BBBBBBBBBBBBBBBB",
"BBCCCCCCCCCCCCCB",
"BBEEAAAAAAAAAACB",
"BECAADDADDDDAACB",
"BBEEAAAAAAAAAACB",
"BECAADDAADDDAACB",
"BBEEAAAAAAAAAACB",
"BECAAAAAAAAAAACB",
"BBEEADDAADDDAACB",
"BECAAAAAAAAAAACB",
"BBEEAAAAAACCCCCB",
"BECAADDADDCCCACB",
"BBEEAAAAAACCAACB",
"BECAAAAAAACAAACB",
"BBCCCCCCCCCCCCCB",
"BBBBBBBBBBBBBBBB",
};
