/* XPM */
static char *prefs_message[] =
{
/* width height ncolors chars_per_pixel */
"16 16 6 1",
/* colors */
"A c None",
"B c #FFFFCCCC9999",
"C c #99999999FFFF",
"D c #66666666CCCC",
"E c #333333336666",
"F c #000000000000",
/* pixels */
"AAAAAAAAAAAAAAAA",
"AAAAAAAAAAAAAAAA",
"AAAAAAAEEAAAAAAA",
"AAAAAAECCEAAAAAA",
"AAABBBBBBBBBBAAA",
"AAABFFFBFBFFBAAA",
"AAEBBBBBBBBBBEAA",
"AAEDBFFBFFFBDEAA",
"AAECDDBBBBDDCEAA",
"AAECCCDFFDCCCEAA",
"AAECCCDDDDCCCEAA",
"AAECDDCCCCDDCEAA",
"AAEDCCCCCCCCDEAA",
"AAEEEEEEEEEEEEAA",
"AAAAAAAAAAAAAAAA",
"AAAAAAAAAAAAAAAA",
};
