/* XPM */
static char *PreviewMailbox[] =
{
/* width height ncolors chars_per_pixel */
"16 16 6 1",
/* colors */
"A c None",
"B c #FFFFCCCC9999",
"C c #CCCC99996666",
"D c #DDDD00000000",
"E c #EEEEEEEEEEEE",
"F c #000000000000",
/* pixels */
"AAAAAAAAAAAAAAAA",
"AAAAFFFFFFFFFFFA",
"AAAAFEEEEEEEEEFA",
"AAAFFFFFFFFFFFFA",
"AAAFEEEEEEEEEEFA",
"AFFFFFFFFFFFFEFA",
"AFEEEEEEEEEEFEFA",
"AFEEEEEEEDDEFEFF",
"AFEFEFFFEDDEFFCF",
"AFEEEEEEEEEEFCCF",
"FFFFFFFFFFFFCCCF",
"FBBBBBBBBBBFCCCF",
"FBBBFBBFBBBFCCFA",
"FBBBFFFFBBBFCFAA",
"FBBBBBBBBBBFFAAA",
"FFFFFFFFFFFFAAAA",
};
