/* XPM */
static char *PrintSmall[] =
{
/* width height ncolors chars_per_pixel */
"16 16 17 1",
/* colors */
"A c #FFFFFFFFFFFF",
"B c None",
"C c #CCCCCCCCCCCC",
"D c #999999999999",
"E c #666666666666",
"F c #333333333333",
"G c #000000001111",
"H c #EEEEEEEEEEEE",
"I c #DDDDDDDDDDDD",
"J c #BBBBBBBBBBBB",
"K c #AAAAAAAAAAAA",
"L c #888888888888",
"M c #777777777777",
"N c #555555555555",
"O c #444444444444",
"P c #222222222222",
"Q c #111111111111",
/* pixels */
"BBBPMMMMMMMMOBBB",
"BBBFHHHHIHHANBBB",
"BBBEHIIIHIIAMBBB",
"BBBOAIIHIHIAMBBB",
"BQQNHAAHAAAHMGQB",
"PEMNQPPPFPPQOMMF",
"OCALOMLLMLMNMAHO",
"FEENFOOONNNONMMO",
"FONNNNNNNENEEEEO",
"FNEFQPPPPQPQPELE",
"FNOFPPPPPPPQPMMO",
"FMEMICCCCCCHDELO",
"OLMKAAAAAAAACNMO",
"BPQKAIIHHHHAIPQB",
"BBBJAAAAAAAACBBB",
"BBBOEENENENENBBB",
};
