/* XPM */
static char *ReadWrite[] =
{
/* width height ncolors chars_per_pixel */
"16 16 6 1",
/* colors */
"A c None",
"B c #FFFF66663333",
"C c #CCCC99996666",
"D c #666699999999",
"E c #333366666666",
"F c #000000000000",
/* pixels */
"AAAAAAAAAAAAAAAA",
"AAAAAAAAAAAAAAAA",
"AAAAAAAAABBAAAAA",
"AAAAAAAADBBBAAAA",
"AAAAAAAAEEBBAAAA",
"AAAAAAADEEEAAAAA",
"AAAAAAAEEEDAAAAA",
"AAAAAADEEEAAAAAA",
"AAAAAAEEEDAAAAAA",
"AAAAACEEEAAAAAAA",
"AAAAACCEDAAAAAAA",
"AAAAAFCCAAAAAAAA",
"AAAAAFFAAAAAAAAA",
"AAAAAFAAAAAAAAAA",
"AAAAAAAAAAAAAAAA",
"AAAAAAAAAAAAAAAA",
};
