/* XPM */
static char *ReadOnly[] =
{
/* width height ncolors chars_per_pixel */
"16 16 7 1",
/* colors */
"A c None",
"B c #FFFF66663333",
"C c #CCCC99996666",
"D c #666699999999",
"E c #333366666666",
"F c #DDDD00000000",
"G c #000000000000",
/* pixels */
"AAAAAAAAAAAAAAAA",
"AAAAAAAAAAAAAAAA",
"AAAFAAAAABBAAAAA",
"AAAFFAAADBBBAAAA",
"AAAFFFAAEEBBAAAA",
"AAAAFFFDEEEAAAAA",
"AAAAAFFFEEDAAAAA",
"AAAAAAFFFEAAAAAA",
"AAAAAAEFFFAAAAAA",
"AAAAACEEFFFAAAAA",
"AAAAACCEDFFFAAAA",
"AAAAAGCCAAFFFAAA",
"AAAAAGGAAAAFFAAA",
"AAAAAGAAAAAAFAAA",
"AAAAAAAAAAAAAAAA",
"AAAAAAAAAAAAAAAA",
};
