/* XPM */
static char *Receipt[] =
{
/* width height ncolors chars_per_pixel */
"32 32 17 1",
/* colors */
"A c #FFFFFFFFFFFF",
"B c None",
"C c #FFFFFFFF9999",
"D c #FFFFCCCC9999",
"E c #FFFF66663333",
"F c #CCCC99996666",
"G c #999999996666",
"H c #999966660000",
"I c #666699999999",
"J c #333366666666",
"K c #00006666FFFF",
"L c #EEEEEEEEEEEE",
"M c #BBBBBBBBBBBB",
"N c #AAAAAAAAAAAA",
"O c #888888888888",
"P c #777777777777",
"Q c #000000000000",
/* pixels */
"BBBBBBBBBBBBBBBBBBBBBBBBBBBBBBBB",
"BBBBBBBBBBBBBBNNNBBBBBBBBBBBBBBB",
"BBBBBBBBBBBBBNNANNBBBBBDBBBBBBBB",
"BBBBBBBBBNNNNNNNNNNNNNEEDBBBBBBB",
"BBBBBBBBMMMMMMMMMMMMMIJEBBBBBBBB",
"BBBBBHHHNNNNNNNNNNNNNJJIHHBBBBBB",
"BBBBBHFCOOOOOOOOOOOOIJJCFHBBBBBB",
"BBBBBHFCCCCCCCCCCCCCJJICFHBBBBBB",
"BBBBBHFCCCCCCCCCCCCFFJCCFHBBBBBB",
"BBBBBHFCMPMCCCMOOMCQFCCCFHBBBBBB",
"BBBBBHFCMMPMCMNMMCCQCCCCFHBBBBBB",
"BBBBBHFCCCCCCCCCCCCCCCCCFHBBBBBB",
"BBBBBHFCGGGGGGGGGGGGGGGCFHBBBBBB",
"BBBBBHFCCCCCCCCCCCCCCCCCFHBBBBBB",
"BBBBBHFCCCCCCCCCCCCCCCCCFHBBBBBB",
"BBBBBHFFFFFFFFFFFFFFFFFFFHBBBBBB",
"BBBBBHFFFFFFFFFFFFFFFFFFFHBBBBBB",
"BBBBBHFFFFFFFFFFFFFFFFFFFHBBBBBB",
"BBBBBHFFFFFFFFFFFFFFFFFFFHBBBBBB",
"BBBBBHFAAAAAAAAAAAAAAAKKFHBBBBBB",
"BBBBBHFALLLLLLLLLLLLLLKKFHBBBBBB",
"BBBBBHFALMPMLLLMOOMLLLLLFHBBBBBB",
"BBBBBHFAAMMPMLMNMMLLLLLLFHBBBBBB",
"BBBBBHFAALLLLLLLLLLLLLLLFHBBBBBB",
"BBBBBHFAAMNMOMLMNMLOMLLLFHBBBBBB",
"BBBBBHFALMMMMLMNMOMMLLLLFHBBBBBB",
"BBBBBHFALLLLLLLLLLLLLLLLFHBBBBBB",
"BBBBBHFALLLLLLLLLLLLLLLLFHBBBBBB",
"BBBBBHFFFFFFFFFFFFFFFFFFFHBBBBBB",
"BBBBBHHHHHHHHHHHHHHHHHHHHHBBBBBB",
"BBBBBBBBBBBBBBBBBBBBBBBBBBBBBBBB",
"BBBBBBBBBBBBBBBBBBBBBBBBBBBBBBBB",
};
