/* XPM */
static char *RulesNewScriptBtn[] =
{
/* width height ncolors chars_per_pixel */
"32 32 10 1",
/* colors */
"A c #FFFFFFFFFFFF",
"B c None",
"C c #E7E7E7E7E7E7",
"D c #D6D6D6D6FFFF",
"E c #CECECECEFFFF",
"F c #B5B5B5B5B5B5",
"G c #ADADADADB5B5",
"H c #ADADADADADAD",
"I c #8C8C8C8C8C8C",
"J c #000000000000",
/* pixels */
"BBBBBBBBBBBBBBBBBBBBBBBBBBBBBBBB",
"BBBBBBBBBBBBBBBBBBBBBBBBBBBBBBBB",
"BBBBBBBBBBBBBBBBBBBBBBBBBBBBBBBB",
"BBBBBBBBBBBBBBBBBBBBBBBBBBBBBBBB",
"BBBBBBBBBBBBBBBBBBBBBBBBBBBBBBBB",
"BBBBBBBBBBBBBBBBBBBBBBBBBBBBBBBB",
"BBBBBBBBBBBBCJJJCBBBBBBBBBBBBBBB",
"BBBBBBBBBBBCJAADJBBBBBBBBBBBBBBB",
"BBBBBBBBBBCJAADIJBBBBBBBBBBBBBBB",
"BBBBBBBBBCJAADIJCBBBBBBBBBBBBBBB",
"BBBBBBBBCJAADIJIJCBBBBBBBBBBBBBB",
"BBBBBBBCJAADIJIIEJCBBBBBBBBBBBBB",
"BBBBBBBJJJDIJIIEJDJCBBBBBBBBBBBB",
"BBBBBBBJIIJJIIDJECEJCBBBBBBBBBBB",
"BBBBBBBJIDJEIEDDCEJDJCBBBBBBBBBB",
"BBBBBBBBJAECDJECEDECEJBBBBBBBBBB",
"BBBBBBBBBJADJECEJECEJJBBBBBBBBBB",
"BBBBBBBBBBJAECEJDCEJFJBBBBBBBBBB",
"BBBBBBBBBBBJADJECEJHJJJBBBBBBBBB",
"BBBBBBBBBBBBJAECDEFJJJJBBBBBBBBB",
"BBBBBBBBBBBBBJADJGJBJJJBBBBBBBBB",
"BBBBBBBBBBBBJJJEGJBBJJJBBBBBBBBB",
"BBBBBBBBBBBJIFJGJJJJJJJJJJJBBBBB",
"BBBBBBBBBBBJFEJJJJJJJJJJJJJBBBBB",
"BBBBBBBBBBBBJJJBJJJJJJJJJJJBBBBB",
"BBBBBBBBBBBBBBBBBBBBJJJBBBBBBBBB",
"BBBBBBBBBBBBBBBBBBBBJJJBBBBBBBBB",
"BBBBBBBBBBBBBBBBBBBBJJJBBBBBBBBB",
"BBBBBBBBBBBBBBBBBBBBJJJBBBBBBBBB",
"BBBBBBBBBBBBBBBBBBBBBBBBBBBBBBBB",
"BBBBBBBBBBBBBBBBBBBBBBBBBBBBBBBB",
"BBBBBBBBBBBBBBBBBBBBBBBBBBBBBBBB",
};
