/* XPM */
static char *RulesNewBtn[] =
{
/* width height ncolors chars_per_pixel */
"32 32 4 1",
/* colors */
"A c None",
"B c #FFFFFFFFCCCC",
"C c #CCCC99996666",
"D c #000000000000",
/* pixels */
"AAAAAAAAAAAAAAAAAAAAAAAAAAAAAAAA",
"AAAAAAAAAAAAAAAAAAAAAAAAAAAAAAAA",
"AAAAAAAAAAAAAAAAAAAAAAAAAAAAAAAA",
"AAAAAAAAAAAAAAAAAAAAAAAAAAAAAAAA",
"AAAAAAAAAAAAAAAAAAAAAAAAAAAAAAAA",
"AAAAAAAACCCCCCCCCCCCCCCCAAAAAAAA",
"AAAAAAAACBBBBBBBBBBBBBBCAAAAAAAA",
"AAAAAAAACBBDBBBBBBBDBBBCAAAAAAAA",
"AAAAAAAACBDBBBBBBBBBDBBCAAAAAAAA",
"AAAAAAAACBDBBBBBBBBBDBBCAAAAAAAA",
"AAAAAAAACDBBBBBBBBBBBDBCAAAAAAAA",
"AAAAAAAACBDBBBBBBBBBDBBCAAAAAAAA",
"AAAAAAAACBDBBDBDBDBBDBBCAAAAAAAA",
"AAAAAAAACBBDBBBBBBBDBBBCAAAAAAAA",
"AAAAAAAACBBBBBBBBBBBBBBCAAAAAAAA",
"AAAAAAAACBBBBBBBBBBBBBBCAAAAAAAA",
"AAAAAAAACBBDBBBBBBBDBBBCAAAAAAAA",
"AAAAAAAACBDBBBBBBBBBDBBCAAAAAAAA",
"AAAAAAAACBDBBBBBBBBBDDDCAAAAAAAA",
"AAAAAAAACDBBBBBBBBBBDDDCAAAAAAAA",
"AAAAAAAACBDBBBBBBBBBDDDCAAAAAAAA",
"AAAAAAAACBDBBDBDBDBBDDDCAAAAAAAA",
"AAAAAAAACBBDBBBBDDDDDDDDDDDAAAAA",
"AAAAAAAACBBBBBBBDDDDDDDDDDDAAAAA",
"AAAAAAAACBBBBBBBDDDDDDDDDDDAAAAA",
"AAAAAAAACCCCCCCCCCCCDDDCAAAAAAAA",
"AAAAAAAAAAAAAAAAAAAADDDAAAAAAAAA",
"AAAAAAAAAAAAAAAAAAAADDDAAAAAAAAA",
"AAAAAAAAAAAAAAAAAAAADDDAAAAAAAAA",
"AAAAAAAAAAAAAAAAAAAAAAAAAAAAAAAA",
"AAAAAAAAAAAAAAAAAAAAAAAAAAAAAAAA",
"AAAAAAAAAAAAAAAAAAAAAAAAAAAAAAAA",
};
