/* XPM */
static char *RulesApplyBtn[] =
{
/* width height ncolors chars_per_pixel */
"32 32 5 1",
/* colors */
"A c None",
"B c #FFFFCCCC9999",
"C c #CCCC99996666",
"D c #EEEEEEEEEEEE",
"E c #000000000000",
/* pixels */
"AAAAAAAAAAAAAAAAAAAAAAAAAAAAAAAA",
"AAAAAAAAAAAAAAAAAAAAAAAAAAAAAAAA",
"AAAAAAAAAAAAAAAAAAAAAAAAAAAAAAAA",
"AAAAAAAAAAAAAAAAAAAAAAAAAAAAAAAA",
"AAAAAAAAAAAAAAAAAAAAAAAAAAAAAAAA",
"AAAAAAAAAAAAAAAAAAAEEEEEEEEEAAAA",
"AAAAAAAAAAAAAEEEAAEEBBBBBECEAAAA",
"AAAAAAAAAAAAAAEEAEEEEEEEECCEAAAA",
"AAAAAAAAAAAAAEAEAEBBBBBBECCEAAAA",
"AAAAAAAAAAAAEAAAAEBEBBEBECCEAAAA",
"AAAAAAAAAAAAAAAAAEBEEEEBECEAAAAA",
"AAAAAAEEEEEEEEAAAEBBBBBBEEAAAAAA",
"AAAAAAEDDDDDDEAAAEEEEEEEEAAAAAAA",
"AAAAAEEEEEEEEEAAAAAAAAAAAAAAAAAA",
"AAAAAEDDDDDDEEEAEAAAAAAAAAAAAAAA",
"AAAAAEDEDEDDECEAAEAEAAAAAAAAAAAA",
"AAAAEEEEEEEECCEAAAEEAAAAAAAAAAAA",
"AAAAEBBBBBBECCEAAEEEAAAAAAAAAAAA",
"AAAAEBEBBEBECCEAAAAAAAAAAAAAAAAA",
"AAAAEBEEEEBECEAAAAAEEEEEEEEEAAAA",
"AAAAEBBBBBBEEAAAAAEEBBBBBECEAAAA",
"AAAAEEEEEEEEAAAAAEEEEEEEECCEAAAA",
"AAAAAAAAAAAAAAAAAEBBBBBBECCEAAAA",
"AAAAAAAAAAAAAAAAAEBEBBEBECCEAAAA",
"AAAAAAAAAAAAAAAAAEBEEEEBECEAAAAA",
"AAAAAAAAAAAAAAAAAEBBBBBBEEAAAAAA",
"AAAAAAAAAAAAAAAAAEEEEEEEEAAAAAAA",
"AAAAAAAAAAAAAAAAAAAAAAAAAAAAAAAA",
"AAAAAAAAAAAAAAAAAAAAAAAAAAAAAAAA",
"AAAAAAAAAAAAAAAAAAAAAAAAAAAAAAAA",
"AAAAAAAAAAAAAAAAAAAAAAAAAAAAAAAA",
"AAAAAAAAAAAAAAAAAAAAAAAAAAAAAAAA",
};
