/* XPM */
static char *RulesTitleIncoming[] =
{
/* width height ncolors chars_per_pixel */
"16 16 5 1",
/* colors */
"A c None",
"B c #FFFFCCCC9999",
"C c #CCCC99996666",
"D c #EEEEEEEEEEEE",
"E c #000000000000",
/* pixels */
"AAAAAAAAAAAAAAAA",
"AAAAAAAAAAAAAAAA",
"AAAAAEEEEEEEEAAA",
"AAAAAEDDDDDDEAAA",
"AAAAEEEEEEEEEAAA",
"AAAAEDDDDDDEEEAA",
"AAAAEDEDEDDECEAA",
"AAAEEEEEEEECCEAA",
"AAAEBBBBBBECCEAA",
"AAAEBEBBEBECCEAA",
"AAAEBEEEEBECEAAA",
"AAAEBBBBBBEEAAAA",
"AAAEEEEEEEEAAAAA",
"AAAAAAAAAAAAAAAA",
"AAAAAAAAAAAAAAAA",
"AAAAAAAAAAAAAAAA",
};
