/* XPM */
static char *RulesNewTargetBtn[] =
{
/* width height ncolors chars_per_pixel */
"32 32 6 1",
/* colors */
"A c None",
"B c #FFFFFFFFCCCC",
"C c #FFFFCCCC9999",
"D c #CCCC99996666",
"E c #EEEEEEEEEEEE",
"F c #000000000000",
/* pixels */
"AAAAAAAAAAAAAAAAAAAAAAAAAAAAAAAA",
"AAAAAAAAAAAAAAAAAAAAAAAAAAAAAAAA",
"AAAAAAAAAAAAAAAAAAAAAAAAAAAAAAAA",
"AAAAAAAAAAAAAAAAAAAAAAAAAAAAAAAA",
"AAAAAAAAAAAAAAAAAAAAAAAAAAAAAAAA",
"AAAAAAAADDDDDDDDDDDDDDDDAAAAAAAA",
"AAAAAAAADBBBBBBBBBBBBBBDAAAAAAAA",
"AAAAAAAADBBBBBBBBBBBBBBDAAAAAAAA",
"AAAAAAAADBBBBBBBBBBBBBBDAAAAAAAA",
"AAAAAAAADBBBBBBBBBBBBBBDAAAAAAAA",
"AAAAAAAADBBBBFFFFFFFFBBDAAAAAAAA",
"AAAAAAAADBBBBFEEEEEEFBBDAAAAAAAA",
"AAAAAAAADBBBFFFFFFFFFBBDAAAAAAAA",
"AAAAAAAADBBBFEEEEEEFFFBDAAAAAAAA",
"AAAAAAAADBBBFEFEFEEFDFBDAAAAAAAA",
"AAAAAAAADBBFFFFFFFFDDFBDAAAAAAAA",
"AAAAAAAADBBFCCCCCCFDDFBDAAAAAAAA",
"AAAAAAAADBBFCFCCFCFDDFBDAAAAAAAA",
"AAAAAAAADBBFCFFFFCFDFFFDAAAAAAAA",
"AAAAAAAADBBFCCCCCCFFFFFDAAAAAAAA",
"AAAAAAAADBBFFFFFFFFBFFFDAAAAAAAA",
"AAAAAAAADBBBBBBBBBBBFFFDAAAAAAAA",
"AAAAAAAADBBBBBBBFFFFFFFFFFFAAAAA",
"AAAAAAAADBBBBBBBFFFFFFFFFFFAAAAA",
"AAAAAAAADBBBBBBBFFFFFFFFFFFAAAAA",
"AAAAAAAADDDDDDDDDDDDFFFDAAAAAAAA",
"AAAAAAAAAAAAAAAAAAAAFFFAAAAAAAAA",
"AAAAAAAAAAAAAAAAAAAAFFFAAAAAAAAA",
"AAAAAAAAAAAAAAAAAAAAFFFAAAAAAAAA",
"AAAAAAAAAAAAAAAAAAAAAAAAAAAAAAAA",
"AAAAAAAAAAAAAAAAAAAAAAAAAAAAAAAA",
"AAAAAAAAAAAAAAAAAAAAAAAAAAAAAAAA",
};
