/* XPM */
static char *RulesDeleteBtn[] =
{
/* width height ncolors chars_per_pixel */
"32 32 13 1",
/* colors */
"A c #FFFFFFFFFFFF",
"B c #FFFFFFFFCCCC",
"C c None",
"D c #CCCCCCCCCCCC",
"E c #CCCC99996666",
"F c #DDDDDDDDDDDD",
"G c #BBBBBBBBBBBB",
"H c #AAAAAAAAAAAA",
"I c #888888888888",
"J c #777777777777",
"K c #555555555555",
"L c #444444444444",
"M c #000000000000",
/* pixels */
"CCCCCCCCCCCCCCCCCCCCCCCCCCCCCCCC",
"CCCCCCCCCCCCCCCCCCCCCCCCCCCCCCCC",
"CCCCCCCCCCCCCCCCCCCCCCCCCCCCCCCC",
"CCCCCCCCCCCCCCCCCCCCCCCCCCCCCCCC",
"CCCCCCCCCCCCCCCCCCCCCCCCCCCCCCCC",
"CCCCCCCCEEEEEEEEEEEEEEECCCCCCCCC",
"CCCCCCCCEBBBBBBBBBBBBBECCCCCCCCC",
"CCCCCCCCEBBMBBBBBBBMBBECCCCCCCCC",
"CCCCCCCCEBMBBBBBBBBBMBECCCCCCCCC",
"CCCCCCCCEBMBBBBBBBBBMBECCCCCCCCC",
"CCCCCCCCEMBBBBBBBBBBBMECCCCCCCCC",
"CCCCCCCCEBMBBBBBBBBBMBECCCCCCCCC",
"CCCCCCCCEBMBBMBMBMBBMBECCCCCCCCC",
"CCCCCCMMMMMMMMMMMMMMMMMMMCCCCCCC",
"CCCCCCMDDDDFGGHHIIJJKKKKMCCCCCCC",
"CCCCCCMAIDDDKGHDKIJDLKKIMCCCCCCC",
"CCCCCCMAIDDDKGHDKIJDLKKIMCCCCCCC",
"CCCCCCMAIDDDKGHDKIJDLKKIMCCCCCCC",
"CCCCCCMAIDDDKGHDKIJDLKKIMCCCCCCC",
"CCCCCCMAIDDDKGHDKIJDLKKIMCCCCCCC",
"CCCCCCMAIDDDKGHDKIJDLKKIMCCCCCCC",
"CCCCCCMAIDDDKGHDKIJDLKKIMCCCCCCC",
"CCCCCCMAIDDDKGHDKIJDLKKIMCCCCCCC",
"CCCCCCMAIDDDKGHDKIJDLKKIMCCCCCCC",
"CCCCCCMAIDDDKGHDKIJDLKKIMCCCCCCC",
"CCCCCCMDDDDFGGHHIIJJKKKKMCCCCCCC",
"CCCCCCMMMMMMMMMMMMMMMMMMMCCCCCCC",
"CCCCCCCMMMMMMMMMMMMMMMMMCCCCCCCC",
"CCCCCCCCCCCCCCCCCCCCCCCCCCCCCCCC",
"CCCCCCCCCCCCCCCCCCCCCCCCCCCCCCCC",
"CCCCCCCCCCCCCCCCCCCCCCCCCCCCCCCC",
"CCCCCCCCCCCCCCCCCCCCCCCCCCCCCCCC",
};
