/* XPM */
static char *RulesGenerateBtn[] =
{
/* width height ncolors chars_per_pixel */
"32 32 11 1",
/* colors */
"A c #FFFFFFFFFFFF",
"B c None",
"C c #FFFF66663333",
"D c #CCCCCCCCFFFF",
"E c #CCCC99996666",
"F c #666699999999",
"G c #333366666666",
"H c #DDDDDDDDDDDD",
"I c #AAAAAAAAAAAA",
"J c #888888888888",
"K c #000000000000",
/* pixels */
"BBBBBBBBBBBBBBBBBBBBBBBBBBBBBBBB",
"BBBBBBBBBBBBBBBBBBBBBBBBBBBBBBBB",
"BBBBBBBBBBBBBBBBBBBBBBBBBBBBBBBB",
"BBBBBBBBBBBBBBBBBBBBBBBBBBBBBBBB",
"BBBBBBBBBBBBBBBBBBBBBBBBBBBBBBBB",
"BBBBBBBBBBBBBBBBBBBBBBBBBBBBBBBB",
"BBBBBBBBBBBBHKKKHBBBBBBBBBBBBBBB",
"BBBBBBBBBBBHKAADKBBBCCBBBBBBBBBB",
"BBBBBBBBBBHKAADJKBBFCCCBBBBBBBBB",
"BBBBBBBBBHKAADJKHBBGGCCBBBBBBBBB",
"BBBBBBBBHKAADJKJKHFGGGBBBBBBBBBB",
"BBBBBBBHKAADJKJJDKGGGFBBBBBBBBBB",
"BBBBBBBKKKDJKJJDKFGGGBBBBBBBBBBB",
"BBBBBBBKJJKKJJDKKGGGFBBBBBBBBBBB",
"BBBBBBBKJDKDJDKDEGGGKHBBBBBBBBBB",
"BBBBBBBBKADHDHDHEEGFDKBBBBBBBBBB",
"BBBBBBBBBKADKKHDKEEDDKBBBBBBBBBB",
"BBBBBBBBBBKADHDKKKDDIKBBBBBBBBBB",
"BBBBBBBBBBBKADKDKDDIKBBBBBBBBBBB",
"BBBBBBBBBBBBKADHDDIKBBBBBBBBBBBB",
"BBBBBBBBBBBBBKADDIKBBBBBBBBBBBBB",
"BBBBBBBBBBBBKKKDIKBBBBBBBBBBBBBB",
"BBBBBBBBBBBKJIKIKBBBBBBBBBBBBBBB",
"BBBBBBBBBBBKIDKKBBBBBBBBBBBBBBBB",
"BBBBBBBBBBBBKKKBBBBBBBBBBBBBBBBB",
"BBBBBBBBBBBBBBBBBBBBBBBBBBBBBBBB",
"BBBBBBBBBBBBBBBBBBBBBBBBBBBBBBBB",
"BBBBBBBBBBBBBBBBBBBBBBBBBBBBBBBB",
"BBBBBBBBBBBBBBBBBBBBBBBBBBBBBBBB",
"BBBBBBBBBBBBBBBBBBBBBBBBBBBBBBBB",
"BBBBBBBBBBBBBBBBBBBBBBBBBBBBBBBB",
"BBBBBBBBBBBBBBBBBBBBBBBBBBBBBBBB",
};
