/* XPM */
static char *ScrollbarLeft[] =
{
/* width height ncolors chars_per_pixel */
"16 16 2 1",
/* colors */
"A c #000000000000",
"B c None",
/* pixels */
"BBBBBBBBBBBBBBBB",
"BBBBBBBBBBBBBBBB",
"BBBBBBBBBBBBBBBB",
"BBBBBBBBBBBBBBBB",
"BBBBBBBBBABBBBBB",
"BBBBBBBBAABBBBBB",
"BBBBBBBAAABBBBBB",
"BBBBBBAAAABBBBBB",
"BBBBBBBAAABBBBBB",
"BBBBBBBBAABBBBBB",
"BBBBBBBBBABBBBBB",
"BBBBBBBBBBBBBBBB",
"BBBBBBBBBBBBBBBB",
"BBBBBBBBBBBBBBBB",
"BBBBBBBBBBBBBBBB",
"BBBBBBBBBBBBBBBB",
};
