/* XPM */
static char *SearchAddress[] =
{
/* width height ncolors chars_per_pixel */
"32 32 14 1",
/* colors */
"A c #FFFFFFFFFFFF",
"B c #FFFFFFFFCCCC",
"C c None",
"D c #FFFFCCCC9999",
"E c #CCCC99996666",
"F c #333366666666",
"G c #DDDDDDDDDDDD",
"H c #BBBBBBBBBBBB",
"I c #AAAAAAAAAAAA",
"J c #888888888888",
"K c #777777777777",
"L c #555555555555",
"M c #444444444444",
"N c #000000000000",
/* pixels */
"CCCCCCCCCCCCCCCCCCCCCCCCCCCCCCCC",
"CCCCCCCCCCCCCCCCCCCCCCCCCCCCCCCC",
"CCCCCCCCCCCCCCCCCCCCCCCCCCCCCCCC",
"CCCCCCCCCCCCCCCCCCCCCCCCCCCCCCCC",
"CCCCCCCCCCCCCCCCCCCCCCCCCCCCCCCC",
"CCCCCCCCEEEEEEEEEEEEEEEECCCCCCCC",
"CCCCCCCNEBBBBBBBBBBBBBBEECCCCCCC",
"CCCCCCNCNBFFBFFBFBFFFBBEECCCCCCC",
"CCCCCCNCEBBBKNNKBBBBBBBEECCCCCCC",
"CCCCCCCNEBBNGAGHNBFBFFBEECCCCCCC",
"CCCCCCNCNBKGAAGHLKBBBBBEECCCCCCC",
"CCCCCCNCEBNAAGHIJNDDDDDEECCCCCCC",
"CCCCCCCNEBNGGHIIJNBBBBBEECCCCCCC",
"CCCCCCNCNBKKHIIJMKBBBBBEECCCCCCC",
"CCCCCCNCEBFNLJJMNBFFFBBEECCCCCCC",
"CCCCCCCNEBBBKNNKBNNBBBBEECCCCCCC",
"CCCCCCNCNBBFFFBBFNNNFFBEECCCCCCC",
"CCCCCCNCEBBBBBBBBBNNNBBEECCCCCCC",
"CCCCCCCNEBDDDDDDDDDNNNDEECCCCCCC",
"CCCCCCNCNBBBBBBBBBBBNBBEECCCCCCC",
"CCCCCCNCEBBBBBBBBBBBBBBEECCCCCCC",
"CCCCCCCNEBFFBFFBFBFFFBBEECCCCCCC",
"CCCCCCNCNBBBBBBBBBBBBBBEECCCCCCC",
"CCCCCCNCEBBFFFBBFBFBFFBEECCCCCCC",
"CCCCCCCNEBBBBBBBBBBBBBBEECCCCCCC",
"CCCCCCCCEEEEEEEEEEEEEEEEECCCCCCC",
"CCCCCCCCCEEEEEEEEEEEEEEEECCCCCCC",
"CCCCCCCCCCCCCCCCCCCCCCCCCCCCCCCC",
"CCCCCCCCCCCCCCCCCCCCCCCCCCCCCCCC",
"CCCCCCCCCCCCCCCCCCCCCCCCCCCCCCCC",
"CCCCCCCCCCCCCCCCCCCCCCCCCCCCCCCC",
"CCCCCCCCCCCCCCCCCCCCCCCCCCCCCCCC",
};
