/* XPM */
static char *SearchPointer[] =
{
/* width height ncolors chars_per_pixel */
"16 16 7 1",
/* colors */
"A c None",
"B c #CCCCCCCCFFFF",
"C c #99999999FFFF",
"D c #66666666CCCC",
"E c #BBBBBBBBBBBB",
"F c #888888888888",
"G c #000000000000",
/* pixels */
"AAAAAAAAAAAAAAAA",
"AAAAAAAAAAAAAAAA",
"AAAAAAAAAAAAAAAA",
"AAAAAAAAAAAAAAAA",
"AAAAAAAGAAAAAAAA",
"AAAAAAAGGAAAAAAA",
"AAAAGGGGCGAAAAAA",
"AAAAGCCCBCGAAAAA",
"AAAAGBBBBCCGAAAA",
"AAAAGDDDCDGFAAAA",
"AAAAGGGGDGFEAAAA",
"AAAAAFFGGFEAAAAA",
"AAAAAAEGFEAAAAAA",
"AAAAAAAEEAAAAAAA",
"AAAAAAAAAAAAAAAA",
"AAAAAAAAAAAAAAAA",
};
