/* XPM */
static char *SearchHier[] =
{
/* width height ncolors chars_per_pixel */
"16 16 11 1",
/* colors */
"A c #FFFFFFFFFFFF",
"B c None",
"C c #CCCCCCCCFFFF",
"D c #DDDDDDDDDDDD",
"E c #BBBBBBBBBBBB",
"F c #AAAAAAAAAAAA",
"G c #888888888888",
"H c #777777777777",
"I c #555555555555",
"J c #444444444444",
"K c #000000000000",
/* pixels */
"BBBBBBBBBBBBBBBB",
"BBBBBBBBBBBBBBBB",
"BBBBBHKKHBBBBBBB",
"BBKKKDADEKBBBBBB",
"BKCHDAADEIHBBBBB",
"KCCKAADEFGKKKKKB",
"KACKDDEFFGKACACK",
"KCAHHEFFGJHCACAK",
"KACAKIGGJKCACACK",
"KCACAHKKHCKKACAK",
"KACACACACAKKKACK",
"KCACACACACAKKKAK",
"KACACACACACAKKKK",
"KCACACACACACAKAK",
"KACACACACACACACK",
"KKKKKKKKKKKKKKKK",
};
