/* XPM */
static char *SearchDoc[] =
{
/* width height ncolors chars_per_pixel */
"32 32 14 1",
/* colors */
"A c #FFFFFFFFFFFF",
"B c None",
"C c #FFFFCCCC9999",
"D c #FFFF66663333",
"E c #CCCC99996666",
"F c #DDDD00000000",
"G c #0000BBBB0000",
"H c #EEEEEEEEEEEE",
"I c #DDDDDDDDDDDD",
"J c #BBBBBBBBBBBB",
"K c #AAAAAAAAAAAA",
"L c #888888888888",
"M c #777777777777",
"N c #000000000000",
/* pixels */
"BBBBBBBBBBBBBBBBBBBBBBBBBBBBBBBB",
"BBBBBBBBBBBBBBBBBBBBBBBBBBBBBBBB",
"BBBBBBBBBBBBBBBBBBBBBBBBBBBBBBBB",
"BBBBBBBBBBBBBBBBBBBBBBBBBBBBBBBB",
"BBBBBBBBNNNNNNNNNNNNNNNNNNNNNNBB",
"BBBBBBBBNHHHHHHHHHHHHHHHHHHHHNBB",
"BBBBBBNNNNNHHHHHHHHHHHHHHGGGHNBB",
"BBBBNNIIIIINNNNNNNNNNNNNNNNNHNBB",
"BBBNIIIIIIIIJNHHHHHHHHHHHHHNHNBB",
"BBNIIIAAAAAIJKNHHHHHHHHDDDHNHNBB",
"BBNIIAAAAAAIJKNHHHHHHHHDDDHNHNBB",
"BNIIAAAAAAAIJKLNNNNNNNNNNNHNHNBB",
"BNIIAAAAAAAIJKLNHHHHHHHHHNHNHNBB",
"BNIIAAAAAAIIJKMNHHHHHFFFHNHNHNNN",
"BNIIAAAAAIIIJLMNHHHHHFFFHNHNHNNN",
"BBNIIIIIIIIJKLNHHHHHHFFFHNHNHNEN",
"BBNJJJJJJJJKLMNHHHHHHHHHHNHNNEEN",
"BBNNKKKKKKLLMNHHHHHHHHHHHNHNEEEN",
"BBNHNNLLLMMNNHNNNNHHHHHHHNNEEEEN",
"BBNHHHNNNNNHHHNNNNHHHHHHHNEEEEEN",
"BBNHHHHHHHHHHHNNNNNHHHHHNEEEEEEN",
"NNNNNNNNNNNNNNNNNNNNNNNNEEEEEEEN",
"NCCCCCCCCCCCCCCCNNNNNCCNEEEEEEEN",
"NCCCCCCCCCCCCCCCCNNNNNCNEEEEEEEN",
"NCCCCCCCCCCCCCCCCCNNNNNNEEEEEENB",
"NCCCCCCNCCCCCCCCNCCNNNNNNEEEENBB",
"NCCCCCCNNCCCCCCNNCCCNNNNNEEENBBB",
"NCCCCCCNNNNNNNNNNCCCCNNNNEENBBBB",
"NCCCCCCCNNNNNNNNCCCCCCNNNENBBBBB",
"NCCCCCCCCCCCCCCCCCCCCCCNENBBBBBB",
"NCCCCCCCCCCCCCCCCCCCCCCNNBBBBBBB",
"NNNNNNNNNNNNNNNNNNNNNNNNBBBBBBBB",
};
