/* XPM */
static char *SelectByFlagSmall[] =
{
/* width height ncolors chars_per_pixel */
"16 16 8 1",
/* colors */
"A c None",
"B c #FFFF66663333",
"C c #CCCCCCCCCCCC",
"D c #CCCC66663333",
"E c #0000BBBB0000",
"F c #EEEEEEEEEEEE",
"G c #888888888888",
"H c #000000000000",
/* pixels */
"AAAAHHAAAAAAAAAA",
"AAAAHFHHAAAAAAAA",
"AAAAHFFFHHAAAAAA",
"AAAAHFHHFFHHAAAA",
"AAHHHFFFFHFEHHAA",
"HHCCHHGGFFFEEHAA",
"HFHHCCHHGFFFEHHH",
"HFFFHHCCHHGGFHDH",
"HFHHFFHHCDHHFHCH",
"HFFFFHFBHHDHCHCH",
"HFHHFFFBBHCHCHCH",
"HHFFHFFFBHCHHHCH",
"AAHHFFHHFHCHAAHH",
"AAAAHHFFFHCHAAAA",
"AAAAAAHHFHHHAAAA",
"AAAAAAAAHHAAAAAA",
};
