/* XPM */
static char *Send[] =
{
/* width height ncolors chars_per_pixel */
"32 32 28 2",
/* colors */
"AA c None",
"BA c #FFFFCCCCCCCC",
"CA c #FFFF99999999",
"DA c #FFFF66666666",
"EA c #FFFF00000000",
"FA c #CCCC66666666",
"GA c #CCCC00000000",
"HA c #999900000000",
"IA c #666600000000",
"JA c #EEEE00000000",
"KA c #DDDD00000000",
"LA c #BBBB00000000",
"MA c #AAAA00000000",
"NA c #888800000000",
"OA c #777700000000",
"PA c #555500000000",
"AB c #444400000000",
"BB c #222200000000",
"CB c #111100000000",
"DB c #EEEEEEEEEEEE",
"EB c #DDDDDDDDDDDD",
"FB c #BBBBBBBBBBBB",
"GB c #AAAAAAAAAAAA",
"HB c #777777777777",
"IB c #555555555555",
"JB c #222222222222",
"KB c #111111111111",
"LB c #000000000000",
/* pixels */
"AAAAAAAAAAAAAAAAAAAAAAAAAAAAAAAAAAAAAAAAAAAAAAAAAAAAAAAAAAAAAAAA",
"AAAAAAAAAAAAAAAAAAAAAAAAAAAAAAAAAAAAAAAAAAAAAAAAAAAAAAAAAAAAAAAA",
"AAAAAAAAAAAAAAAAAAAAAAAAAAAAAAAAAAAAAAAAAAAAAAAAAAAAAAAAAAAAAAAA",
"AAAAAAAAAAAAAAAAAAAAAAAAFBCADADADACAFBAAAAAAAAAAAAAAAAAAAAAAAAAA",
"AAAAAAAAAAAAAAAAAAAAFBDAJAEAEAKALAMAHAFAFBAAAAAAAAAAAAAAAAAAAAAA",
"AAAAAAAAAAAAAAAAFBCAEAEAEAEAEAJALAMAHANAOAFAFBAAAAAAAAAAAAAAAAAA",
"AAAAAAAAAAAAAAFBDAJAEAEAEAEAEAKAKALAMAHANAOAIAFBAAAAAAAAAAAAAAAA",
"AAAAAAAAAAAAAALAJAJAJAJAJAJAJAKAKALAMAHAHAOAIAMAAAAAAAAAAAAAAAAA",
"AAAAAAAAAAAAAAKAGAGAGAGAJAJAKAKAKAKAMAMAIAIAIAIAAAAAAAAAAAAAAAAA",
"AAAAAAAAAAAAAAJAJAKAGALALAMAMAMANANAOAPAOAIAIAIAAAAAAAAAAAAAAAAA",
"AAAAAAAAAAAAAABAEAEAOAMALAKAGALAMAHANAOAIAIAABMAAAAAAAAAAAAAAAAA",
"AAAAAAAAAAAAAAAAEAEALBIAPACBLBLAMAHANAOAIAIAABAAAAAAAAAAAAAAAAAA",
"AAAAAAAAAAAAAAAAEAEAMAOAPABBLBLAMAHANAOAIAIAABAAAAAAAAAAAAAAAAAA",
"AAAAAAAAAAAAAAAAEAEANAMAGAJAGALAMAHANAOAIAIAABAAAAAAAAAAAAAAAAAA",
"AAAAAAAAAAAAAAAAEAEALBHBIBCBLBLAMAHANAOAIAIAABAAAAAAAAAAAAAAAAAA",
"AAAAAAAAAAAAAAAAEAEALBDBDBDBLBLAMAHANAOAIAIAABAAAAAAAAAAAAAAAAAA",
"AAAAAAAAAAAAAAAAEAEALBFBDBFBLBLAMAHANAOAIAIAABAAAAAAAAAAAAAAAAAA",
"AAAAAAAAAAAAAAAAEAEALBDBFBDBLBLAMAHANAOAIAIAABAAAAAAAAAAAAAAAAAA",
"AAAAAAAAAAAAAAAAEAEALBDBFBDBLBLAMAHANAOAIAIAABAAAAAAAAAAAAAAAAAA",
"AAAAAAAAAAAAAAAAEAEAIBGBEBDBLBLAMAHANAOAIAIAABAAAAAAAAAAAAAAAAAA",
"AAAAAAAAAAAAAAAAEAEAMAOAPAKBLBLAMAHANAOAIAIAABAAAAAAAAAAAAAAAAAA",
"AAAAAAAAAAAAAAAAEAEAJAJAKAJAGALAMAHANAOAIAIAABAAAAAAAAAAAAAAAAAA",
"AAAAAAAAAAAAAAAANAEAJAJAKAKAGALAMAHANAOAIAIAABAAAAAAAAAAAAAAAAAA",
"AAAAAAAAAAAAAAAALBOANAMAKAKAGALAMAHANAOAPALBLBAAAAAAAAAAAAAAAAAA",
"AAAAAAAAAAAAAAGBLBLBLBLBBBLBLBLBLBLBLBLBLBLBLBGBAAAAAAAAAAAAAAAA",
"AAAAAAAAAAAAAALBLBLBLBLBLBLBLBLBLBLBLBLBLBLBLBLBAAAAAAAAAAAAAAAA",
"AAAAAAAAAAAAAALBLBLBLBLBLBLBLBLBLBLBLBLBLBLBLBLBAAAAAAAAAAAAAAAA",
"AAAAAAAAAAAAAAGBLBLBLBLBLBLBLBLBLBLBLBLBLBLBLBGBAAAAAAAAAAAAAAAA",
"AAAAAAAAAAAAAAAAAAGBHBIBKBLBLBLBLBLBJBIBHBGBAAAAAAAAAAAAAAAAAAAA",
"AAAAAAAAAAAAAAAAAAAAAAAAAAAAAAAAAAAAAAAAAAAAAAAAAAAAAAAAAAAAAAAA",
"AAAAAAAAAAAAAAAAAAAAAAAAAAAAAAAAAAAAAAAAAAAAAAAAAAAAAAAAAAAAAAAA",
"AAAAAAAAAAAAAAAAAAAAAAAAAAAAAAAAAAAAAAAAAAAAAAAAAAAAAAAAAAAAAAAA",
};
