/* XPM */
static char *SendSmall[] =
{
/* width height ncolors chars_per_pixel */
"16 16 21 1",
/* colors */
"A c None",
"B c #FFFF66666666",
"C c #FFFF00000000",
"D c #CCCCCCCCCCCC",
"E c #666600000000",
"F c #EEEE00000000",
"G c #DDDD00000000",
"H c #BBBB00000000",
"I c #AAAA00000000",
"J c #888800000000",
"K c #777700000000",
"L c #555500000000",
"M c #222200000000",
"N c #111100000000",
"O c #BBBBBBBBBBBB",
"P c #AAAAAAAAAAAA",
"Q c #777777777777",
"R c #555555555555",
"S c #222222222222",
"T c #111111111111",
"U c #000000000000",
/* pixels */
"AAAAAOBBBOAAAAAA",
"AAAOBFFGIJJOAAAA",
"AAOFFFFGHIIKOAAA",
"AAGGHHIIJLLLEAAA",
"AAACUUNUIKKEAAAA",
"AAACKMMUIKKEAAAA",
"AAACURRUIKKEAAAA",
"AAACUOOUIKKEAAAA",
"AAACUOOUIKKEAAAA",
"AAACUOOUIKKEAAAA",
"AAACKTTUIKKUAAAA",
"AAACFFGHIKKUAAAA",
"AAPCFFGHIKKUPAAA",
"AAUUUUUUUUUUUAAA",
"AARUUUUUUUUURAAA",
"AADQRUUUUSRQDAAA",
};
