/* XPM */
static char *ServerCreateBtn[] =
{
/* width height ncolors chars_per_pixel */
"32 32 8 1",
/* colors */
"A c None",
"B c #FFFFCCCC9999",
"C c #FFFF66663333",
"D c #CCCC99996666",
"E c #DDDD00000000",
"F c #0000BBBB0000",
"G c #EEEEEEEEEEEE",
"H c #000000000000",
/* pixels */
"AAAAAAAAAAAAAAAAAAAAAAAAAAAAAAAA",
"AAAAAAAAAAAAAAAAAAAAAAAAAAAAAAAA",
"AAAAAAAAAAAAAAAAAAAAAAAAAAAAAAAA",
"AAAAAAAAAAAAAAAAAAAAAAAAAAAAAAAA",
"AAAAAAAAHHHHHHHHHHHHHHAAAAAAAAAA",
"AAAAAAAAHGGGGGGGGGGFFHAAAAAAAAAA",
"AAAAAAAHHHHHHHHHHHHHHHAAAAAAAAAA",
"AAAAAAAHGGGGGGGGGGGCCHAAAAAAAAAA",
"AAAAAAHHHHHHHHHHHHHHCHAAAAAAAAAA",
"AAAAAAHGGGGGGGGGGEEHGHAAAAAAAAAA",
"AAAAAAHGGHGHHGHHGEEHGHHAAAAAAAAA",
"AAAAAAHGGGGGGGGGGGGHGHHAAAAAAAAA",
"AAAAAAHGGHHHGHHGGGGHHDHAAAAAAAAA",
"AAAAAAHGGGGGGGGGGGGHDDHAAAAAAAAA",
"AAAAAHHHHHHHHHHHHHHDDDHAAAAAAAAA",
"AAAAAHBBBBBBBBBBBBHDDDHAAAAAAAAA",
"AAAAAHBBHBBBBBBHBBHDDDHAAAAAAAAA",
"AAAAAHBBHHHHHHHHBBHDDHAAAAAAAAAA",
"AAAAAHBBBBHHHHBBBBHDHAAAAAAAAAAA",
"AAAAAHBBBBBBBBBBBBHHHHHAAAAAAAAA",
"AAAAAHHHHHHHHHHHHHHAHHHAAAAAAAAA",
"AAAAAAAAAAAAAAAAAAAAHHHAAAAAAAAA",
"AAAAAAAAAAAAAAAAAHHHHHHHHHAAAAAA",
"AAAAAAAAAAAAAAAAAHHHHHHHHHAAAAAA",
"AAAAAAAAAAAAAAAAAHHHHHHHHHAAAAAA",
"AAAAAAAAAAAAAAAAAAAAHHHAAAAAAAAA",
"AAAAAAAAAAAAAAAAAAAAHHHAAAAAAAAA",
"AAAAAAAAAAAAAAAAAAAAHHHAAAAAAAAA",
"AAAAAAAAAAAAAAAAAAAAAAAAAAAAAAAA",
"AAAAAAAAAAAAAAAAAAAAAAAAAAAAAAAA",
"AAAAAAAAAAAAAAAAAAAAAAAAAAAAAAAA",
"AAAAAAAAAAAAAAAAAAAAAAAAAAAAAAAA",
};
