/* XPM */
static char *ServerPOP3[] =
{
/* width height ncolors chars_per_pixel */
"16 16 7 1",
/* colors */
"A c None",
"B c #DDDD00000000",
"C c #00000000DDDD",
"D c #BBBBBBBBBBBB",
"E c #AAAAAAAAAAAA",
"F c #888888888888",
"G c #000000000000",
/* pixels */
"AAAAAAAAAAAAAAAA",
"AAAAAABBBAAAAAAA",
"AAAAAABBBAAAAAAA",
"AAACCBBBBBCCAAAA",
"AAACGBBBBBACFAAA",
"AAACACBBBCCCFDAA",
"AAACCCEBECCCFDAA",
"AAACCCECECCCFDAA",
"AAACCCEEECCCFDAA",
"AAACCCCCCCCCFDAA",
"AAACCEEEEECCFDAA",
"AAACCEEEEECFDAAA",
"AAAAFFFFFFFDAAAA",
"AAAAADDDDDDAAAAA",
"AAAAAAAAAAAAAAAA",
"AAAAAAAAAAAAAAAA",
};
