/* XPM */
static char *ServerSearchBtn[] =
{
/* width height ncolors chars_per_pixel */
"32 32 16 1",
/* colors */
"A c #FFFFFFFFFFFF",
"B c None",
"C c #FFFFCCCC9999",
"D c #FFFF66663333",
"E c #CCCC99996666",
"F c #DDDD00000000",
"G c #0000BBBB0000",
"H c #EEEEEEEEEEEE",
"I c #DDDDDDDDDDDD",
"J c #BBBBBBBBBBBB",
"K c #AAAAAAAAAAAA",
"L c #888888888888",
"M c #777777777777",
"N c #555555555555",
"O c #444444444444",
"P c #000000000000",
/* pixels */
"BBBBBBBBBBBBBBBBBBBBBBBBBBBBBBBB",
"BBBBBBBBBBBBBBBBBBBBBBBBBBBBBBBB",
"BBBBBBBBBBBBBBBBBBBBBBBBBBBBBBBB",
"BBBBBBBBBBBBBBBBBBBBBBBBBBBBBBBB",
"BBBBBBBBBBBBBBBBBBBBBBBBBBBBBBBB",
"BBBBBBBBBBBPPPPPPPPPPPPPPPBBBBBB",
"BBBBBBBBBBBPHHHHHHHHHHGGGPBBBBBB",
"BBBBBBBBMPPPMHHHHHHHHHGGGPBBBBBB",
"BBBBBBBPIIAIJPHPPPPPPPPPGPBBBBBB",
"BBBBBBMIIAAIJNMHHHHHDDDPHPBBBBBB",
"BBBBBBPIAAIIKLPHHHHHDDDPHPBBBBBB",
"BBBBBBPAAIIIKLPPPPPPPPDPHPBBBBBB",
"BBBBBBPIIIIKKLPHHHFFFPHPHPPBBBBB",
"BBBBBBMMJKKKLOMPPHFFFPHPHPPBBBBB",
"BBBBBBBPNLLLOPHHHHFFFPHPPEPBBBBB",
"BBBBBBBPMPPPMHPPHHHHHPHPEEPBBBBB",
"BBBBBBBPHHHHHHPPPHHHHPPEEEPBBBBB",
"BBBBBBPPHPPPHHHPPPHHHPEEEEPBBBBB",
"BBBBBPPPPPPPPPPPPPPPPEEEEEPBBBBB",
"BBBBBPCCCCCCCCCCCPPPPEEEEEPBBBBB",
"BBBBBPCCCCCCCCCCCCPCPEEEEPBBBBBB",
"BBBBBPCCCPCCCCCCPCCCPEEEPBBBBBBB",
"BBBBBPCCCPPPPPPPPCCCPEEPBBBBBBBB",
"BBBBBPCCCCCPPPPCCCCCPEPBBBBBBBBB",
"BBBBBPCCCCCCCCCCCCCCPPBBBBBBBBBB",
"BBBBBPPPPPPPPPPPPPPPPBBBBBBBBBBB",
"BBBBBBBBBBBBBBBBBBBBBBBBBBBBBBBB",
"BBBBBBBBBBBBBBBBBBBBBBBBBBBBBBBB",
"BBBBBBBBBBBBBBBBBBBBBBBBBBBBBBBB",
"BBBBBBBBBBBBBBBBBBBBBBBBBBBBBBBB",
"BBBBBBBBBBBBBBBBBBBBBBBBBBBBBBBB",
"BBBBBBBBBBBBBBBBBBBBBBBBBBBBBBBB",
};
