/* XPM */
static char *ServerView[] =
{
/* width height ncolors chars_per_pixel */
"32 32 6 1",
/* colors */
"A c None",
"B c #FFFFCCCC9999",
"C c #CCCC99996666",
"D c #999966663333",
"E c #666633333333",
"F c #000000000000",
/* pixels */
"AAAAAAAAAAAAAAAAAAAAAAAAAAAAAAAA",
"AAAAAAAAAAAAAAAAAAAAAAAAAAAAAAAA",
"AAAAAAAAAAAAAAAAAAAAAAAAAAAAAAAA",
"AAAAAAAAAAAAAAAAAAAAAAAAAAAAAAAA",
"AAAAAAAAAAAAAAAAAAAAAAAAAAAAAAAA",
"AAAAAAAAAAAAFFFFFFFFFFFFAAAAAAAA",
"AAAAAAAAAAAFCCCCCCCCCCFFAAAAAAAA",
"AAAAAAAAAAFCCCCCCCCCCFDFAAAAAAAA",
"AAAAAAAAAFCCCCCCCCCCFDDFAAAAAAAA",
"AAAAAAAAFFFFFFFFFFFFDDDFAAAAAAAA",
"AAAAAAAAFBBBBBBBBBBFDDDFAAAAAAAA",
"AAAAAAAAFBBBFBBFBBBFDDDFAAAAAAAA",
"AAAAAAAAFBBBFFFFBBBFDDDFAAAAAAAA",
"AAAAAAAAFBBBBBBBBBBFDDDFAAAAAAAA",
"AAAAAAAAFFFFFFFFFFFFDDDFAAAAAAAA",
"AAAAAAAAFFEFEEEEEEEFDDDFAAAAAAAA",
"AAAAAAAFFFFFFFFFFFFFDDDFAAAAAAAA",
"AAAAAAAFBBBBBBBBBBFFDDDFAAAAAAAA",
"AAAAAAAFBBBFBBFBBBFFDDDFAAAAAAAA",
"AAAAAAAFBBBFFFFBBBFFDDDFAAAAAAAA",
"AAAAAAAFBBBBBBBBBBFFDDDFAAAAAAAA",
"AAAAAAAFFFFFFFFFFFFFDDDFAAAAAAAA",
"AAAAAAAAFBBBFBBFBBBFDDFAAAAAAAAA",
"AAAAAAAAFBBBFFFFBBBFDFAAAAAAAAAA",
"AAAAAAAAFBBBBBBBBBBFFAAAAAAAAAAA",
"AAAAAAAAFFFFFFFFFFFFAAAAAAAAAAAA",
"AAAAAAAAAAAAAAAAAAAAAAAAAAAAAAAA",
"AAAAAAAAAAAAAAAAAAAAAAAAAAAAAAAA",
"AAAAAAAAAAAAAAAAAAAAAAAAAAAAAAAA",
"AAAAAAAAAAAAAAAAAAAAAAAAAAAAAAAA",
"AAAAAAAAAAAAAAAAAAAAAAAAAAAAAAAA",
"AAAAAAAAAAAAAAAAAAAAAAAAAAAAAAAA",
};
