/* XPM */
static char *ServerCreateBtnSmall[] =
{
/* width height ncolors chars_per_pixel */
"16 16 6 1",
/* colors */
"A c None",
"B c #FFFFCCCC9999",
"C c #CCCC99996666",
"D c #DDDD00000000",
"E c #EEEEEEEEEEEE",
"F c #000000000000",
/* pixels */
"AAFFFFFFFFFFAAAA",
"AAFEEEEEECCFAAAA",
"AFFFFFFFFFFFAAAA",
"AFEEEEEEDDFFFAAA",
"AFFEFFFEDDFFFAAA",
"AFEEEEEEEEFFFAAA",
"FFFFFFFFFFFCFAAA",
"FBBBBBBBBFCCFAAA",
"FBBFBBFBBFCCFAAA",
"FBBFFFFBBFCFAAAA",
"FBBBBBBBBFFAFFAA",
"FFFFFFFFFFAAFFAA",
"AAAAAAAAAAFFFFFF",
"AAAAAAAAAAFFFFFF",
"AAAAAAAAAAAAFFAA",
"AAAAAAAAAAAAFFAA",
};
