/* XPM */
static char *98134[] =
{
/* width height ncolors chars_per_pixel */
"32 32 5 1",
/* colors */
"A c #FFFFFFFFFFFF",
"B c None",
"C c #CCCCCCCCFFFF",
"D c #99999999FFFF",
"E c #66666666CCCC",
/* pixels */
"BBBBBBBBBBBBBBBBBBBBBBBBBBBBBBBB",
"BBBBBBBBBBBBBBBBBBBBBBBBBBBBBBBB",
"BBBBBBBBBBBBBBBBBBBBBBBBBBBBBBBB",
"BBBBBBBBBBBBBBBBBBBBBBBBBBBBBBBB",
"BBBBBBBBBBBBCDEEEEDCBBBBBBBBBBBB",
"BBBBBBBBBBDEEEEEEEEEEDBBBBBBBBBB",
"BBBBBBBBCEEEEEEEEEEEEEECBBBBBBBB",
"BBBBBBBCEEEEEEEEEEEEEEEECBBBBBBB",
"BBBBBBCEEEEEEEAAAEEEEEEEECBBBBBB",
"BBBBBBEEEEEEEEAAAEEEEEEEEEBBBBBB",
"BBBBBDEEEEEEEEEEEEEEEEEEEEDBBBBB",
"BBBBBEEEEEEEEEEEEEEEEEEEEEEBBBBB",
"BBBBCEEEEEEEEEEAAEEEEEEEEEECBBBB",
"BBBBDEEEEEEEEEAAAEEEEEEEEEEDBBBB",
"BBBBEEEEEEEEAAAAAEEEEEEEEEEEBBBB",
"BBBBEEEEEEEEEEAAAEEEEEEEEEEEBBBB",
"BBBBEEEEEEEEEEAAAEEEEEEEEEEEBBBB",
"BBBBEEEEEEEEEEAAAEEEEEEEEEEEBBBB",
"BBBBDEEEEEEEEEAAAEEEEEEEEEEDBBBB",
"BBBBCEEEEEEEEEAAAEEEEEEEEEECBBBB",
"BBBBBEEEEEEEEEAAAEEEEEEEEEEBBBBB",
"BBBBBDEEEEEEEEAAAEEEEEEEEEDBBBBB",
"BBBBBBEEEEEEAAAAAAAEEEEEEEBBBBBB",
"BBBBBBCEEEEEEEEEEEEEEEEEECBBBBBB",
"BBBBBBBCEEEEEEEEEEEEEEEECBBBBBBB",
"BBBBBBBBCEEEEEEEEEEEEEECBBBBBBBB",
"BBBBBBBBBBDEEEEEEEEEEDBBBBBBBBBB",
"BBBBBBBBBBBBCDEEEEDCBBBBBBBBBBBB",
"BBBBBBBBBBBBBBBBBBBBBBBBBBBBBBBB",
"BBBBBBBBBBBBBBBBBBBBBBBBBBBBBBBB",
"BBBBBBBBBBBBBBBBBBBBBBBBBBBBBBBB",
"BBBBBBBBBBBBBBBBBBBBBBBBBBBBBBBB",
};
