/* XPM */
static char *ServerTitleAutoCheck[] =
{
/* width height ncolors chars_per_pixel */
"16 16 8 1",
/* colors */
"A c #FFFFFFFFCCCC",
"B c None",
"C c #333333336666",
"D c #DDDD00000000",
"E c #AAAAAAAAAAAA",
"F c #777777777777",
"G c #444444444444",
"H c #000000000000",
/* pixels */
"BBBBBBBBBBBBBBBB",
"BBBBBBBBBBBBBBBB",
"BBBBBBBBBBBBBBBB",
"BBBBBBBBBBBBBBBB",
"BBBEGHGEBBBBBBBB",
"BBFFADAFFBBBBBBB",
"BEFAAAAAFEBBBBBB",
"BGAAACAAAGBBBBBB",
"BHDAACAADHBBBBBB",
"BGAAAACAAGBBBBBB",
"BEFAAAAAFEBBBBBB",
"BBFFADAFFBBBBBBB",
"BBBEGHGEBBBBBBBB",
"BBBBBBBBBBBBBBBB",
"BBBBBBBBBBBBBBBB",
"BBBBBBBBBBBBBBBB",
};
