/* XPM */
static char *ServerMailboxOpen[] =
{
/* width height ncolors chars_per_pixel */
"16 16 4 1",
/* colors */
"A c None",
"B c #333399996666",
"C c #222222222222",
"D c #000000000000",
/* pixels */
"AAAAAAAAAAAAAAAA",
"AAAAAAAAAAAAAAAA",
"AAAAAAAAAAAAAAAA",
"AAAAAAAAAAAAAAAA",
"AAAADAAAAAADAAAA",
"AAAAADCCCCDAAAAA",
"AAAAACBBBBCAAAAA",
"AAAAACBBBBCAAAAA",
"AAAAACBBBBCAAAAA",
"AAAAACBBBBCAAAAA",
"AAAAADCCCCDAAAAA",
"AAAADAAAAAADAAAA",
"AAAAAAAAAAAAAAAA",
"AAAAAAAAAAAAAAAA",
"AAAAAAAAAAAAAAAA",
"AAAAAAAAAAAAAAAA",
};
