/* XPM */
static char *ServerMailboxUncached[] =
{
/* width height ncolors chars_per_pixel */
"16 16 13 1",
/* colors */
"A c None",
"B c #FFFFCCCC9999",
"C c #CCCCCCCCFFFF",
"D c #CCCC99996666",
"E c #99999999FFFF",
"F c #66666666CCCC",
"G c #333399996666",
"H c #333366666666",
"I c #333333336666",
"J c #0000BBBB0000",
"K c #777777777777",
"L c #444444444444",
"M c #000000000000",
/* pixels */
"AAAAAAAAAAAAAAAA",
"AAAAAKLMLKAAAAAA",
"AAAAMCJCCEMAAAAA",
"AAAKHJCGCHHKAAAA",
"AAALHJGGEHHLAAAA",
"AAAMHJGGEJHMAAAA",
"AAALCCGEEHHLMMMM",
"AAAKECHHFFIKBBMM",
"AAMDMEHHIIMBDMDM",
"AMDDMKLMLKDDMDDM",
"MMMMMMMMMMMMDDDM",
"MBBBBBBBBBBMDDDM",
"MBBBMBBMBBBMDDMA",
"MBBBMMMMBBBMDMAA",
"MBBBBBBBBBBMMAAA",
"MMMMMMMMMMMMAAAA",
};
