/* XPM */
static char *ServerTitleFlags[] =
{
/* width height ncolors chars_per_pixel */
"16 16 3 1",
/* colors */
"A c None",
"B c #999966669999",
"C c #000000000000",
/* pixels */
"AAAAAAAAAAAAAAAA",
"AAAAAAAAAAAAAAAA",
"AACCCCAAAAAAAAAA",
"AACCBBCCCAAAAAAA",
"AACCBBBBBCCAAAAA",
"AACCBBBBBBBCAAAA",
"AACCBBBBBBBCAAAA",
"AACCBBBBBBBCAAAA",
"AACCCCBBBBBCAAAA",
"AACCAACCCBBCAAAA",
"AACCAAAAACCCAAAA",
"AACCAAAAAAAAAAAA",
"AACCAAAAAAAAAAAA",
"AACCAAAAAAAAAAAA",
"AAAAAAAAAAAAAAAA",
"AAAAAAAAAAAAAAAA",
};
