/* XPM */
static char *ServerMailboxCloseCheck[] =
{
/* width height ncolors chars_per_pixel */
"16 16 6 1",
/* colors */
"A c None",
"B c #FFFF66663333",
"C c #CCCCCCCCCCCC",
"D c #777777777777",
"E c #444444444444",
"F c #000000000000",
/* pixels */
"AAAAAAAAAAAAAAAA",
"AAAAAAAAAAAAAAAA",
"AAAAAAAAAAAAAAAA",
"AAAAAAAAAAAAAAAA",
"AAAAAAAAAAAAAAAA",
"AAAAFFFFFFFAAAAA",
"AAAAEBBBBBEAAAAA",
"AAAACDBBBDCAAAAA",
"AAAAAEBBBEAAAAAA",
"AAAAACDBDCAAAAAA",
"AAAAAAEBEAAAAAAA",
"AAAAAACFCAAAAAAA",
"AAAAAAACAAAAAAAA",
"AAAAAAAAAAAAAAAA",
"AAAAAAAAAAAAAAAA",
"AAAAAAAAAAAAAAAA",
};
