/* XPM */
static char *ServerMailboxNo[] =
{
/* width height ncolors chars_per_pixel */
"16 16 6 1",
/* colors */
"A c None",
"B c #FFFFCCCC9999",
"C c #CCCC99996666",
"D c #DDDD00000000",
"E c #EEEEEEEEEEEE",
"F c #000000000000",
/* pixels */
"DDAAAAAAAAAAAADD",
"DDDAFFFFFFFFFDDD",
"ADDDFEEEEEEEDDDA",
"AADDDFFFFFFDDDFA",
"AAADDDEEEEDDDEFA",
"AFFFDDDFFDDDFEFA",
"AFEEEDDDDDDEFEFA",
"AFEEEEDDDDDEFEFF",
"AFEFEFDDDDDEFFCF",
"AFEEEDDDDDDEFCCF",
"FFFFDDDFFDDDCCCF",
"FBBDDDBBBBDDDCCF",
"FBDDDBBFBBBDDDFA",
"FDDDFFFFBBBFDDDA",
"DDDBBBBBBBBFFDDD",
"DDFFFFFFFFFFAADD",
};
