/* XPM */
static char *ServerDisconnected[] =
{
/* width height ncolors chars_per_pixel */
"16 16 12 1",
/* colors */
"A c None",
"B c #CCCCCCCCFFFF",
"C c #99999999FFFF",
"D c #333399996666",
"E c #333366666666",
"F c #333333336666",
"G c #0000BBBB0000",
"H c #00000000DDDD",
"I c #AAAAAAAAAAAA",
"J c #555555555555",
"K c #444444444444",
"L c #000000000000",
/* pixels */
"AAHHHHHHAALAAAAA",
"AAHHHHHHAAALAAAA",
"AAHHIIHHAALLLAAA",
"AAHHIIHHAAALAAAA",
"AAHHHHHHAAAAAAAA",
"AAHHIIHAAKLKAAAA",
"AAAAAAAALBDCLAAA",
"AAAALAAKEGDCEKAA",
"AAALLLALEGDCELAA",
"AAAALAAKCEDCEKAA",
"AAAAALAALECFLAAA",
"AAAAAAAAAKLKAAAA",
"AAAAAAAAAALAAAAA",
"AAAAAAAJLLALLJAA",
"AAAAAAAAAAAAAAAA",
"AAAAAAAAAAAAAAAA",
};
