/* XPM */
static char *ServerTtitleRecent[] =
{
/* width height ncolors chars_per_pixel */
"16 16 4 1",
/* colors */
"A c None",
"B c #99999999FFFF",
"C c #66666666CCCC",
"D c #DDDD00000000",
/* pixels */
"AAAAAAAAAAAAAAAA",
"AAAAAAAAAAAAAAAA",
"AAAAADDDDDDAAAAA",
"AAAAAADDDDAAAAAA",
"AAAAAAADDAAAAAAA",
"AADDDDDDDDDDDDAA",
"AADCBBBBBBBBCDAA",
"AADBCCBBBBCCBDAA",
"AADBBBCBBCBBBDAA",
"AADBBBCCCCBBBDAA",
"AADBCCBBBBCCBDAA",
"AADCBBBBBBBBCDAA",
"AADDDDDDDDDDDDAA",
"AAAAAAAAAAAAAAAA",
"AAAAAAAAAAAAAAAA",
"AAAAAAAAAAAAAAAA",
};
