/* XPM */
static char *ServerDirSubs[] =
{
/* width height ncolors chars_per_pixel */
"16 16 4 1",
/* colors */
"A c None",
"B c #CCCCCCCCFFFF",
"C c #DDDD00000000",
"D c #000000000000",
/* pixels */
"AAAAAAAAAAAAAAAA",
"AAAAAAADAAAAAAAA",
"AAAAAADBDAAAAAAA",
"AAAAAADBDAAAAAAA",
"AAAAADBBBDAAAAAA",
"AAAAADBCBDAAAAAA",
"AAAADBCCCBDAAAAA",
"AAAADBCCCBDAAAAA",
"AAADBBCCCBBDAAAA",
"AAADBBCCCBBDAAAA",
"AADBBBBCBBBBDAAA",
"AADBBBBBBBBBDAAA",
"ADBBBBBCBBBBBDAA",
"ADBBBBBBBBBBBDAA",
"AADDDDDDDDDDDAAA",
"AAAAAAAAAAAAAAAA",
};
