/* XPM */
static char *ServerMailboxCloseNew[] =
{
/* width height ncolors chars_per_pixel */
"16 16 3 1",
/* colors */
"A c None",
"B c #DDDD00000000",
"C c #000000000000",
/* pixels */
"AAAAAAAAAAAAAAAA",
"AAAAAAAAAAAAAAAA",
"AAAAAAAAAAAAAAAA",
"AAAAAAAAAAAAAAAA",
"AAAAAACCCCAAAAAA",
"AAAAACBBBBCAAAAA",
"AAAACBBBBBBCAAAA",
"AAAACBBBBBBCAAAA",
"AAAACBBBBBBCAAAA",
"AAAACBBBBBBCAAAA",
"AAAAACBBBBCAAAAA",
"AAAAAACCCCAAAAAA",
"AAAAAAAAAAAAAAAA",
"AAAAAAAAAAAAAAAA",
"AAAAAAAAAAAAAAAA",
"AAAAAAAAAAAAAAAA",
};
