/* XPM */
static char *ServerMailboxUnmarkedRef[] =
{
/* width height ncolors chars_per_pixel */
"16 16 5 1",
/* colors */
"A c #FFFFFFFFFFFF",
"B c None",
"C c #FFFFCCCC9999",
"D c #CCCC99996666",
"E c #000000000000",
/* pixels */
"BBBBBBBBBBBBBBBB",
"BBBBBBBBBBBBBBBB",
"BBBBBBBBBBBBBBBB",
"BBBBBBBBBBBBBBBB",
"BBBBBBBBBBBBBBBB",
"BBBBBBBBBBBBBBBB",
"BBBBEEEEEEEEEEEE",
"BBBEECCCCCCCCCEE",
"EEEEEEECDCDCDEDE",
"EAAAAAEDDDDDEDDE",
"EAEEEAEEEEEEDDDE",
"EAAEEAECCCCEDDDE",
"EAEAEAEECCCEDDEB",
"EAEAAAEECCCEDEBB",
"EAAEAAECCCCEEBBB",
"EEEEEEEEEEEEBBBB",
};
