/* XPM */
static char * ServerServer_xpm[] = {
"16 16 10 1",
" 	c None",
".	c #777777",
"+	c #000000",
"@	c #99FFFF",
"#	c #339966",
"$	c #339999",
"%	c #C0C0C0",
"&	c #A0A0A4",
"*	c #868686",
"=	c #5F5F5F",
"                ",
"                ",
"      .+.       ",
"     +@#@++     ",
"    +####@$+    ",
"   $###++++++   ",
"   +##@@##$+    ",
"  ++++++$$@     ",
"   +$@$@@@+     ",
"     +@@@+      ",
"      .+.       ",
"       +        ",
"      +%+       ",
"   &*=+++=*&    ",
"                ",
"                "};
