/* XPM */
static char *ServerCheckBtn[] =
{
/* width height ncolors chars_per_pixel */
"32 32 6 1",
/* colors */
"A c None",
"B c #FFFFCCCC9999",
"C c #CCCC99996666",
"D c #DDDD00000000",
"E c #EEEEEEEEEEEE",
"F c #000000000000",
/* pixels */
"AAAAAAAAAAAAAAAAAAAAAAAAAAAAAAAA",
"AAAAAAAAAAAAAAAAAAAAAAAAAAAAAAAA",
"AAAAAAAAAAAAAAAAAAAAAAAAAAAAAAAA",
"AAAAAAAAAAAAAAAAAAAAAAAAAAAAAAAA",
"AAAAAAAAAAAAAAAAAAAAAAAAAAAAAAAA",
"AAAAAAAAAFFFFFFFFFFFAAAAAAAAAAAA",
"AAAAAAAAAFEEEEEEEEEFAAAAAAAAAAAA",
"AAAAAAAAFFFFFFFFFFFFAAAAAAAAAAAA",
"AAAAAAAAFEEEEEEEEEEFAAAAAAAAAAAA",
"AAAAAAFFFFFFFFFFFFEFAAAAAAAAAAAA",
"AAAAAAFEEEEEEEEEEFEFAAAAAAAAAAAA",
"AAAAAAFEEEEEEEDDEFEFFAAAAAAAAAAA",
"AAAAAAFEFEFFFEDDEFFCFAAAAAAAAAAA",
"AAAAAAFEEEEEEEEEEFCCFAAAAAAAAAAA",
"AAAAAFFFFFFFFFFFFCCCFAAAAAAAAAAA",
"AAAAAFBBBBBBBBBBFCCCFAAAAAAAAAAA",
"AAAAAFBBBFBBFBBBFCCFAAAAAAAAAAAA",
"AAAAAFBBBFFFFBBBFCFAAAAAAAAAAAAA",
"AAAAAFBBBBBBBBBBFFAAAAAAAAAAAAAA",
"AAAAAFFFFFFFFFFFFAAFAFFFFAAAAAAA",
"AAAAAAAAAAAAAAAAAAAFFAAAAFAAAAAA",
"AAAAAAAAAAAAAAAAAAAFFFAAAAFAAAAA",
"AAAAAAAAAAAAAAAAAAAAAAAAAAAAAAAA",
"AAAAAAAAAAAAAAAAAAAAAAAAAAAAAAAA",
"AAAAAAAAAAAAAAAAAAAFAAAAFFFAAAAA",
"AAAAAAAAAAAAAAAAAAAAFAAAAFFAAAAA",
"AAAAAAAAAAAAAAAAAAAAAFFFFAFAAAAA",
"AAAAAAAAAAAAAAAAAAAAAAAAAAAAAAAA",
"AAAAAAAAAAAAAAAAAAAAAAAAAAAAAAAA",
"AAAAAAAAAAAAAAAAAAAAAAAAAAAAAAAA",
"AAAAAAAAAAAAAAAAAAAAAAAAAAAAAAAA",
"AAAAAAAAAAAAAAAAAAAAAAAAAAAAAAAA",
};
