/* XPM */
static char *ServerMailboxRefMarked[] =
{
/* width height ncolors chars_per_pixel */
"16 16 6 1",
/* colors */
"A c #FFFFFFFFFFFF",
"B c None",
"C c #FFFFCCCC9999",
"D c #CCCC99996666",
"E c #DDDD00000000",
"F c #000000000000",
/* pixels */
"BBBBBEEEEEBBBBBB",
"BBBBBEEEEEBBBBBB",
"BBBBBEEEEEBBBBBB",
"BBBBBEEEEEBBBBBB",
"BBBBBEEEEEBBBBBB",
"BBBEEEEEEEEEBBBB",
"BBBBEEEEEEEFFFFF",
"BBBFFEEEEECCCCFF",
"FFFFFFFEECDCDFDF",
"FAAAAAFEDDDDFDDF",
"FAFFFAFFFFFFDDDF",
"FAAFFAFCCCCFDDDF",
"FAFAFAFFCCCFDDFB",
"FAFAAAFFCCCFDFBB",
"FAAFAAFCCCCFFBBB",
"FFFFFFFFFFFFBBBB",
};
