/* XPM */
static char *ServerPropSmall[] =
{
/* width height ncolors chars_per_pixel */
"16 16 5 1",
/* colors */
"A c #FFFFFFFFFFFF",
"B c None",
"C c #CCCCCCCCFFFF",
"D c #99999999FFFF",
"E c #66666666CCCC",
/* pixels */
"BBBBBCDEEDCBBBBB",
"BBBCDEEEEEEDCBBB",
"BBCEEEEAAEEEECBB",
"BCEEEEEAAEEEEECB",
"BDEEEEEEEEEEEEDB",
"CEEEEEECAEEEEEEC",
"DEEEEEAAAEEEEEED",
"EEEEEEEAAEEEEEEE",
"EEEEEEEAAEEEEEEE",
"DEEEEEEAAEEEEEED",
"CEEEEEEAAEEEEEEC",
"BDEEEEDAADEEEEDB",
"BCEEEEAAAAEEEECB",
"BBCEEEEEEEEEECBB",
"BBBCDEEEEEEDCBBB",
"BBBBBCDEEDCBBBBB",
};
