/* XPM */
static char *ServerMailboxRef[] =
{
/* width height ncolors chars_per_pixel */
"16 16 7 1",
/* colors */
"A c #FFFFFFFFFFFF",
"B c None",
"C c #FFFFCCCC9999",
"D c #CCCC99996666",
"E c #DDDD00000000",
"F c #EEEEEEEEEEEE",
"G c #000000000000",
/* pixels */
"BBBBBBBBBBBBBBBB",
"BBBBGGGGGGGGGGGB",
"BBBBGFFFFFFFFFGB",
"BBBGGGGGGGGGGGGB",
"BBBGFFFFFFFFFFGB",
"BGGGGGGGGGGGGFGB",
"BGFFFFFFFFFFGFGB",
"BGFFFFFFFEEFGFGG",
"GGGGGGGGFEEFGGDG",
"GAAAAAGFFFFFGDDG",
"GAGGGAGGGGGGDDDG",
"GAAGGAGCCCCGDDDG",
"GAGAGAGGCCCGDDGB",
"GAGAAAGGCCCGDGBB",
"GAAGAAGCCCCGGBBB",
"GGGGGGGGGGGGBBBB",
};
