/* XPM */
static char *ServerDirRef[] =
{
/* width height ncolors chars_per_pixel */
"16 16 5 1",
/* colors */
"A c #FFFFFFFFFFFF",
"B c None",
"C c #CCCCCCCCFFFF",
"D c #99999999FFFF",
"E c #000000000000",
/* pixels */
"BBBBBBBBBBBBBBBB",
"BBBBBBBBBBBBBBBB",
"BBEEEEBBBBBBBBBB",
"BECCCCEBBBBBBBBB",
"ECCCCCCEEEEEEEEB",
"EACACACACACACADE",
"ECACACACACACACDE",
"EEEEEEEACACACADE",
"EAAAAAECACACACDE",
"EAEEEAEACACACADE",
"EAAEEAECACACACDE",
"EAEAEAEACACACADE",
"EAEAAAECACACACDE",
"EAAEAAEACACACADE",
"EEEEEEEEEEEEEEEE",
"BBBBBBBBBBBBBBBB",
};
