/* XPM */
static char *ServerViewSmall[] =
{
/* width height ncolors chars_per_pixel */
"16 16 6 1",
/* colors */
"A c None",
"B c #FFFFCCCC9999",
"C c #CCCC99996666",
"D c #999966663333",
"E c #666633333333",
"F c #000000000000",
/* pixels */
"AAAAAAFFFFFFFFFA",
"AAAAAFCCCCCCCFFA",
"AAAAFCCCCCCCFDFA",
"AAAFCCCCCCCFDDFA",
"AAFFFFFFFFFDDDFA",
"AAFBBEBEBBFDDDFA",
"AAFBBDEDBBFDDDFA",
"AAFFFFFFFFFDDDFA",
"AAFEFEEEEEFDDDFA",
"AFFFFFFFFFFDDDFA",
"AFBBEBEBBFFDDDFA",
"AFBBDEDBBFFDDFAA",
"AFFFFFFFFFFDFAAA",
"AAFBBDEDBBFFAAAA",
"AAFFFFFFFFFAAAAA",
"AAAAAAAAAAAAAAAA",
};
