/* XPM */
static char *ServerFlat[] =
{
/* width height ncolors chars_per_pixel */
"16 16 2 1",
/* colors */
"A c None",
"B c #000000000000",
/* pixels */
"AAAAAAAAAAAAAAAA",
"AAAAAAAAAAAAAAAA",
"AAAAABABBBAAAAAA",
"AAAAABBBBBAAAAAA",
"AAAAABABBBAAAAAA",
"AAAAABAAAAAAAAAA",
"AAAAABABBBAAAAAA",
"AAAAABBBBBAAAAAA",
"AAAAABABBBAAAAAA",
"AAAAABAAAAAAAAAA",
"AAAAABABBBAAAAAA",
"AAAAABBBBBAAAAAA",
"AAAAAAABBBAAAAAA",
"AAAAAAAAAAAAAAAA",
"AAAAAAAAAAAAAAAA",
"AAAAAAAAAAAAAAAA",
};
