/* XPM */
static char *ShowSingle[] =
{
/* width height ncolors chars_per_pixel */
"32 32 4 1",
/* colors */
"A c None",
"B c #FFFFCCCC9999",
"C c #888888888888",
"D c #000000000000",
/* pixels */
"AAAAAAAAAAAAAAAAAAAAAAAAAAAAAAAA",
"AAAAAAAAAAAAAAAAAAAAAAAAAAAAAAAA",
"AAAAAAAAAAAAAAAAAAAAAAAAAAAAAAAA",
"AAAAAAAAAAAAAAAAAAAAAAAAAAAAAAAA",
"AAAAAAAAAAAAAAAAAAAAAAAAAAAAAAAA",
"AAAAAAAAAAAAAAAAAAAAAAAAAAAAAAAA",
"AAAAAAAADDDDDDDDDAAAAAAAAAAAAAAA",
"AAAAAAADBBBBBBBBBDAAAAAAAAAAAAAA",
"AAAAAAADBBBBBBDBBDCAAAAAAAAAAAAA",
"AAAAAAADBBBBBBDBBDCAAAAAAAAAAAAA",
"AAAAAAADBBBBBBBBBDCAAAAAAAAAAAAA",
"AAAAAAADBBBBBBBBBDCAAAAAAAAAAAAA",
"AAAAAAADBBBBBBBBBDCAAAAAAAAAAAAA",
"AAAAAAADBBBBBBBDDDCAAAAAAAAAAAAA",
"AAAAAAADBBBBBBBBDCAAAAAAAAAAAAAA",
"AAAAAAADBBBBBDBBDCAAAAAAAAAAAAAA",
"AAAAAAADBBBBBBDDDCAAAAAAAAAAAAAA",
"AAAAAAADBBBBBBBBDCAAAAAAAAAAAAAA",
"AAAAAAAADDDDDDDDCAAAAAAAAAAAAAAA",
"AAAAAAAAACCCCCCCAAAADDDAAAAAAAAA",
"AAAAAAAAAAAAAAAAAAAADDDAAAAAAAAA",
"AAAAAAAAAAAAAAAAAAAADDDAAAAAAAAA",
"AAAAAAAAAAAAAAAAADDDDDDDDDAAAAAA",
"AAAAAAAAAAAAAAAAADDDDDDDDDAAAAAA",
"AAAAAAAAAAAAAAAAADDDDDDDDDAAAAAA",
"AAAAAAAAAAAAAAAAAAAADDDAAAAAAAAA",
"AAAAAAAAAAAAAAAAAAAADDDAAAAAAAAA",
"AAAAAAAAAAAAAAAAAAAADDDAAAAAAAAA",
"AAAAAAAAAAAAAAAAAAAAAAAAAAAAAAAA",
"AAAAAAAAAAAAAAAAAAAAAAAAAAAAAAAA",
"AAAAAAAAAAAAAAAAAAAAAAAAAAAAAAAA",
"AAAAAAAAAAAAAAAAAAAAAAAAAAAAAAAA",
};
