/* XPM */
static char *ShowSingleSmall[] =
{
/* width height ncolors chars_per_pixel */
"16 16 4 1",
/* colors */
"A c None",
"B c #FFFFCCCC9999",
"C c #888888888888",
"D c #000000000000",
/* pixels */
"AAAAAAAAAAAAAAAA",
"AADDDDDDDAAAAAAA",
"ADBBBBBBBDAAAAAA",
"ADBBBBDBBDCAAAAA",
"ADBBBBDBBDCAAAAA",
"ADBBBBBBBDCAAAAA",
"ADBBBBBDDDCAAAAA",
"ADBBBBBBDCAAAAAA",
"ADBBBDBBDCAAAAAA",
"ADBBBBDDDCAAAAAA",
"ADBBBBBBDCAADDAA",
"AADDDDDDCAAADDAA",
"AAACCCCCAADDDDDD",
"AAAAAAAAAADDDDDD",
"AAAAAAAAAAAADDAA",
"AAAAAAAAAAAADDAA",
};
