/* XPM */
static char *ShowGroupSmall[] =
{
/* width height ncolors chars_per_pixel */
"16 16 5 1",
/* colors */
"A c None",
"B c #FFFFCCCC9999",
"C c #CCCC99996666",
"D c #888888888888",
"E c #000000000000",
/* pixels */
"AAAAAAAAAAAAAAAA",
"AEEEEEAAAAAAAAAA",
"ECCCCCEEEEAAAAAA",
"ECCCECECBBEAAAAA",
"ECCCECECEBEDAAAA",
"ECCCCCECEBEDAAAA",
"ECCCCEEBBBEDAAAA",
"ECCECECBBEEDAAAA",
"ECCCEECEBEDAAAAA",
"ECCCCECBEEDAAAAA",
"AEEEECBBBEDAEEAA",
"AADDDEEEEDAAEEAA",
"AAAAAADDDAEEEEEE",
"AAAAAAAAAAEEEEEE",
"AAAAAAAAAAAAEEAA",
"AAAAAAAAAAAAEEAA",
};
