/* XPM */
static char *ShowGroup[] =
{
/* width height ncolors chars_per_pixel */
"32 32 5 1",
/* colors */
"A c None",
"B c #FFFFCCCC9999",
"C c #CCCC99996666",
"D c #888888888888",
"E c #000000000000",
/* pixels */
"AAAAAAAAAAAAAAAAAAAAAAAAAAAAAAAA",
"AAAAAAAAAAAAAAAAAAAAAAAAAAAAAAAA",
"AAAAAAAAAAAAAAAAAAAAAAAAAAAAAAAA",
"AAAAAAAAAAAAAAAAAAAAAAAAAAAAAAAA",
"AAAAAEEEEEEEEEAAAAAAAAAAAAAAAAAA",
"AAAAECCCCCCCCCEAAAAAAAAAAAAAAAAA",
"AAAAECCCCCCECCEDAAAAAAAAAAAAAAAA",
"AAAAECCCCCCECCEEEEEAAAAAAAAAAAAA",
"AAAAECCCCCCCCCECBBBEAAAAAAAAAAAA",
"AAAAECCCCCCCCCECEBBEDAAAAAAAAAAA",
"AAAAECCCCCCCCCECEBBEDAAAAAAAAAAA",
"AAAAECCCCCCCEEECBBBEDAAAAAAAAAAA",
"AAAAECCCCCCCCECBBBBEDAAAAAAAAAAA",
"AAAAECCCCCECCECBBBBEDAAAAAAAAAAA",
"AAAAECCCCCCEEECBBEEEDAAAAAAAAAAA",
"AAAAECCCCCCCCECBBBEDAAAAAAAAAAAA",
"AAAAAEEEEEEEECBEBBEDAAAAAAAAAAAA",
"AAAAAADDDECCCBBBEEEDAAAAAAAAAAAA",
"AAAAAAAAAEBBBBBBBBEDAAAAAAAAAAAA",
"AAAAAAAAAAEEEEEEEEDAEEEAAAAAAAAA",
"AAAAAAAAAAADDDDDDDAAEEEAAAAAAAAA",
"AAAAAAAAAAAAAAAAAAAAEEEAAAAAAAAA",
"AAAAAAAAAAAAAAAAAEEEEEEEEEAAAAAA",
"AAAAAAAAAAAAAAAAAEEEEEEEEEAAAAAA",
"AAAAAAAAAAAAAAAAAEEEEEEEEEAAAAAA",
"AAAAAAAAAAAAAAAAAAAAEEEAAAAAAAAA",
"AAAAAAAAAAAAAAAAAAAAEEEAAAAAAAAA",
"AAAAAAAAAAAAAAAAAAAAEEEAAAAAAAAA",
"AAAAAAAAAAAAAAAAAAAAAAAAAAAAAAAA",
"AAAAAAAAAAAAAAAAAAAAAAAAAAAAAAAA",
"AAAAAAAAAAAAAAAAAAAAAAAAAAAAAAAA",
"AAAAAAAAAAAAAAAAAAAAAAAAAAAAAAAA",
};
