/* XPM */
static char *Signature[] =
{
/* width height ncolors chars_per_pixel */
"32 32 7 1",
/* colors */
"A c None",
"B c #DDDD00000000",
"C c #EEEEEEEEEEEE",
"D c #AAAAAAAAAAAA",
"E c #888888888888",
"F c #444444444444",
"G c #000000000000",
/* pixels */
"AAAAAAAAAAAAAAAAAAAAAAAAAAAAAAAA",
"AAAAAAAAAAAAAAAAAAAAAAAAAAAAAAAA",
"AAAAAAAAAAAAAAAAAAAAAAAAAAAAAAAA",
"AAAAAAAAAAAAAAAAAAAAAAAAAAAAAAAA",
"AAAAAAAAAAAAAAAAAAAAAAAAAAAAAAAA",
"AAAAAAAFFFFFFFFFFFFFFFFFAAAAAAAA",
"AAAAAAAFDDDDDDDDDDDDDDDFAAAAAAAA",
"AAAAAAAFDDDDDDDDDDDDDDDFAAAAAAAA",
"AAAAAAAFDGDGGGDGDGDGGDDFAAAAAAAA",
"AAAAAAAFDDDDDDDDDDDDDDDFAAAAAAAA",
"AAAAAAAFDGGGDGGGDGGDGDDFAAAAAAAA",
"AAAAAAAFDDDDDDDDDDDDDDDFAAAAAAAA",
"AAAAAAAFDGGDGGGDGGGDGDDFAAAAAAAA",
"AAAAAAAFDDDDDDDDDDDDDDDFAAAAAAAA",
"AAAAAAAFDGGGGDGGDGDGGDDFAAAAAAAA",
"AAAAAAAFDDDDDDDDDDDDDDDFAAAAAAAA",
"AAAAAAAFDGGDGGDGDGGDGDDFAAAAAAAA",
"AAAAAAAFDDDDDDDDDDDDDDDFAAAAAAAA",
"AAAAAAAFDDDDDDDDDDDDDDDFAAAAAAAA",
"AAAAAAAFDDDDDDDDDDDDDDDFAAAAAAAA",
"AAAAAAAFDBBCCCCCCCCCBBDFAAAAAAAA",
"AAAAAAAFDBCECEEECEECCBDFAAAAAAAA",
"AAAAAAAFDCCCCCCCCCCCCCDFAAAAAAAA",
"AAAAAAAFDBCCECEECEEECBDFAAAAAAAA",
"AAAAAAAFDBBCCCCCCCCCBBDFAAAAAAAA",
"AAAAAAAFDDDDDDDDDDDDDDDFAAAAAAAA",
"AAAAAAAFFFFFFFFFFFFFFFFFAAAAAAAA",
"AAAAAAAAAAAAAAAAAAAAAAAAAAAAAAAA",
"AAAAAAAAAAAAAAAAAAAAAAAAAAAAAAAA",
"AAAAAAAAAAAAAAAAAAAAAAAAAAAAAAAA",
"AAAAAAAAAAAAAAAAAAAAAAAAAAAAAAAA",
"AAAAAAAAAAAAAAAAAAAAAAAAAAAAAAAA",
};
