/* XPM */
static char *Sign[] =
{
/* width height ncolors chars_per_pixel */
"32 32 6 1",
/* colors */
"A c None",
"B c #FFFF66663333",
"C c #CCCC99996666",
"D c #666699999999",
"E c #333366666666",
"F c #000000000000",
/* pixels */
"AAAAAAAAAAAAAAAAAAAAAAAAAAAAAAAA",
"AAAAAAAAAAAAAAAAAAAAAAAAAAAAAAAA",
"AAAAAAAAAAAAAAAAAAAAAAAAAAAAAAAA",
"AAAAAAAAAAAAAAAAAAAAAAAAAAAAAAAA",
"AAAAAAAAAAAAAAAAAAABBAAAAAAAAAAA",
"AAAAAAAAAAAAAAAAAABBBBAAAAAAAAAA",
"AAAAAAAAAAAAAAAAADBBBBBAAAAAAAAA",
"AAAAAAAAAAAAAAAAAEBBBBBAAAAAAAAA",
"AAAAAAAAAAAAAAAADEEBBBBAAAAAAAAA",
"AAAAAAAAAAAAAAAAEEEEBBAAAAAAAAAA",
"AAAAAAAAAAAAAAADEEEEEEAAAAAAAAAA",
"AAAAAAAAAAAAAAAEEEEEEAAAAAAAAAAA",
"AAAAAAAAAAAAAADEEEEEDAAAAAAAAAAA",
"AAAAAAAAAAAAAAEEEEEEAAAAAAAAAAAA",
"AAAAAAAAAAAAADEEEEEDAAAAAAAAAAAA",
"AAAAAAAAAAAAAEEEEEEAAAAAAAAAAAAA",
"AAAAAAAAAAAADEEEEEDAAAAAAAAAAAAA",
"AAAAAAAAAAAAEEEEEEAAAAAAAAAAAAAA",
"AAAAAAAAAAACEEEEEDAAAAAAAAAAAAAA",
"AAAAAAAAAAACEEEEEAAAAAAAAAAAAAAA",
"AAAAAAAAAACCCCEEDAAAAAAAAAAAAAAA",
"AAAAAAAAAACCCCCEAAAAAAAAAAAAAAAA",
"AAAAAAAAAAFCCCCCAAAAAAAAAAAAAAAA",
"AAAAAAAAAAFFCCCAAAAAAAAAAAAAAAAA",
"AAAAAAAAAAFFFFAAAAAAAAAAAAAAAAAA",
"AAAAAAAAAAFFFAAAAAAAAAAAAAAAAAAA",
"AAAAAAAAAAFFAAAAAAAAAAAAAAAAAAAA",
"AAAAAAAAAAFAAAAAAAAAAAAAAAAAAAAA",
"AAAAAAAAAAAAAAAAAAAAAAAAAAAAAAAA",
"AAAAAAAAAAAAAAAAAAAAAAAAAAAAAAAA",
"AAAAAAAAAAAAAAAAAAAAAAAAAAAAAAAA",
"AAAAAAAAAAAAAAAAAAAAAAAAAAAAAAAA",
};
