/* XPM */
static char *SMTPEnable[] =
{
/* width height ncolors chars_per_pixel */
"32 32 5 1",
/* colors */
"A c None",
"B c #99999999FFFF",
"C c #66666666CCCC",
"D c #333333336666",
"E c #DDDD00000000",
/* pixels */
"AAAAAAAAAAAAAAAAAAAAAAAAAAAAAAAA",
"AAAAAAAAAAAAAAAAAAAAAAAAAAAAAAAA",
"AAAAAAAAAAAAAAAAAAAAAAAAAAAAAAAA",
"AAAAAAAAAAAAAAAAAAAAAAAAAAAAAAAA",
"AAAAAAAAAAAAAAAAAAAAAAAAAAAAAAAA",
"AAAAAAAAAAAAAAAAAAAAAAAAAAAAAAAA",
"AAAAADDDDDDDAAAAAAAAAAAAAAAAAAAA",
"AAAAADCBBCCDAAAAAAAAAAAAAAAAAAAA",
"AAAAADBCDDDDDDDAAAAAAAAAAAAAAAAA",
"AAAAADCCDCBBCCDAAAAAAAAAAAAAAAAA",
"AAAAADDDDBCDDDDDDDAAAAAAAAAAAAAA",
"AAAAAAAADCCDCBBCCDAAAAAAAAAAAAAA",
"AAAAAAAADDDDBCDDDDDDDAAAAAAAAAAA",
"AAAAAAAAAAADCCDCBBCCDAAAAAAAAAAA",
"AAAAAAAAAAADDDDBCCBBDAAAAAAAAAAA",
"AAAAAAAAAAAAAADCCBCCDAAAAAAAAAAA",
"AAAAAAAAAAAAAADDDDDDDAAAAAAAAAAA",
"AAAAAAAAAAAAAAAAAAAAAAAAAAAAAAAA",
"AAAAAAAAAAAAAAAAAEEEDDDDDDDAAAAA",
"AAAAAAAAAAAAAAAAAAAADCBBCCDAAAAA",
"AAAAAAAAAAAAAAAAAEEDBCCBBDAAAAAA",
"AAAAAAAAAAAAAAAAAADCCBCCDAAAAAAA",
"AAAAAAAAAAAAAAAAAEDDDDDDDAAAAAAA",
"AAAAAAAAAAAAAAAAAAAAAAAAAAAAAAAA",
"AAAAAAAAAAAAAAAAAAAAAAAAAAAAAAAA",
"AAAAAAAAAAAAAAAAAAAAAAAAAAAAAAAA",
"AAAAAAAAAAAAAAAAAAAAAAAAAAAAAAAA",
"AAAAAAAAAAAAAAAAAAAAAAAAAAAAAAAA",
"AAAAAAAAAAAAAAAAAAAAAAAAAAAAAAAA",
"AAAAAAAAAAAAAAAAAAAAAAAAAAAAAAAA",
"AAAAAAAAAAAAAAAAAAAAAAAAAAAAAAAA",
"AAAAAAAAAAAAAAAAAAAAAAAAAAAAAAAA",
};
