/* XPM */
static char *SMTPPriority[] =
{
/* width height ncolors chars_per_pixel */
"32 32 5 1",
/* colors */
"A c None",
"B c #99999999FFFF",
"C c #66666666CCCC",
"D c #333333336666",
"E c #000000000000",
/* pixels */
"AAAAAAAAAAAAAAAAAAAAAAAAAAAAAAAA",
"AAAAAAAAAAAAAAAAAAAAAAAAAAAAAAAA",
"AAAAAAAAAAAAAAAAAAAAAAAAAAAAAAAA",
"AAAAAAAAAAAAAAAAAAAAAAAAAAAAAAAA",
"AAAAAAAAAAAAAAAAAAAAAAAAAAAAAAAA",
"AAAAAAAAAAAAAAAAAAAAAAAAAAAAAAAA",
"AAAAAADDDDDDDAAAAAAAAAAAAAAAAAAA",
"AAAAAADCBBCCDAAAAAAAAAAAAAAAAAAA",
"AAAAAADBCDDDDDDDAAAAAAAAAAAAAAAA",
"AAAAAADCCDCBBCCDAAAAAAAAAAAAAAAA",
"AAAAAADDDDBCCBBDAAAAAAAAAAAAAAAA",
"AAAAAAAAADCCBCCDAAAAAAAAAAAAAAAA",
"AAAAAAAAADDDDDDDDDDDDDAAAAAAAAAA",
"AAAAAAAAAAAAAAADCBBCCDAAAAAAAAAA",
"AAAAAAAAAAEEEAADBCDDDDDDDAAAAAAA",
"AAAAAAAAAEAAAAADCCDCBBCCDAAAAAAA",
"AAAAAAAAEEEAAAADDDDBCCBBDAAAAAAA",
"AAAAAAAAAEAAAAAAAADCCBCCDAAAAAAA",
"AAAAAAAAAAAAAAAAAADDDDDDDAAAAAAA",
"AAAAAAAADDDDDDDAAAAAAAAAAAAAAAAA",
"AAAAAAAADCBBCCDAAAAEAAAAAAAAAAAA",
"AAAAAAAADBCCBBDAEEEEEAAAAAAAAAAA",
"AAAAAAAADCCBCCDAAAAEAAAAAAAAAAAA",
"AAAAAAAADDDDDDDAAAAAAAAAAAAAAAAA",
"AAAAAAAAAAAAAAAAAAAAAAAAAAAAAAAA",
"AAAAAAAAAAAAAAAAAAAAAAAAAAAAAAAA",
"AAAAAAAAAAAAAAAAAAAAAAAAAAAAAAAA",
"AAAAAAAAAAAAAAAAAAAAAAAAAAAAAAAA",
"AAAAAAAAAAAAAAAAAAAAAAAAAAAAAAAA",
"AAAAAAAAAAAAAAAAAAAAAAAAAAAAAAAA",
"AAAAAAAAAAAAAAAAAAAAAAAAAAAAAAAA",
"AAAAAAAAAAAAAAAAAAAAAAAAAAAAAAAA",
};
