/* XPM */
static char *SMTPHoldSmall[] =
{
/* width height ncolors chars_per_pixel */
"16 16 7 1",
/* colors */
"A c #FFFFFFFFFFFF",
"B c None",
"C c #FFFFCCCCFFFF",
"D c #FFFF99999999",
"E c #FFFF66666666",
"F c #EEEE00000000",
"G c #DDDD00000000",
/* pixels */
"BBBBBBBBBBBBBBBB",
"BBBBCEFGGFECBBBB",
"BBBDGGGGGGGGDBBB",
"BBDGGGGGGGGGGDBB",
"BCGGGGGGGGGGGGCB",
"BEGGGGGGGGGGGGEB",
"BFGGGGGGGGGGGGFB",
"BGGAAAAAAAAAAGGB",
"BGGAAAAAAAAAAGGB",
"BFGGGGGGGGGGGGFB",
"BEGGGGGGGGGGGGEB",
"BCGGGGGGGGGGGGCB",
"BBDGGGGGGGGGGDBB",
"BBBDGGGGGGGGDBBB",
"BBBBCEFGGFECBBBB",
"BBBBBBBBBBBBBBBB",
};
