/* XPM */
static char *15706530[] =
{
/* width height ncolors chars_per_pixel */
"16 16 5 1",
/* colors */
"A c None",
"B c #99999999FFFF",
"C c #66666666CCCC",
"D c #333333336666",
"E c #DDDD00000000",
/* pixels */
"DDDDDDDAAAAAAAAA",
"DCBBCCDAAAAAAAAA",
"DBCDDDDDDDAAAAAA",
"DCCDCBBCCDAAAAAA",
"DDDDBCDDDDDDDAAA",
"AAADCCDCBBCCDAAA",
"AAADDDDBCCBBDAAA",
"AAAAAADCCBCCDAAA",
"AAAAAADDDDDDDAAA",
"AAAAAAAAAAAAAAAA",
"AAAAAAAAAAAAAAAA",
"AAAAAAEEEDDDDDDD",
"AAAAAAAAADCBBCCD",
"AAAAAAEEDBCCBBDA",
"AAAAAAADCCBCCDAA",
"AAAAAAEDDDDDDDAA",
};
