/* XPM */
static char *SMTPHold[] =
{
/* width height ncolors chars_per_pixel */
"32 32 6 1",
/* colors */
"A c #FFFFFFFFFFFF",
"B c None",
"C c #FFFFCCCCCCCC",
"D c #FFFF66666666",
"E c #FFFF33333333",
"F c #DDDD00000000",
/* pixels */
"BBBBBBBBBBBBBBBBBBBBBBBBBBBBBBBB",
"BBBBBBBBBBBBBBBBBBBBBBBBBBBBBBBB",
"BBBBBBBBBBBBBBBBBBBBBBBBBBBBBBBB",
"BBBBBBBBBBBBBBBBBBBBBBBBBBBBBBBB",
"BBBBBBBBBBBBBBBBBBBBBBBBBBBBBBBB",
"BBBBBBBBBBBBBBBBBBBBBBBBBBBBBBBB",
"BBBBBBBBBBBBBBBBBBBBBBBBBBBBBBBB",
"BBBBBBBBBBBBBBBBBBBBBBBBBBBBBBBB",
"BBBBBBBBBBBBBBBBBBBBBBBBBBBBBBBB",
"BBBBBBBBBBBBCDEFEDCBBBBBBBBBBBBB",
"BBBBBBBBBBCDEFFFFFEDCBBBBBBBBBBB",
"BBBBBBBBBBDFFFFFFFFFDBBBBBBBBBBB",
"BBBBBBBBBCEFFFFFFFFFECBBBBBBBBBB",
"BBBBBBBBBDFFFFFFFFFFFDBBBBBBBBBB",
"BBBBBBBBBEFFAAAAAAAFFEBBBBBBBBBB",
"BBBBBBBBBFFFAAAAAAAFFFBBBBBBBBBB",
"BBBBBBBBBEFFAAAAAAAFFEBBBBBBBBBB",
"BBBBBBBBBDFFFFFFFFFFFDBBBBBBBBBB",
"BBBBBBBBBCEFFFFFFFFFECBBBBBBBBBB",
"BBBBBBBBBBDFFFFFFFFFDBBBBBBBBBBB",
"BBBBBBBBBBCDEFFFFFEDCBBBBBBBBBBB",
"BBBBBBBBBBBBCDEFEDCBBBBBBBBBBBBB",
"BBBBBBBBBBBBBBBBBBBBBBBBBBBBBBBB",
"BBBBBBBBBBBBBBBBBBBBBBBBBBBBBBBB",
"BBBBBBBBBBBBBBBBBBBBBBBBBBBBBBBB",
"BBBBBBBBBBBBBBBBBBBBBBBBBBBBBBBB",
"BBBBBBBBBBBBBBBBBBBBBBBBBBBBBBBB",
"BBBBBBBBBBBBBBBBBBBBBBBBBBBBBBBB",
"BBBBBBBBBBBBBBBBBBBBBBBBBBBBBBBB",
"BBBBBBBBBBBBBBBBBBBBBBBBBBBBBBBB",
"BBBBBBBBBBBBBBBBBBBBBBBBBBBBBBBB",
"BBBBBBBBBBBBBBBBBBBBBBBBBBBBBBBB",
};
