/* XPM */
static char *SortAscending[] =
{
/* width height ncolors chars_per_pixel */
"16 16 2 1",
/* colors */
"A c None",
"B c #000000000000",
/* pixels */
"AAAAAAAAAAAAAAAA",
"AAAAAAAAAAAAAAAA",
"AAAAAAAAAAAAAAAA",
"AAAAAAAAAAAAAAAA",
"AAAAAABBBAAAAAAA",
"AAAAAABBBAAAAAAA",
"AAAAAAAAAAAAAAAA",
"AAAAABBBBBAAAAAA",
"AAAAABBBBBAAAAAA",
"AAAAAAAAAAAAAAAA",
"AAABBBBBBBBBAAAA",
"AAABBBBBBBBBAAAA",
"AAAAAAAAAAAAAAAA",
"AAAAAAAAAAAAAAAA",
"AAAAAAAAAAAAAAAA",
"AAAAAAAAAAAAAAAA",
};
