/* XPM */
static char *SortDescending[] =
{
/* width height ncolors chars_per_pixel */
"16 16 2 1",
/* colors */
"A c None",
"B c #000000000000",
/* pixels */
"AAAAAAAAAAAAAAAA",
"AAAAAAAAAAAAAAAA",
"AAAAAAAAAAAAAAAA",
"AAAAAAAAAAAAAAAA",
"AAABBBBBBBBBAAAA",
"AAABBBBBBBBBAAAA",
"AAAAAAAAAAAAAAAA",
"AAAAABBBBBAAAAAA",
"AAAAABBBBBAAAAAA",
"AAAAAAAAAAAAAAAA",
"AAAAAABBBAAAAAAA",
"AAAAAABBBAAAAAAA",
"AAAAAAAAAAAAAAAA",
"AAAAAAAAAAAAAAAA",
"AAAAAAAAAAAAAAAA",
"AAAAAAAAAAAAAAAA",
};
