/* XPM */
static char *Spelling[] =
{
/* width height ncolors chars_per_pixel */
"32 32 7 1",
/* colors */
"A c #FFFFFFFFCCCC",
"B c #FFFFFFFF9999",
"C c None",
"D c #CCCCCCCC9999",
"E c #666600009999",
"F c #DDDD00000000",
"G c #0000BBBB0000",
/* pixels */
"CCCCCCCCCCCCCCCCCCCCCCCCCCCCCCCC",
"CCCCCCCCCCCCCCCCCCCCCCCCCCCCCCCC",
"CCCCCCCCCCCCCCCCCCCCCCCCCCCCCCCC",
"CCCCCCCCCCCCCCCCCCCCCCCCCCCCCCCC",
"CCCCCCCCCCCCCCCCCCCCCCCCCCCCCCCC",
"CCCCCCCCCCCCEEEEECCCCCCCCCCCCCCC",
"CCCCCCCCCCEEEEAEEEECCCCCCCCCCCCC",
"CCCCCCCCCEEEAAAAAEEEECCCCCCCCCCC",
"CCCCCCCCEEEAAAAAAAAEEEECCCCCCCCC",
"CCCCCCCCEEEEEAAAAAAAAEEECCCCCCCC",
"CCCCCCCCEEBEEEEAAAAADDEECCCCCCCC",
"CCCCCCCCEBEBEEEEEADDDDEECCCCCCCC",
"CCCCCCCCEBBBEEBBEEDDDDEECCCCCCCC",
"CCCCCCCCEBEBEEEEBEDDDDEECCCCCCCC",
"CCCCCCCCEEEBEEEBBEDDDDEECCCCCCCC",
"CCCCCCCCEEEEEEBBEEDDDDEECCCCCCCC",
"CCCCCCCCGEEEEEEEBEDDDDEECCCCCCCC",
"CCCCCCCCGGGEEEEEEEDDDDEECCCCCCCC",
"CCCCCCCCFGGGGEEEEEDDDDEECCCCCCCC",
"CCCCCCCCFFFGGGGEEEDDDDEECCCCCCCC",
"CCCCCCCCEFFFFGGGGEDDDDEECCCCCCCC",
"CCCCCCCCEEEFFFFGGGDDDDEECCCCCCCC",
"CCCCCCCCEEEEEFFFFGDDDDEECCCCCCCC",
"CCCCCCCCCEEEEEEFFFDDDDEECCCCCCCC",
"CCCCCCCCCCCEEEEEEFDDDEEECCCCCCCC",
"CCCCCCCCCCCCCEEEEEDCCCCCCCCCCCCC",
"CCCCCCCCCCCCCCCEEECCCCCCCCCCCCCC",
"CCCCCCCCCCCCCCCCCECCCCCCCCCCCCCC",
"CCCCCCCCCCCCCCCCCCCCCCCCCCCCCCCC",
"CCCCCCCCCCCCCCCCCCCCCCCCCCCCCCCC",
"CCCCCCCCCCCCCCCCCCCCCCCCCCCCCCCC",
"CCCCCCCCCCCCCCCCCCCCCCCCCCCCCCCC",
};
