/* XPM */
static char *SpellingSmall[] =
{
/* width height ncolors chars_per_pixel */
"16 16 6 1",
/* colors */
"A c #FFFFFFFFCCCC",
"B c None",
"C c #CCCCCCCC9999",
"D c #666600009999",
"E c #DDDD00000000",
"F c #0000BBBB0000",
/* pixels */
"BBBBBDDDBBBBBBBB",
"BBBBDDADDDBBBBBB",
"BBBDDAAAADDDBBBB",
"BBDDAAAAAAADDBBB",
"BBDDDDAAAACCDBBB",
"BBDDADDDACCCDBBB",
"BBDADADDDCCCDBBB",
"BBDAAADADCCCDBBB",
"BBDDDADDDCCCDBBB",
"BBFFDDDADCCCDBBB",
"BBFFFFDDDCCCDBBB",
"BBEEFFFFDCCCDBBB",
"BBDDEEFFFCCCDBBB",
"BBBDDDEEFCCCDBBB",
"BBBBBDDDECCDDBBB",
"BBBBBBBDDBBBBBBB",
};
