/* XPM */
static char *1308859[] =
{
/* width height ncolors chars_per_pixel */
"24 6 2 1",
/* colors */
"A c #EFEFEFEFEFEF",
"B c #8C8C8C8C8C8C",
/* pixels */
"BBBBBBBBBBBBBBBBBBBBBBBB",
"AAAAAAAAAAAAAAAAAAAAAAAA",
"BBBBBBBBBBBBBBBBBBBBBBBB",
"AAAAAAAAAAAAAAAAAAAAAAAA",
"BBBBBBBBBBBBBBBBBBBBBBBB",
"AAAAAAAAAAAAAAAAAAAAAAAA",
};
