/* XPM */
static char *1307038[] =
{
/* width height ncolors chars_per_pixel */
"6 24 2 1",
/* colors */
"A c #EFEFEFEFEFEF",
"B c #8C8C8C8C8C8C",
/* pixels */
"BABABA",
"BABABA",
"BABABA",
"BABABA",
"BABABA",
"BABABA",
"BABABA",
"BABABA",
"BABABA",
"BABABA",
"BABABA",
"BABABA",
"BABABA",
"BABABA",
"BABABA",
"BABABA",
"BABABA",
"BABABA",
"BABABA",
"BABABA",
"BABABA",
"BABABA",
"BABABA",
"BABABA",
};
