/* XPM */
static char *SquareHighlight[] =
{
/* width height ncolors chars_per_pixel */
"16 16 7 1",
/* colors */
"A c None",
"B c #333399996666",
"C c #333366666666",
"D c #0000BBBB0000",
"E c #BBBBBBBBBBBB",
"F c #888888888888",
"G c #000000000000",
/* pixels */
"AAAAAAAAAAAAAAAA",
"AAAAAAAAAAAAAAAA",
"AAAAAAAAAAAAAAAA",
"AAAAAAAAAAAAAAAA",
"AAAAAAAAAAAAAAAA",
"AAAAGGGGGGGAAAAA",
"AAAAGDDBBBGFAAAA",
"AAAAGDBBBBGFEAAA",
"AAAAGBBBBBGFEAAA",
"AAAAGBBBBCGFEAAA",
"AAAAGBBBCCGFEAAA",
"AAAAGGGGGGGFEAAA",
"AAAAAFFFFFFFEAAA",
"AAAAAAEEEEEEEAAA",
"AAAAAAAAAAAAAAAA",
"AAAAAAAAAAAAAAAA",
};
