/* XPM */
static char *Targets[] =
{
/* width height ncolors chars_per_pixel */
"16 16 6 1",
/* colors */
"A c #FFFFFFFFCCCC",
"B c None",
"C c #FFFFCCCC9999",
"D c #CCCC99996666",
"E c #EEEEEEEEEEEE",
"F c #000000000000",
/* pixels */
"BBBBBBBBBBBBBBBB",
"BBBBBBBBBBBBBBBB",
"BBBBBBBBBBBBBBBB",
"BBBDDDDDDDDDBBBB",
"BBDAAAAAAAAADBBB",
"BDAAAFFFFFFAADBB",
"BDAAAFEEEEFFADBB",
"BDAAAFFEFEFFADBB",
"BDAAFFFFFFDFADBB",
"BDAAFCCCCFDFADBB",
"BDAAFCFFCFFAADBB",
"BDAAFFFFFFAAADBB",
"BBDAAAAAAAAADBBB",
"BBBDDDDDDDDDBBBB",
"BBBBBBBBBBBBBBBB",
"BBBBBBBBBBBBBBBB",
};
