/* XPM */
static char *ThreePaneClose[] =
{
/* width height ncolors chars_per_pixel */
"16 16 15 1",
/* colors */
"A c None",
"B c #CCCCCCCCCCCC",
"C c #999999999999",
"D c #666666666666",
"E c #EEEEEEEEEEEE",
"F c #DDDDDDDDDDDD",
"G c #BBBBBBBBBBBB",
"H c #AAAAAAAAAAAA",
"I c #888888888888",
"J c #777777777777",
"K c #555555555555",
"L c #444444444444",
"M c #222222222222",
"N c #111111111111",
"O c #000000000000",
/* pixels */
"AAAAAAAAAAAAAAAA",
"AAAAAAAAAAAAAAAA",
"AAAAAAAAAAAAAAAA",
"AAAAAAAAAAAAAAAA",
"AAAAEONEAIOKAAAA",
"AAAAACOLCOLAAAAA",
"AAAAAALOOMEAAAAA",
"AAAAAAFOOBAAAAAA",
"AAAAAENOOMAAAAAA",
"AAAAAMOGJODAAAAA",
"AAAAKOHAAMOBAAAA",
"AAAAAAAAAAAAAAAA",
"AAAAAAAAAAAAAAAA",
"AAAAAAAAAAAAAAAA",
"AAAAAAAAAAAAAAAA",
"AAAAAAAAAAAAAAAA",
};
