/* XPM */
static char *Toolbar32Up[] =
{
/* width height ncolors chars_per_pixel */
"32 7 4 1",
/* colors */
"A c #FFFFFFFFFFFF",
"B c #CECECECECECE",
"C c #8C8C8C8C8C8C",
"D c #63636363CECE",
/* pixels */
"DBBBBBBBBBBBBBBBBBBBBBBBBBBBBBBB",
"DDBBBABBABBABBABBABBABBABBABBABB",
"DDDBBBCBBCBBCBBCBBCBBCBBCBBCBBCB",
"DDDDBBBBBBBBBBBBBBBBBBBBBBBBBBBB",
"DDDBBABBABBABBABBABBABBABBABBABB",
"DDBBBBCBBCBBCBBCBBCBBCBBCBBCBBCB",
"DBBBBBBBBBBBBBBBBBBBBBBBBBBBBBBB",
};
