/* XPM */
static char *TwistUp[] =
{
/* width height ncolors chars_per_pixel */
"16 16 7 1",
/* colors */
"A c None",
"B c #CCCCCCCCFFFF",
"C c #99999999FFFF",
"D c #66666666CCCC",
"E c #BBBBBBBBBBBB",
"F c #888888888888",
"G c #000000000000",
/* pixels */
"AAAAAAAAAAAAAAAA",
"AAAAAAAAAAAAAAAA",
"AAAAAAGAAAAAAAAA",
"AAAAAAGGAAAAAAAA",
"AAAAAAGBGAAAAAAA",
"AAAAAAGBCGAAAAAA",
"AAAAAAGBCCGAAAAA",
"AAAAAAGBCCDGAAAA",
"AAAAAAGBCDGFEAAA",
"AAAAAAGBDGFEAAAA",
"AAAAAAGCGFEAAAAA",
"AAAAAAGGFEAAAAAA",
"AAAAAAGFEAAAAAAA",
"AAAAAAAEAAAAAAAA",
"AAAAAAAAAAAAAAAA",
"AAAAAAAAAAAAAAAA",
};
