/* XPM */
static char *TwistUpPushed[] =
{
/* width height ncolors chars_per_pixel */
"16 16 3 1",
/* colors */
"A c None",
"B c #333333339999",
"C c #000000000000",
/* pixels */
"AAAAAAAAAAAAAAAA",
"AAAAAAAAAAAAAAAA",
"AAAAAACAAAAAAAAA",
"AAAAAACCAAAAAAAA",
"AAAAAACBCAAAAAAA",
"AAAAAACBBCAAAAAA",
"AAAAAACBBBCAAAAA",
"AAAAAACBBBBCAAAA",
"AAAAAACBBBCAAAAA",
"AAAAAACBBCAAAAAA",
"AAAAAACBCAAAAAAA",
"AAAAAACCAAAAAAAA",
"AAAAAACAAAAAAAAA",
"AAAAAAAAAAAAAAAA",
"AAAAAAAAAAAAAAAA",
"AAAAAAAAAAAAAAAA",
};
