/* XPM */
static char *Unknown[] = {
/* width height num_colors chars_per_pixel */
"    32    32        2            1",
/* colors */
". c #000000",
"# c #c0c0c0",
/* pixels */
"................................",
"................................",
"................................",
"....#####.......................",
"....#####.#.....................",
"....#...#.......................",
"....########....................",
"....#.#..#.#....................",
"....########....................",
"....#...#..#....................",
"....########....................",
"....#.#..#.#....................",
"....########....................",
"................................",
"................................",
"................................",
"................................",
"................................",
"................................",
"................................",
"................................",
"................................",
"................................",
"................................",
"................................",
"................................",
"................................",
"................................",
"................................",
"................................",
"................................",
"................................"
};
