/* XPM */
static char *UnknownFile[] =
{
/* width height ncolors chars_per_pixel */
"16 16 4 1",
/* colors */
"A c None",
"B c #CCCCCCCCCCCC",
"C c #EEEEEEEEEEEE",
"D c #000000000000",
/* pixels */
"AAAAAAAAAAAAAAAA",
"AAAAAAAAAAAAAAAA",
"AAADDDDDDDAAAAAA",
"AAADCCCCCDDAAAAA",
"AAADCCCCCDBDAAAA",
"AAADCDDDCDDDDAAA",
"AAADCCCCCCCCDAAA",
"AAADCDCDDCDCDAAA",
"AAADCCCCCCCCDAAA",
"AAADCDDDCDDCDAAA",
"AAADCCCCCCCCDAAA",
"AAADCDCDDCDCDAAA",
"AAADCCCCCCCCDAAA",
"AAADDDDDDDDDDAAA",
"AAAAAAAAAAAAAAAA",
"AAAAAAAAAAAAAAAA",
};
