/* XPM */
static char *UserPswdManageSIEVE[] =
{
/* width height ncolors chars_per_pixel */
"32 32 19 1",
/* colors */
"A c #FFFFFFFFFFFF",
"B c None",
"C c #FFFF66663333",
"D c #CCCCCCCCFFFF",
"E c #CCCCCCCCCCCC",
"F c #CCCC99996666",
"G c #99999999FFFF",
"H c #666699999999",
"I c #66666666CCCC",
"J c #333399996666",
"K c #333366666666",
"L c #333333336666",
"M c #0000BBBB0000",
"N c #DDDDDDDDDDDD",
"O c #AAAAAAAAAAAA",
"P c #888888888888",
"Q c #777777777777",
"R c #444444444444",
"S c #000000000000",
/* pixels */
"BBBBBBBBBBBBBBBBBBBBBBBBBBBBBBBB",
"BBBBBBBBBBBBBBBBBBBBBBBBBBBBBBBB",
"BBBBBBBBBBBBBBBBBBBBBBBBBBBBBBBB",
"BBBBBBBBBBBBBBBBBBBBBBBBBBBBBBBB",
"BBBBBBBBBNSSSNBBBBBBBBBBBBBBBBBB",
"BBBBBBBBNSAADSBBBCCBBBBBBBBBBBBB",
"BBBBBBBNSAADPSBBHCCCBBBBBBBBBBBB",
"BBBBBBNSAADPSNBBKKCCBBBBBBBBBBBB",
"BBBBBNSAADPSPSNHKKKBBBBBBBBBBBBB",
"BBBBNSAADPSPPDSKKKHBBBBBBBBBBBBB",
"BBBBSSSDPSPPDSHKKKBBBBBBBBBBBBBB",
"BBBBSPPSSPPDSSKKKHBBBBBBBBBBBBBB",
"BBBBSPDSDPDSDFKKKSNBBBBBBBBBBBBB",
"BBBBBSADNDNDNFFKHDSBBBBBBBBBBBBB",
"BBBBBBSADSSNDSFFDDSBBBBBBBBBBBBB",
"BBBBBBBSADNDSSSDDOSBBQRSRQBBBBBB",
"BBBBBBBBSADSDSDDOSBBSDMDDGSBBBBB",
"BBBBBBBBBSADNDDOSBBQKMDJDKKQBBBB",
"BBBBBBBBBBSADDOSBBBRKMJJGKKRBBBB",
"BBBBBBBBBSSSDOSBBBBSKMJJGMKSBBBB",
"BBBBBBBBSPOSOSBBBBBRDDJGGKKRBBBB",
"BBBBBBBBSODSSBBBBBBQGDKKIILQBBBB",
"BBBBBBBBBSSSBBBBBBBBSGKKLLSBBBBB",
"BBBBBBBBBBBBBBBBBBBBBQRSRQBBBBBB",
"BBBBBBBBBBBBBBBBBBBBBBBSBBBBBBBB",
"BBBBBBBBBBBBBBBBBBBBBBSESBBBBBBB",
"BBBBBBBBBBBBBBBBBBBPPRSSRRPPBBBB",
"BBBBBBBBBBBBBBBBBBBBBBBBBBBBBBBB",
"BBBBBBBBBBBBBBBBBBBBBBBBBBBBBBBB",
"BBBBBBBBBBBBBBBBBBBBBBBBBBBBBBBB",
"BBBBBBBBBBBBBBBBBBBBBBBBBBBBBBBB",
"BBBBBBBBBBBBBBBBBBBBBBBBBBBBBBBB",
};
