/* XPM */
static char *UserPswdPOP3[] =
{
/* width height ncolors chars_per_pixel */
"32 32 7 1",
/* colors */
"A c None",
"B c #DDDD00000000",
"C c #00000000DDDD",
"D c #BBBBBBBBBBBB",
"E c #AAAAAAAAAAAA",
"F c #888888888888",
"G c #000000000000",
/* pixels */
"AAAAAAAAAAAAAAAAAAAAAAAAAAAAAAAA",
"AAAAAAAAAAAAAAAAAAAAAAAAAAAAAAAA",
"AAAAAAAAAAAAAABBBBAAAAAAAAAAAAAA",
"AAAAAAAAAAAAAABBBBAAAAAAAAAAAAAA",
"AAAAAAAAAAAAAABBBBAAAAAAAAAAAAAA",
"AAAAAAAAAAAAAABBBBAAAAAAAAAAAAAA",
"AAAAAAACCCCCBBBBBBBBCCCCCAAAAAAA",
"AAAAAAACCCCCBBBBBBBBCCCCCFAAAAAA",
"AAAAAAACCGGCBBBBBBBBCAACCFDAAAAA",
"AAAAAAACCGGCBBBBBBBBCAACCFDAAAAA",
"AAAAAAACCAACCBBBBBBCCCCCCFDAAAAA",
"AAAAAAACCAACCCBBBBCCCCCCCFDAAAAA",
"AAAAAAACCCCCCCFBBFCCCCCCCFDAAAAA",
"AAAAAAACCCCCCFEEEEFCCCCCCFDAAAAA",
"AAAAAAACCCCCCEECCEECCCCCCFDAAAAA",
"AAAAAAACCCCCCEECCEECCCCCCFDAAAAA",
"AAAAAAACCCCCCFEEEEFCCCCCCFDAAAAA",
"AAAAAAACCCCCCCFEEFCCCCCCCFDAAAAA",
"AAAAAAACCCCCCCCCCCCCCCCCCFDAAAAA",
"AAAAAAACCCCCCCCCCCCCCCCCCFDAAAAA",
"AAAAAAACCCCCFEEEEEEEFCCCCFDAAAAA",
"AAAAAAACCCCCEEEEEECCECCCCFDAAAAA",
"AAAAAAACCCCCEEEEEECCECCCFDAAAAAA",
"AAAAAAACCCCCEEEEEECCECCFDAAAAAAA",
"AAAAAAAAFFFFFFFFFFFFFFFDAAAAAAAA",
"AAAAAAAAADDDDDDDDDDDDDDAAAAAAAAA",
"AAAAAAAAAAAAAAAAAAAAAAAAAAAAAAAA",
"AAAAAAAAAAAAAAAAAAAAAAAAAAAAAAAA",
"AAAAAAAAAAAAAAAAAAAAAAAAAAAAAAAA",
"AAAAAAAAAAAAAAAAAAAAAAAAAAAAAAAA",
"AAAAAAAAAAAAAAAAAAAAAAAAAAAAAAAA",
"AAAAAAAAAAAAAAAAAAAAAAAAAAAAAAAA",
};
