/* XPM */
static char *UserPswdSMTP[] =
{
/* width height ncolors chars_per_pixel */
"32 32 5 1",
/* colors */
"A c None",
"B c #99999999FFFF",
"C c #66666666CCCC",
"D c #333333336666",
"E c #DDDD00000000",
/* pixels */
"AAAAAAAAAAAAAAAAAAAAAAAAAAAAAAAA",
"AAAAAAAAAAAAAAAAAAAAAAAAAAAAAAAA",
"AAAAAAAAAAAAAAAAAAAAAAAAAAAAAAAA",
"AAAAAAAAAAAAAAAAAAAAAAAAAAAAAAAA",
"AAAAAAAAAAAAAAAAAAAAAAAAAAAAAAAA",
"AAAAAAAAAAAAAAAAAAAAAAAAAAAAAAAA",
"AAAAAAAAAAAAAAAAAAAAAAAAAAAAAAAA",
"AAAAAAAAAAAAAAAAAAAAAAAAAAAAAAAA",
"AAAAAAAAAAAAAAAAAAAAAAAAAAAAAAAA",
"EEEEEEEEDDDDDDDDDDDDDDDDDDDDDDAA",
"AAAAAAACDCBBBBBBBBBBBBBBBBBCCDAA",
"EEEEEEEDCCBBBBBBBBBBBBBBBCCBDCAA",
"AAAAAACDBBCBBBBBBBBBBBBCCBBCDAAA",
"EEEEEEDCBBBCBBBBBBBBBCCBBBBDCAAA",
"AAAAACDBBBBBCCBBBBBCCBBBBBCDAAAA",
"EEEEEDCBBBBBBCCCCCCBBBBBBBDCAAAA",
"AAAACDBBBBBBBCCCCCCBBBBBBCDAAAAA",
"EEEEDCBBBBBCCBBBBBCCBBBBBDCAAAAA",
"AAACDBBBBCCBBBBBBBBBCBBBCDAAAAAA",
"EEEDCBBCCBBBBBBBBBBBBCBBDCAAAAAA",
"AACDBCCBBBBBBBBBBBBBBBCCDAAAAAAA",
"EEDCCBBBBBBBBBBBBBBBBBCDCAAAAAAA",
"AADDDDDDDDDDDDDDDDDDDDDDAAAAAAAA",
"AAAAAAAAAAAAAAAAAAAAAAAAAAAAAAAA",
"AAAAAAAAAAAAAAAAAAAAAAAAAAAAAAAA",
"AAAAAAAAAAAAAAAAAAAAAAAAAAAAAAAA",
"AAAAAAAAAAAAAAAAAAAAAAAAAAAAAAAA",
"AAAAAAAAAAAAAAAAAAAAAAAAAAAAAAAA",
"AAAAAAAAAAAAAAAAAAAAAAAAAAAAAAAA",
"AAAAAAAAAAAAAAAAAAAAAAAAAAAAAAAA",
"AAAAAAAAAAAAAAAAAAAAAAAAAAAAAAAA",
"AAAAAAAAAAAAAAAAAAAAAAAAAAAAAAAA",
};
