/* XPM */
static char *89751[] =
{
/* width height ncolors chars_per_pixel */
"48 48 103 2",
/* colors */
"AA c None",
"BA c #E7E7DEDEDEDE",
"CA c #DEDEDEDEDEDE",
"DA c #D6D6CECECECE",
"EA c #CECECECECECE",
"FA c #CECE9494A5A5",
"GA c #CECE84849C9C",
"HA c #CECE7B7B9494",
"IA c #CECE73738C8C",
"JA c #C6C66B6B8484",
"KA c #BDBDBDBDBDBD",
"LA c #BDBD84849494",
"MA c #BDBD7B7B8C8C",
"NA c #BDBD6B6B8484",
"OA c #BDBD6B6B7B7B",
"PA c #BDBD5A5A7373",
"AB c #BDBD52526B6B",
"BB c #B5B5ADADADAD",
"CB c #B5B542426363",
"DB c #ADADADADADAD",
"EB c #ADAD7B7B8C8C",
"FB c #ADAD6B6B7B7B",
"GB c #ADAD5A5A7373",
"HB c #ADAD5A5A6B6B",
"IB c #ADAD4A4A6363",
"JB c #ADAD4A4A5A5A",
"KB c #A5A539395252",
"LB c #9C9C9C9C9C9C",
"MB c #9C9C6B6B7373",
"NB c #9C9C63636B6B",
"OB c #9C9C5A5A6B6B",
"PB c #9C9C4A4A6363",
"AC c #9C9C4A4A5A5A",
"BC c #94948C8C9494",
"CC c #949452525A5A",
"DC c #949439395252",
"EC c #949439394A4A",
"FC c #8C8C8C8C8C8C",
"GC c #8C8C73737B7B",
"HC c #8C8C6B6B7373",
"IC c #8C8C5A5A6B6B",
"JC c #8C8C4A4A5A5A",
"KC c #8C8C39395252",
"LC c #8C8C29294A4A",
"MC c #84846B6B6B6B",
"NC c #848439394A4A",
"OC c #848429293939",
"PC c #7B7B7B7B7B7B",
"AD c #7B7B63636B6B",
"BD c #7B7B5A5A6363",
"CD c #7B7B52525A5A",
"DD c #7B7B4A4A5252",
"ED c #7B7B42424A4A",
"FD c #7B7B39395252",
"GD c #7B7B31314A4A",
"HD c #7B7B29294242",
"ID c #7B7B21213939",
"JD c #6B6B6B6B6B6B",
"KD c #6B6B52525A5A",
"LD c #6B6B4A4A5252",
"MD c #6B6B42424A4A",
"ND c #6B6B39394A4A",
"OD c #636321213131",
"PD c #636310102121",
"AE c #5A5A63635A5A",
"BE c #5A5A5A5A5A5A",
"CE c #5A5A4A4A4A4A",
"DE c #5A5A39394A4A",
"EE c #5A5A31313939",
"FE c #5A5A29293939",
"GE c #5A5A08081818",
"HE c #52524A4A5252",
"IE c #525218183131",
"JE c #4A4A4A4A5252",
"KE c #4A4A4A4A4A4A",
"LE c #4A4A39393939",
"ME c #4A4A29293939",
"NE c #4A4A18182929",
"OE c #424239394242",
"PE c #424229292929",
"AF c #424221214242",
"BF c #424210103131",
"CF c #393939393939",
"DF c #393929292929",
"EF c #393918182929",
"FF c #313131312929",
"GF c #313129293131",
"HF c #292931313131",
"IF c #292931312929",
"JF c #292929292929",
"KF c #212129293131",
"LF c #212121214242",
"MF c #181831313131",
"NF c #181831312929",
"OF c #181829292929",
"PF c #080839393939",
"AG c #000042426363",
"BG c #000042424242",
"CG c #000042422121",
"DG c #000031312929",
"EG c #000021212121",
"FG c #000021210000",
"GG c #000000000000",
/* pixels */
"AAAAAAAAAAAAAAAAAAAAAAAAAAAAAAAAAAAAAAAAAAAAAAAAAAAAAAAAAAAAAAAAAAAAAAAAAAAAAAAAAAAAAAAAAAAAAAAA",
"AAAAAAAAAAAAAAAAAAAAAAAAAAAAAAAAAAAAAAAAAACADBLBJDPCLBDAAAAAAAAAAAAAAAAAAAAAAAAAAAAAAAAAAAAAAAAA",
"AAAAAAAAAAAAAAAAAAAAAAAAAAAAAAAAAAAAAACALBJDBEKEKEKECFBEDBAAAAAAAAAAAAAAAAAAAAAAAAAAAAAAAAAAAAAA",
"AAAAAAAAAAAAAAAAAAAAAAAAAAAAAAAAAAAACAADBEBEADADADBDHEKECFBCCAAAAAAAAAAAAAAAAAAAAAAAAAAAAAAAAAAA",
"AAAAAAAAAAAAAAAAAAAAAAAAAAAAAAAAAACAPCAEGCEBLAGAGAMAEBOBBECFPCCAAAAAAAAAAAAAAAAAAAAAAAAAAAAAAAAA",
"AAAAAAAAAAAAAAAAAAAACALBFCPCKACAAALBBEGCLAGAGAFAFAGAIAMAPAHEDFPCCAAACAKALBLBEAAAAAAAAAAAAAAAAAAA",
"AAAAAAAAAAAAAAAAAACAJDBEKDKDKEJDJDKEJDFBLAGAFAFAFAFAGAMAPAHBOECFPCEAPCKEBEOEKEDBAAAAAAAAAAAAAAAA",
"AAAAAAAAAAAAAAAAAALBHENBMAOAICKECFKEMCOAMALALALALALAIAOAHBIBDDIFCFCFCEICOBJCLECFEAAAAAAAAAAAAAAA",
"AAAAAAAAAAAAAAAAAAPCLDOAOANAOALDHFCEHBFBFBMALAEBOAFBHBIBACDCPBOEHFKEOBOAPAPANDCGLBAAAAAAAAAAAAAA",
"AAAAAAAAAAAAAAAAAALBJEGBNAIAPAJCJFDEHBGBFBFBFBHBHBKBACDCDCECACDEPFDDGBPAOAHBDDBGFCAAAAAAAAAAAAAA",
"AAAAAAAAAAAAAAAAAALBCFOBPAOAHBACKFNDHBHBHBHBHBJBDCDCNCNCLCECECNDFFPBABFBPAIBNDKFKAAAAAAAAAAAAAAA",
"AAAAAAAAAAAAAAAACAJDCFDEHBIBACACDELEHBIBHBIBJBDCECOCLCOCOCNCDCDEDDIBACIBIBJCJFCFCAAAAAAAAAAAAAAA",
"AAAAAAAAAAAABAKAJDKECFJFDEJBDCJBFDLEIBIBACDCDCNCLCIDIDIDHDNCNCCEDCJBACACFDKFJFCFLBCAAAAAAAAAAAAA",
"AAAAAAAACAKAPCKEKEKEKECFIFDEACIBACKEJCJBKBDCNCLCIDIDODIDLCECNDMEIBJBJCDENFCFCFHFCFBELBCAAAAAAAAA",
"AAAAAACAPCBEBEBEADNBNBOBBDCECFFDCDOEKEACDCDCNCOCIDIDIDGDNCNCLELEPBLDOEKDMCOBMBOBKDKECFBEEAAAAAAA",
"AAAACAJDBEBEHCFBMAEBNAFBGBHBJCKEHFJFKFCEPBKBNCLCNCOCNCNCNCDEOFJFKEKDNBFBFBNAOAMAOAFBBDDFKEKAAAAA",
"AAAAFCHEKEHCMAMALAMAEBOAFBHBHBPBOEJFKFOFKEGDJCNCECNCNCGDLEDGDFKFKDFBNAEBMAEBNAEBMAOAOALDOFBECAAA",
"AAKAKEKEKDEBGALAGALAMAEBGBHBIBIBJCCFGFJFJFPFFFMEFEMEGFPFJFJFJFKENBFBEBMAEBMAEBNAMAHAPAOBKEEFLBAA",
"AALBKECFMCIALAFALALAEBHBGBIBACJBJBDEOFKFCFLDICACJCACJCCEHFKFJFLDGBOAEBMAEBMAFBOAOAJANAPADDMFJDAA",
"AAFCOEKEMBLAGAFALAMAFBHBJBJBDCDCACGDMFHFCDFBFBOAFBFBHBHBLDJFHFDDFBFBOAEBFBFBHBHBPAOANAABJCKFKECA",
"AAFCCFCEFBIAGALAOAHBIBACDCDCECECDCKCNFCDFBNAMAEBFBPAFBCBHBHEHFICABFBHBFBHBJBIBDCPBOBFBHBJCEFKECA",
"AAFCDFKEFBLAIAMAHBIBDCECNCLCHDLCECGDCFOBMAMAEBNAFBFBABFBABACKEJCHBPBHBIBKBACNCKCKCACOBOBJCDFKECA",
"AALBHFOEHBJAIAOAJBDCNCLCIDIDHDNCNCEDHEOANAMAMAFBGBIBHBHBHBHBDEDDIBJBJBACDCECLCGDGDJCACPBDDBFJDAA",
"AAKACFIFICPAMAPAACNCLCIDIDIDIDOCDCDELDOAIAMAOAHBIBDCACPBOBIBMDLDIBJBDCDCNCHDIDIDGDDDJCACNDGGLBAA",
"AACAKEJFDEOAHBGBACNCIDODIDIDIDNCDDCFLDPAMANAOAIBDCDCNCDCPBHBNDCFACDCDCECLCIDHDGDGDJCJCDDMEDFEAAA",
"AAAAEACFFFCDPAHBJCNCIDOCIDIDNCDDMEPFLDGBOAJAGBACKCIDLCGDACPBDEOFCEPBKBECNCGDIDGDGDNCNCDEGGDBAAAA",
"AAAAAAFCGFCFDDOBDCECNCLCNCNCGDLEMFJFGFHBHBPAHBJCNCIDIDGDNCACLEKFOFOEJCDCECOCNCNCECJCDEHFFCAAAAAA",
"AAAAAAEAKEDFKFLEMDGDGDNDGDNDHFBGMFKFKFLDIBHBOBDCNCGDGDLCACMDKFKFCFIFHFDEGDNCNCODNDFFBGMFKAAAAAAA",
"AAAAAAFCCFHFHFGFLEPEFFJFPFIFCELDLDCEHFHFDDIBACDCNCOCNCECMDMFCEADMCOBCDCEIFPFLEEDNDDELEPFHECAAAAA",
"AACABCKEKEMDJCACACIBCECFLDMCFBFBGBHBICCEOEDEJCACKCNCNCDECFBDMBOAOAFBOAGBCDLELDIBJBHBPBDDEEKEDBAA",
"AALBKEADGBPAIBJBIBACKEICOAOAFBFBFBGBHBCBCDHFJFCFCFLEJFCFMCOANAEBNANAFBHBHBPBDEDDCBHBHBPAPADDKEKA",
"LBKEBDOANAPAHBPBACDEBDOAFBEBEBMAFBFBHBHBIBDDHFJFJFJFMFCDOAFBEBMAEBEBFBGBHBIBJCLEJCIBPAOANAABFEJD",
"JDKEOBPAOAGBIBACLEOEGBFBMAMAMAEBFBHBHBJBIBPBOEKFKFJFOEFBGBMAEBMAEBFBFBIBJBACJBNDGFACHBNAOAPBFEKE",
"FCKFJCABHBHBJBDEBGLDOAFBMAEBEBFBGBHBJBJBDCJBMDKFDFOFKDHBFBFBMAFBFBFBIBJBDCKBDCJCKFCFPBIBJBNCNEJD",
"EAKEDFFDACJCMEOFHFICGBOAFBFBOAHBHBDCDCDCKBACGDHFHFHFCDGBFBFBFBFBHBJBDCDCDCKCDCDCLEMFGFODFEPDKFBB",
"AALBJFGGEFAFAGJFFFICOAFBOAFBIBJBDCDCDCECKCDCJCHFCFHFDDHBHBHBIBIBKBDCDCNCNCKCACACGFCFJDJDJDPCKAAA",
"AAAAEAPCBEJDCFGFCFJCPAOAFBIBACDCNCLCIDLCNCECDDLEOBLDDDIBJBACJBDCDCNCOCLCGDJCACJCGFCECAAAAAAAAAAA",
"AAAAAAAAAAAAKACFEGDDGBNAPAHBPBNCLCIDIDIDLCECDENDIBKCCEPBJBKBDCNCNCIDIDGDGDJCPBDDEFBEAAAAAAAAAAAA",
"AAAAAAAAAAAAAAADMFCEABGBOAOBACKCODIDIDIDGDECDEACJBACCFJCDCDCDCLCOCHDGDGDJCJCOBNDGGJDAAAAAAAAAAAA",
"AAAAAAAAAAAAAADBJFGFDDHBPBHBJCJCGDIDGDLCNCMDNDIBPBJBMEDEPBKBECNCGDGDGDEDJCCCEDMEFGKAAAAAAAAAAAAA",
"AAAAAAAAAAAAAACAKEHFOEJCACACJCKCNCGDOCNCGDHFJCJBIBPBGDDGCEKCDCECNCNCJCJCJCDDMEGGFCAAAAAAAAAAAAAA",
"AAAAAAAAAAAAAAAACABEKFHFNDJCDCECNCNCNCDEHFJFJCIBHBIBACFFDGCFNDNCNCNCJCGDCENEGGFCAAAAAAAAAAAAAAAA",
"AAAAAAAAAAAAAAAAAAEAOELFKFGFFEDEFEFEDFBGKFDFPBPAHBIBJCGFEGGGGGDFBFPEPEIEGGCFDBAAAAAAAAAAAAAAAAAA",
"AAAAAAAAAAAAAAAAAAAAEAPCCFFGGGGGGGGGGGDFCFJFJCHBHBACFDGEPCDBBECFGGGGGFKEPCEAAAAAAAAAAAAAAAAAAAAA",
"AAAAAAAAAAAAAAAAAAAAAAAACAPCOECFKEJDDBEAEACFLEACDCJCNEHFCAAAAACAEAKACAAAAAAAAAAAAAAAAAAAAAAAAAAA",
"AAAAAAAAAAAAAAAAAAAAAAAAAAAACACACAAAAAAAAADBPFNEFEGEKFDBAAAAAAAAAAAAAAAAAAAAAAAAAAAAAAAAAAAAAAAA",
"AAAAAAAAAAAAAAAAAAAAAAAAAAAAAAAAAAAAAAAAAAAADBJDBEJDBBAAAAAAAAAAAAAAAAAAAAAAAAAAAAAAAAAAAAAAAAAA",
"AAAAAAAAAAAAAAAAAAAAAAAAAAAAAAAAAAAAAAAAAAAAAAAAAAAAAAAAAAAAAAAAAAAAAAAAAAAAAAAAAAAAAAAAAAAAAAAA",
};
